<svg width="79" height="35" viewBox="0 0 79 35" fill="none" xmlns="http://www.w3.org/2000/svg">
<g clip-path="url(#clip0_973_72)">
<path d="M18 24L19.4166 27.0503L22.7553 27.4549L20.292 29.7447L20.9389 33.0451L18 31.41L15.0611 33.0451L15.708 29.7447L13.2447 27.4549L16.5834 27.0503L18 24Z" fill="#F6AD01"/>
<path d="M28 24L29.4166 27.0503L32.7553 27.4549L30.292 29.7447L30.9389 33.0451L28 31.41L25.0611 33.0451L25.708 29.7447L23.2447 27.4549L26.5834 27.0503L28 24Z" fill="#F6AD01"/>
<path d="M38 24L39.4166 27.0503L42.7553 27.4549L40.292 29.7447L40.9389 33.0451L38 31.41L35.0611 33.0451L35.708 29.7447L33.2447 27.4549L36.5834 27.0503L38 24Z" fill="#F6AD01"/>
<path d="M48 24L49.4166 27.0503L52.7553 27.4549L50.292 29.7447L50.9389 33.0451L48 31.41L45.0611 33.0451L45.708 29.7447L43.2447 27.4549L46.5834 27.0503L48 24Z" fill="#F6AD01"/>
<path d="M58 24L59.4166 27.0503L62.7553 27.4549L60.292 29.7447L60.9389 33.0451L58 31.41L55.0611 33.0451L55.708 29.7447L53.2447 27.4549L56.5834 27.0503L58 24Z" fill="#F6AD01"/>
</g>
<path d="M12.108 13.61V11.146H18.84V11.52C18.84 13.5293 18.3927 15.1793 17.498 16.47C16.178 18.3767 14.2347 19.33 11.668 19.33C9.39467 19.33 7.53933 18.626 6.102 17.218C4.67933 15.7953 3.968 13.9473 3.968 11.674C3.968 9.40067 4.694 7.55267 6.146 6.13C7.61267 4.70733 9.48267 3.996 11.756 3.996C12.724 3.996 13.604 4.128 14.396 4.392C15.188 4.656 15.8333 5.008 16.332 5.448C16.8307 5.888 17.1973 6.25467 17.432 6.548C17.6667 6.82667 17.872 7.12733 18.048 7.45L15.562 8.792C15.4447 8.60133 15.3053 8.41067 15.144 8.22C14.9973 8.01467 14.77 7.78 14.462 7.516C14.154 7.23733 13.758 7.01733 13.274 6.856C12.8047 6.68 12.2913 6.592 11.734 6.592C10.3113 6.592 9.15267 7.09067 8.258 8.088C7.36333 9.07067 6.916 10.2807 6.916 11.718C6.916 13.0233 7.31933 14.1893 8.126 15.216C8.93267 16.228 10.128 16.734 11.712 16.734C12.812 16.734 13.7433 16.4773 14.506 15.964C15.2833 15.4507 15.7453 14.666 15.892 13.61H12.108ZM53.3446 10.706V9.474H56.0286V18.648C56.0286 19.2053 56.0139 19.6307 55.9846 19.924C55.9699 20.2173 55.8746 20.6133 55.6986 21.112C55.5373 21.6107 55.2879 22.058 54.9506 22.454C53.9679 23.5687 52.6406 24.126 50.9686 24.126C49.6046 24.126 48.4459 23.7667 47.4926 23.048C46.5539 22.3293 46.0039 21.354 45.8426 20.122H48.7466C48.8493 20.6647 49.0986 21.0827 49.4946 21.376C49.8906 21.684 50.3893 21.838 50.9906 21.838C51.4306 21.838 51.8046 21.7573 52.1126 21.596C52.4353 21.4347 52.6699 21.2513 52.8166 21.046C52.9779 20.8553 53.0953 20.6133 53.1686 20.32C53.2566 20.0267 53.3079 19.7993 53.3226 19.638C53.3373 19.4913 53.3446 19.33 53.3446 19.154V17.724C52.6553 18.78 51.6799 19.308 50.4186 19.308C48.9959 19.308 47.8373 18.8167 46.9426 17.834C46.0479 16.8513 45.6006 15.6487 45.6006 14.226C45.6006 12.8327 46.0333 11.6447 46.8986 10.662C47.7639 9.66467 48.9153 9.166 50.3526 9.166C51.6726 9.166 52.6699 9.67933 53.3446 10.706ZM52.9046 12.312C52.4059 11.7987 51.7753 11.542 51.0126 11.542C50.2499 11.542 49.6193 11.7987 49.1206 12.312C48.6219 12.8253 48.3726 13.4633 48.3726 14.226C48.3726 14.9887 48.6219 15.634 49.1206 16.162C49.6193 16.6753 50.2499 16.932 51.0126 16.932C51.7753 16.932 52.4059 16.6753 52.9046 16.162C53.4033 15.634 53.6526 14.9887 53.6526 14.226C53.6526 13.4633 53.4033 12.8253 52.9046 12.312Z" fill="#3174F1"/>
<path d="M22.1988 10.508C23.1668 9.61333 24.4501 9.166 26.0488 9.166C27.6474 9.166 28.9308 9.61333 29.8988 10.508C30.9694 11.476 31.5048 12.7227 31.5048 14.248C31.5048 15.7587 30.9694 16.998 29.8988 17.966C28.9308 18.8607 27.6474 19.308 26.0488 19.308C24.4501 19.308 23.1668 18.8607 22.1988 17.966C21.1281 16.998 20.5928 15.7587 20.5928 14.248C20.5928 12.7227 21.1281 11.476 22.1988 10.508ZM24.1348 16.14C24.6481 16.668 25.2861 16.932 26.0488 16.932C26.8114 16.932 27.4494 16.668 27.9628 16.14C28.4761 15.612 28.7328 14.9813 28.7328 14.248C28.7328 13.5 28.4761 12.862 27.9628 12.334C27.4494 11.806 26.8114 11.542 26.0488 11.542C25.2861 11.542 24.6481 11.806 24.1348 12.334C23.6214 12.862 23.3648 13.5 23.3648 14.248C23.3648 14.9813 23.6214 15.612 24.1348 16.14ZM70.7167 15.942L73.1807 16.338C73.078 16.602 72.9387 16.866 72.7627 17.13C72.6014 17.3793 72.3447 17.6947 71.9927 18.076C71.6407 18.4427 71.164 18.7433 70.5627 18.978C69.9614 19.198 69.272 19.308 68.4947 19.308C66.9987 19.308 65.7814 18.8607 64.8427 17.966C63.8454 17.0273 63.3467 15.788 63.3467 14.248C63.3467 12.7227 63.8307 11.476 64.7987 10.508C65.708 9.61333 66.9034 9.166 68.3847 9.166C69.998 9.166 71.2374 9.68667 72.1027 10.728C72.8654 11.6373 73.2467 12.884 73.2467 14.468V14.688H66.1187C66.1187 15.3333 66.2727 15.8687 66.5807 16.294C67.0207 16.8953 67.6587 17.196 68.4947 17.196C69.492 17.196 70.2327 16.778 70.7167 15.942ZM66.2067 12.972H70.7167C70.614 12.356 70.3427 11.8867 69.9027 11.564C69.4774 11.2267 68.9934 11.058 68.4507 11.058C67.9227 11.058 67.4387 11.2267 66.9987 11.564C66.5734 11.9013 66.3094 12.3707 66.2067 12.972Z" fill="#E63125"/>
<path d="M34.7027 10.508C35.6707 9.61333 36.954 9.166 38.5527 9.166C40.1514 9.166 41.4347 9.61333 42.4027 10.508C43.4734 11.476 44.0087 12.7227 44.0087 14.248C44.0087 15.7587 43.4734 16.998 42.4027 17.966C41.4347 18.8607 40.1514 19.308 38.5527 19.308C36.954 19.308 35.6707 18.8607 34.7027 17.966C33.632 16.998 33.0967 15.7587 33.0967 14.248C33.0967 12.7227 33.632 11.476 34.7027 10.508ZM36.6387 16.14C37.152 16.668 37.79 16.932 38.5527 16.932C39.3154 16.932 39.9534 16.668 40.4667 16.14C40.98 15.612 41.2367 14.9813 41.2367 14.248C41.2367 13.5 40.98 12.862 40.4667 12.334C39.9534 11.806 39.3154 11.542 38.5527 11.542C37.79 11.542 37.152 11.806 36.6387 12.334C36.1254 12.862 35.8687 13.5 35.8687 14.248C35.8687 14.9813 36.1254 15.612 36.6387 16.14Z" fill="#F6AD01"/>
<path d="M58.5885 2.522H61.2725V19H58.5885V2.522Z" fill="#249A41"/>
<defs>
<clipPath id="clip0_973_72">
<rect width="50" height="10" fill="white" transform="translate(13 24)"/>
</clipPath>
</defs>
</svg>
