<svg width="43" height="43" viewBox="0 0 43 43" fill="none" xmlns="http://www.w3.org/2000/svg">
<path d="M43 0H0V43H43V0Z" fill="#E62117"/>
<path fill-rule="evenodd" clip-rule="evenodd" d="M24.0032 29H17.0032C15.8982 28.954 14.8572 28.472 14.1072 27.66C13.3582 26.847 12.9602 25.771 13.0032 24.666V20.333C12.9612 19.229 13.3582 18.152 14.1082 17.34C14.8582 16.528 15.8992 16.046 17.0032 16H24.0032C25.1072 16.046 26.1482 16.528 26.8982 17.341C27.6482 18.153 28.0452 19.229 28.0032 20.334V24.667C28.0452 25.772 27.6482 26.848 26.8982 27.66C26.1482 28.472 25.1072 28.954 24.0032 29ZM26.0032 20.255C26.0342 19.693 25.8402 19.141 25.4662 18.72C25.0912 18.3 24.5652 18.044 24.0032 18.01H17.0032C16.4412 18.044 15.9152 18.3 15.5402 18.72C15.1652 19.141 14.9722 19.693 15.0032 20.255V24.744C14.9722 25.306 15.1652 25.858 15.5402 26.279C15.9152 26.699 16.4412 26.955 17.0032 26.989H24.0032C24.5652 26.955 25.0912 26.699 25.4662 26.279C25.8402 25.858 26.0342 25.306 26.0032 24.744V20.255ZM19.0032 19.987L23.0032 22.5L19.0032 25.011V19.987Z" fill="white"/>
</svg>
