<svg width="43" height="43" viewBox="0 0 43 43" fill="none" xmlns="http://www.w3.org/2000/svg">
<path d="M43 0H0V43H43V0Z" fill="#3B5998"/>
<path fill-rule="evenodd" clip-rule="evenodd" d="M31.9881 9.98031L32.3001 8.00031C31.5011 7.94631 30.6981 7.95232 29.9001 8.01832C29.3431 8.09232 28.8341 8.37232 28.4731 8.80232C28.1321 9.26332 27.9631 9.82931 27.9961 10.4023V12.9943L25.9961 12.9793V14.9863L27.9961 14.9933V20.9933L30.0091 20.9883V14.9883H32.3831L32.6931 12.9813H30.0091C30.0091 12.9813 30.0091 10.6963 30.0091 10.4723C30.0181 10.3953 30.0431 10.3203 30.0821 10.2523C30.1211 10.1853 30.1741 10.1273 30.2371 10.0813C30.3001 10.0353 30.3721 10.0033 30.4491 9.98631C30.5251 9.97031 30.6041 9.96932 30.6801 9.98532C31.1221 9.97932 31.9881 9.98031 31.9881 9.98031Z" fill="#3B5998"/>
<path d="M26 15H17C15.343 15 14 16.343 14 18V27C14 28.657 15.343 30 17 30H26C27.657 30 29 28.657 29 27V18C29 16.343 27.657 15 26 15Z" fill="white"/>
<path fill-rule="evenodd" clip-rule="evenodd" d="M23.992 19.0164L24.304 17.0364C23.505 16.9824 22.702 16.9885 21.904 17.0545C21.347 17.1285 20.838 17.4084 20.477 17.8384C20.136 18.2994 19.967 18.8654 20 19.4384V22.0305L18 22.0155V24.0224L20 24.0294V30.0294L22.013 30.0245V24.0245H24.387L24.697 22.0175H22.013C22.013 22.0175 22.013 19.7324 22.013 19.5084C22.022 19.4314 22.047 19.3564 22.086 19.2884C22.125 19.2214 22.178 19.1634 22.241 19.1174C22.304 19.0714 22.376 19.0394 22.453 19.0224C22.529 19.0064 22.608 19.0054 22.684 19.0214C23.126 19.0154 23.992 19.0164 23.992 19.0164Z" fill="#3B5998"/>
</svg>
