<svg width="40" height="43" viewBox="0 0 40 43" fill="none" xmlns="http://www.w3.org/2000/svg">
<path d="M40 0H0V43H40V0Z" fill="#65BC54"/>
<path fill-rule="evenodd" clip-rule="evenodd" d="M19.5 29.9997C18.086 29.9957 16.702 29.5907 15.51 28.8297L12 29.9997L13.17 26.4887C12.289 25.0817 11.9 23.4217 12.064 21.7707C12.229 20.1187 12.939 18.5677 14.081 17.3637C15.223 16.1587 16.733 15.3677 18.374 15.1147C20.015 14.8617 21.693 15.1617 23.145 15.9677C24.596 16.7727 25.739 18.0377 26.393 19.5627C27.048 21.0887 27.176 22.7887 26.759 24.3957C26.342 26.0027 25.402 27.4247 24.088 28.4397C22.774 29.4537 21.16 30.0027 19.5 29.9997ZM21.13 23.6357C21.629 23.7987 22.136 23.9337 22.65 24.0407C22.704 24.0487 22.756 24.0677 22.802 24.0957C22.849 24.1247 22.89 24.1617 22.921 24.2067C22.953 24.2507 22.975 24.3007 22.987 24.3547C22.999 24.4077 23 24.4627 22.99 24.5167V24.7997C22.995 24.9027 22.976 25.0047 22.934 25.0987C22.893 25.1927 22.829 25.2767 22.75 25.3417C22.504 25.5917 22.212 25.7927 21.89 25.9337C21.415 25.9897 20.934 25.9487 20.477 25.8107C20.019 25.6727 19.595 25.4427 19.23 25.1337C18.76 24.8187 18.321 24.4587 17.92 24.0587C17.521 23.6557 17.159 23.2167 16.84 22.7477C16.534 22.3827 16.305 21.9587 16.169 21.5017C16.034 21.0457 15.993 20.5657 16.05 20.0927C16.191 19.7727 16.391 19.4827 16.64 19.2367C16.703 19.1557 16.786 19.0917 16.88 19.0507C16.974 19.0097 17.078 18.9917 17.18 19.0007H17.47C17.579 18.9857 17.69 19.0147 17.778 19.0807C17.867 19.1477 17.925 19.2467 17.94 19.3557C18.09 19.9477 18.2 20.3757 18.35 20.8557C18.41 21.0557 18.34 21.1037 18.18 21.2237C18.08 21.3007 18 21.3567 17.92 21.4167C17.874 21.4367 17.832 21.4667 17.798 21.5037C17.764 21.5407 17.738 21.5847 17.722 21.6327C17.706 21.6807 17.7 21.7317 17.705 21.7817C17.71 21.8317 17.725 21.8807 17.75 21.9247C18.005 22.4157 18.332 22.8667 18.72 23.2627C19.115 23.6507 19.567 23.9767 20.06 24.2297C20.104 24.2537 20.153 24.2697 20.203 24.2737C20.253 24.2787 20.304 24.2727 20.352 24.2567C20.4 24.2407 20.444 24.2157 20.482 24.1817C20.519 24.1477 20.549 24.1067 20.57 24.0607C20.63 23.9797 20.68 23.9047 20.76 23.7997C20.773 23.7637 20.792 23.7307 20.818 23.7027C20.843 23.6747 20.874 23.6517 20.909 23.6357C20.943 23.6197 20.981 23.6107 21.019 23.6097C21.057 23.6087 21.095 23.6147 21.13 23.6287V23.6357Z" fill="white"/>
</svg>
