<svg width="60" height="60" viewBox="0 0 60 60" fill="none" xmlns="http://www.w3.org/2000/svg">
<circle cx="30" cy="30" r="30" fill="#E2E8EF"/>
<g clip-path="url(#clip0_167_69)">
<path d="M29.9827 35.3908C29.6591 35.3908 29.3967 35.653 29.3967 35.9767C29.3967 36.3003 29.6591 36.5627 29.9827 36.5627C30.3063 36.5627 30.5686 36.3003 30.5686 35.9767C30.5686 35.653 30.3063 35.3908 29.9827 35.3908ZM30.586 32.4489C30.9683 32.3427 31.32 32.1344 31.5968 31.8428C32.0169 31.4005 32.2307 30.8208 32.1991 30.2105C32.1395 29.0644 31.1935 28.1484 30.0452 28.1254C28.9316 28.1015 27.9731 28.9177 27.8191 30.0204C27.805 30.1214 27.7979 30.2245 27.7979 30.327C27.7979 30.6506 28.0602 30.9129 28.3839 30.9129C28.7075 30.9129 28.9698 30.6506 28.9698 30.327C28.9698 30.2787 28.9732 30.2301 28.9798 30.1825C29.0508 29.6741 29.4875 29.2968 30.0004 29.2968C30.0074 29.2968 30.0145 29.2969 30.0216 29.297C30.5586 29.3078 31.001 29.7358 31.0288 30.2713C31.0436 30.5574 30.9436 30.829 30.7471 31.0359C30.5504 31.243 30.2852 31.3571 30.0001 31.3571C29.6764 31.3571 29.4141 31.6194 29.4141 31.943V33.633C29.4141 33.9566 29.6764 34.2189 30.0001 34.2189C30.3238 34.2189 30.586 33.9566 30.586 33.633V32.4489H30.586ZM24.3748 11.1719H39.964C41.3641 11.1719 42.5031 12.3109 42.5031 13.7109V28.1563L41.5046 27.1577C41.2757 26.929 40.9047 26.929 40.6759 27.1577C40.4471 27.3866 40.4471 27.7576 40.6759 27.9864L42.6646 29.9751C42.7791 30.0895 42.929 30.1466 43.079 30.1466C43.0807 30.1466 43.0825 30.1464 43.0843 30.1464C43.2795 30.1464 43.4522 30.0545 43.5603 29.908L45.4821 27.9863C45.7111 27.7575 45.7111 27.3865 45.4822 27.1577C45.2534 26.929 44.8824 26.9288 44.6536 27.1577L43.6752 28.136V13.7109C43.6752 11.6648 42.0104 10 39.9642 10H24.3748C24.0511 10 23.7889 10.2623 23.7889 10.5859C23.7889 10.9096 24.0511 11.1719 24.3748 11.1719ZM22.6574 26.7387C23.5416 26.25 24.0068 25.2313 23.7886 24.2613C23.3135 22.1482 21.8805 20.3793 19.9541 19.4574C20.5744 18.7484 20.9515 17.8216 20.9515 16.8077V12.6052C20.9516 11.1687 19.7829 10 18.3463 10H15.4959C14.0592 10 12.8905 11.1687 12.8905 12.6052V15.1817V15.1852V16.8078C12.8905 17.8212 13.2673 18.7477 13.8871 19.4566C13.3921 19.6931 12.9257 19.988 12.4932 20.3385C11.2646 21.3333 10.3983 22.7268 10.0534 24.2622C9.83521 25.232 10.3 26.2506 11.1838 26.7395C12.9307 27.7053 14.9144 28.2158 16.9207 28.2158C18.9275 28.2156 20.9113 27.7048 22.6574 26.7387ZM14.0625 12.6052C14.0625 11.8148 14.7054 11.1719 15.4959 11.1719H18.3463C19.1366 11.1719 19.7797 11.8148 19.7797 12.6052V14.0794C18.7076 13.4153 17.4172 13.2593 16.2121 13.6563L14.0625 14.3645V12.6052ZM14.0625 15.5983L16.5788 14.7693C17.4901 14.4691 18.469 14.6043 19.2648 15.1398L19.7797 15.4863V16.8077C19.7797 18.3839 18.4973 19.6662 16.9211 19.6662C15.3448 19.6662 14.0625 18.3839 14.0625 16.8077V15.5983ZM11.1968 24.5191C11.4841 23.2398 12.2064 22.0786 13.2308 21.2491C13.7386 20.8375 14.3021 20.5183 14.9086 20.2975C15.5012 20.6406 16.1883 20.838 16.921 20.838C17.6535 20.838 18.3403 20.6407 18.9329 20.2977C20.7967 20.9782 22.2078 22.5734 22.6452 24.5184C22.7498 24.9834 22.5217 25.4747 22.0902 25.7131C20.5171 26.5837 18.7295 27.0438 16.9207 27.0438C15.1123 27.0438 13.3247 26.5838 11.751 25.7139C11.32 25.4755 11.0921 24.9843 11.1968 24.5191ZM49.9466 46.0465C49.4713 43.9324 48.0385 42.1634 46.1122 41.242C46.7324 40.5329 47.1095 39.6061 47.1095 38.5923V34.3898C47.1095 32.9533 45.9408 31.7846 44.5042 31.7846H41.6538C40.2172 31.7846 39.0485 32.9533 39.0485 34.3898V36.9663V36.9698V38.5924C39.0485 39.6057 39.4252 40.5321 40.0449 41.241C39.5498 41.4776 39.0837 41.7725 38.6518 42.1229C37.4227 43.1181 36.5559 44.5117 36.2114 46.0466C35.9932 47.0167 36.4584 48.0355 37.3425 48.5238C38.015 48.8959 38.7265 49.203 39.457 49.437C39.7574 49.5331 40.0938 49.3693 40.1937 49.0577C40.2924 48.7495 40.1226 48.4196 39.8144 48.3209C39.1564 48.1102 38.5156 47.8335 37.9095 47.4983C37.4782 47.26 37.2502 46.7688 37.3549 46.3035C37.6419 45.0248 38.3644 43.8636 39.3898 43.0334C39.8967 42.622 40.4597 42.303 41.0663 42.0821C41.6591 42.4254 42.3463 42.6229 43.0791 42.6229C43.8116 42.6229 44.4985 42.4255 45.0911 42.0825C46.9546 42.7624 48.3658 44.3577 48.8033 46.3038C48.908 46.7688 48.6801 47.26 48.2493 47.4983C46.6748 48.3682 44.8868 48.8281 43.0786 48.8281C42.8458 48.8281 42.6109 48.8205 42.3805 48.8057C42.0584 48.784 41.7789 49.0298 41.758 49.3527C41.737 49.6756 41.982 49.9542 42.3049 49.9752C42.5603 49.9916 42.8207 50 43.0785 50C45.0845 50 47.0684 49.4895 48.8161 48.5237C49.6999 48.0348 50.1648 47.0162 49.9466 46.0465ZM45.9375 38.5923C45.9375 40.1684 44.6552 41.4508 43.079 41.4508C41.5028 41.4508 40.2204 40.1684 40.2204 38.5923V37.3828L42.7367 36.5538C43.6477 36.2539 44.6269 36.3888 45.4227 36.9245L45.9375 37.2709V38.5923ZM45.9375 35.8641C44.8656 35.2001 43.5751 35.0438 42.3701 35.4409L40.2204 36.149V34.3897C40.2204 33.5994 40.8634 32.9563 41.6538 32.9563H44.5042C45.2946 32.9563 45.9375 33.5993 45.9375 34.3897V35.8641ZM30 25.7031C29.6418 25.7031 29.282 25.732 28.9306 25.7889C28.6111 25.8406 28.3941 26.1415 28.4458 26.4609C28.4975 26.7804 28.7979 26.9982 29.1179 26.9457C29.4076 26.8988 29.7044 26.8751 30 26.8751C33.0156 26.8751 35.4689 29.3284 35.4689 32.3438C35.4689 35.3593 33.0156 37.8126 30 37.8126C26.9844 37.8126 24.5311 35.3593 24.5311 32.3438C24.5311 30.5864 25.3847 28.9244 26.8145 27.898C27.0773 27.7093 27.1375 27.3432 26.9488 27.0803C26.76 26.8173 26.3939 26.7573 26.131 26.946C24.3954 28.192 23.3592 30.2098 23.3592 32.3438C23.3592 36.0054 26.3382 38.9844 30 38.9844C33.6618 38.9844 36.6408 36.0054 36.6408 32.3438C36.6408 28.6821 33.6618 25.7031 30 25.7031ZM33.4376 48.8281H20.036C18.6359 48.8281 17.4969 47.6891 17.4969 46.2891V32.2623L18.4854 33.2509C18.5998 33.3652 18.7498 33.4224 18.8997 33.4224C19.0496 33.4224 19.1997 33.3652 19.3141 33.2508C19.5429 33.022 19.5429 32.6509 19.314 32.4222L17.3257 30.434C17.1182 30.2229 16.7228 30.1921 16.4962 30.434L14.5079 32.4222C14.2789 32.651 14.2789 33.022 14.5078 33.2508C14.7366 33.4797 15.1076 33.4796 15.3364 33.2509L16.3249 32.2623V46.2891C16.3249 48.3352 17.9898 50 20.036 50H33.4376C33.7613 50 34.0236 49.7377 34.0236 49.4141C34.0236 49.0904 33.7613 48.8281 33.4376 48.8281Z" fill="black"/>
</g>
<defs>
<clipPath id="clip0_167_69">
<rect width="40" height="40" fill="white" transform="translate(10 10)"/>
</clipPath>
</defs>
</svg>
