<svg width="43" height="43" viewBox="0 0 43 43" fill="none" xmlns="http://www.w3.org/2000/svg">
<path fill-rule="evenodd" clip-rule="evenodd" d="M0 43V0H43V43H0Z" fill="url(#paint0_linear_175_9)"/>
<path fill-rule="evenodd" clip-rule="evenodd" d="M28 19C26.915 18.996 25.861 18.637 25 17.977V23.5C25 24.39 24.736 25.26 24.242 26C23.747 26.74 23.044 27.317 22.222 27.657C21.4 27.998 20.495 28.087 19.622 27.914C18.749 27.74 17.947 27.311 17.318 26.682C16.689 26.053 16.26 25.251 16.086 24.378C15.913 23.505 16.0021 22.6 16.3431 21.778C16.6831 20.956 17.26 20.253 18 19.758C18.74 19.264 19.61 19 20.5 19C20.667 19.008 20.834 19.024 21 19.05V21.05C20.835 21.017 20.668 21 20.5 21C20.006 21 19.5221 21.147 19.1111 21.421C18.7001 21.696 18.38 22.086 18.19 22.543C18.001 23 17.952 23.503 18.048 23.988C18.145 24.473 18.383 24.918 18.732 25.268C19.082 25.617 19.5271 25.856 20.0121 25.952C20.4971 26.048 21 25.999 21.457 25.81C21.914 25.62 22.304 25.3 22.579 24.889C22.853 24.478 23 23.994 23 23.5V14V13H25V14C25 14.796 25.3161 15.559 25.8791 16.121C26.4411 16.684 27.204 17 28 17C28.341 16.997 28.68 16.935 29 16.816V18.9C28.671 18.967 28.336 19 28 19Z" fill="white"/>
<defs>
<linearGradient id="paint0_linear_175_9" x1="0" y1="43" x2="43" y2="0" gradientUnits="userSpaceOnUse">
<stop stop-color="#FC0E5C"/>
<stop offset="1" stop-color="#2AF5EE"/>
</linearGradient>
</defs>
</svg>
