<svg width="43" height="43" viewBox="0 0 43 43" fill="none" xmlns="http://www.w3.org/2000/svg">
<path d="M43 0H0V43H43V0Z" fill="url(#paint0_linear_173_8)"/>
<path fill-rule="evenodd" clip-rule="evenodd" d="M18 15H25C26.061 15 27.078 15.421 27.828 16.172C28.579 16.922 29 17.939 29 19V26C29 27.061 28.579 28.078 27.828 28.828C27.078 29.579 26.061 30 25 30H18C16.939 30 15.922 29.579 15.172 28.828C14.421 28.078 14 27.061 14 26V19C14 17.939 14.421 16.922 15.172 16.172C15.922 15.421 16.939 15 18 15ZM18 17H25C25.53 17 26.039 17.211 26.414 17.586C26.789 17.961 27 18.47 27 19V26C27 26.53 26.789 27.039 26.414 27.414C26.039 27.789 25.53 28 25 28H18C17.47 28 16.961 27.789 16.586 27.414C16.211 27.039 16 26.53 16 26V19C16 18.47 16.211 17.961 16.586 17.586C16.961 17.211 17.47 17 18 17ZM21.5 19C22.192 19 22.869 19.205 23.445 19.59C24.02 19.974 24.469 20.521 24.734 21.161C24.998 21.8 25.068 22.504 24.933 23.183C24.798 23.862 24.464 24.485 23.975 24.975C23.485 25.464 22.862 25.798 22.183 25.933C21.504 26.068 20.8 25.998 20.161 25.734C19.521 25.469 18.974 25.02 18.59 24.444C18.205 23.869 18 23.192 18 22.5C18 21.572 18.369 20.681 19.025 20.025C19.682 19.369 20.572 19 21.5 19ZM21.5 21C21.797 21 22.087 21.088 22.333 21.253C22.58 21.418 22.772 21.652 22.886 21.926C22.999 22.2 23.029 22.502 22.971 22.793C22.913 23.084 22.77 23.351 22.561 23.561C22.351 23.77 22.084 23.913 21.793 23.971C21.502 24.029 21.2 23.999 20.926 23.886C20.652 23.772 20.418 23.58 20.253 23.333C20.088 23.087 20 22.797 20 22.5C20 22.102 20.158 21.721 20.439 21.439C20.721 21.158 21.102 21 21.5 21Z" fill="white"/>
<defs>
<linearGradient id="paint0_linear_173_8" x1="32.252" y1="-1.71714e-07" x2="10.748" y2="43" gradientUnits="userSpaceOnUse">
<stop stop-color="#9E42B4"/>
<stop offset="0.067" stop-color="#9E42B4"/>
<stop offset="0.473" stop-color="#E5566F"/>
<stop offset="1" stop-color="#FDC76D"/>
</linearGradient>
</defs>
</svg>
