<svg width="43" height="43" viewBox="0 0 43 43" fill="none" xmlns="http://www.w3.org/2000/svg">
<path d="M43 0H0V43H43V0Z" fill="#7B519D"/>
<path fill-rule="evenodd" clip-rule="evenodd" d="M18.5907 16.8354C18.943 17.4459 19.7303 18.9166 19.8425 19.184C19.9404 19.3619 19.9663 19.5698 19.9155 19.7664C19.8658 19.963 19.7427 20.1335 19.5714 20.2425C19.2398 20.4309 18.9282 20.6529 18.6417 20.9046C18.4939 21.1674 18.3338 22.1961 19.8282 23.7735C21.3227 25.3509 22.5531 25.6971 22.883 25.3636C23.2129 25.0301 23.4139 24.6568 23.6197 24.4628C23.7703 24.3091 23.9731 24.216 24.1885 24.2043C24.403 24.1916 24.615 24.2608 24.7821 24.3967C25.6157 24.8693 26.4196 25.3941 27.1872 25.9678C27.6659 26.36 28.0277 26.6457 27.8334 27.1322C27.6541 27.6182 27.3671 28.0579 26.9954 28.4182C26.693 28.7025 26.3238 28.9068 25.9226 29.0131C25.5223 29.1194 25.1009 29.1251 24.6965 29.0292C23.5464 28.7114 22.462 28.1945 21.4899 27.5017C20.4604 26.7183 19.5077 25.838 18.6456 24.8734C17.8553 24.0509 17.1349 23.1635 16.4922 22.2213C15.8657 21.1014 15.4251 19.887 15.1868 18.6265C15.1046 18.293 15.1058 17.9449 15.1905 17.6122C15.2753 17.2785 15.4414 16.9723 15.6729 16.7189C16.0848 16.3158 16.6032 16.0379 17.1669 15.9183C17.5597 15.8278 17.9996 15.8406 18.5907 16.8354ZM21.6747 17.0847L21.7064 16.0032C23.4297 16.0536 25.0619 16.7867 26.2447 18.0408C27.4275 19.295 28.0639 20.9673 28.0134 22.6906L26.9339 22.659C26.975 21.2225 26.4445 19.8284 25.4587 18.7831C24.4718 17.7378 23.1111 17.1267 21.6747 17.0847ZM25.8444 22.6261L24.7649 22.5945C24.7891 21.7328 24.4714 20.8971 23.8795 20.2706C23.2885 19.644 22.4729 19.278 21.6113 19.2518L21.643 18.1682C22.2118 18.1849 22.7712 18.3143 23.2906 18.5476C23.809 18.7799 24.2775 19.1137 24.6675 19.5273C25.0576 19.9419 25.3625 20.428 25.564 20.9601C25.7655 21.4923 25.861 22.0583 25.8443 22.6271L25.8444 22.6261Z" fill="white"/>
</svg>
