<svg width="60" height="60" viewBox="0 0 60 60" fill="none" xmlns="http://www.w3.org/2000/svg">
<circle cx="30" cy="30" r="30" fill="#E2E8EF"/>
<g clip-path="url(#clip0_167_68)">
<mask id="mask0_167_68" style="mask-type:luminance" maskUnits="userSpaceOnUse" x="10" y="10" width="40" height="40">
<path d="M50 10H10V50H50V10Z" fill="white"/>
</mask>
<g mask="url(#mask0_167_68)">
<path d="M43.3335 33.333C40.4164 33.3314 37.8375 35.2276 36.9692 38.0125C36.101 40.7972 37.1452 43.8231 39.5461 45.4797C38.4778 45.8598 37.8389 46.9546 38.0335 48.0718C38.2281 49.1889 39.1995 50.0032 40.3335 49.9997H46.3335C47.4674 50.0032 48.4389 49.1889 48.6335 48.0718C48.8281 46.9546 48.1892 45.8598 47.1208 45.4797C49.5218 43.8231 50.566 40.7972 49.6977 38.0125C48.8294 35.2276 46.2505 33.3314 43.3335 33.333ZM46.3335 46.6664C46.8857 46.6664 47.3335 47.114 47.3335 47.6664C47.3335 48.2186 46.8857 48.6664 46.3335 48.6664H40.3335C39.7812 48.6664 39.3335 48.2186 39.3335 47.6664C39.3335 47.114 39.7812 46.6664 40.3335 46.6664H46.3335ZM43.3335 45.333C40.388 45.333 38.0001 42.9452 38.0001 39.9997C38.0001 37.0542 40.388 34.6664 43.3335 34.6664C46.279 34.6664 48.6668 37.0542 48.6668 39.9997C48.6635 42.9438 46.2776 45.3297 43.3335 45.333Z" fill="black"/>
<path d="M43.3334 38H44.6668C45.035 38 45.3334 37.7015 45.3334 37.3333C45.3334 36.9652 45.035 36.6666 44.6668 36.6666H44.0002C44.0002 36.2984 43.7016 36 43.3334 36C42.9653 36 42.6668 36.2984 42.6668 36.6666V36.7893C41.7491 37.1126 41.1984 38.0505 41.3632 39.0095C41.528 39.9684 42.3605 40.6685 43.3334 40.6666C43.7016 40.6666 44.0002 40.9652 44.0002 41.3333C44.0002 41.7015 43.7016 42 43.3334 42H42.0002C41.632 42 41.3334 42.2984 41.3334 42.6666C41.3334 43.0348 41.632 43.3333 42.0002 43.3333H42.6668C42.6668 43.7015 42.9653 44 43.3334 44C43.7016 44 44.0002 43.7015 44.0002 43.3333V43.2106C44.9178 42.8874 45.4686 41.9495 45.3037 40.9905C45.1388 40.0316 44.3064 39.3315 43.3334 39.3333C42.9653 39.3333 42.6668 39.0348 42.6668 38.6666C42.6668 38.2984 42.9653 38 43.3334 38Z" fill="black"/>
<path d="M36.6668 33.3334C36.6698 30.1647 34.4421 27.4318 31.3379 26.7959C28.2338 26.1601 25.1109 27.7971 23.8678 30.7118C22.6248 33.6264 23.6052 37.0133 26.2128 38.8134C25.4558 39.0812 24.891 39.7215 24.7198 40.5061C24.5487 41.2906 24.7954 42.1079 25.3721 42.6668C24.9213 43.104 24.6669 43.7054 24.6669 44.3334C24.6669 44.9615 24.9213 45.5628 25.3721 46.0001C24.6921 46.6617 24.4812 47.6696 24.8388 48.5484C25.1965 49.4272 26.0513 50.0014 27.0002 50.0001H33.0002C33.9489 50.0014 34.8038 49.4272 35.1614 48.5484C35.5191 47.6696 35.3082 46.6617 34.6281 46.0001C35.0789 45.5628 35.3334 44.9615 35.3334 44.3334C35.3334 43.7054 35.0789 43.104 34.6281 42.6668C35.2048 42.1079 35.4516 41.2906 35.2804 40.5061C35.1092 39.7215 34.5445 39.0812 33.7875 38.8134C35.5891 37.5705 36.6654 35.5222 36.6668 33.3334ZM24.6668 33.3334C24.6668 30.3879 27.0546 28.0001 30.0002 28.0001C32.9456 28.0001 35.3334 30.3879 35.3334 33.3334C35.3334 36.279 32.9456 38.6668 30.0002 38.6668C27.056 38.6634 24.6701 36.2776 24.6668 33.3334ZM34.0002 47.6668C34.0002 48.219 33.5524 48.6668 33.0002 48.6668H27.0002C26.4478 48.6668 26.0002 48.219 26.0002 47.6668C26.0002 47.1144 26.4478 46.6668 27.0002 46.6668H33.0002C33.5524 46.6668 34.0002 47.1144 34.0002 47.6668ZM34.0002 44.3334C34.0002 44.8857 33.5524 45.3334 33.0002 45.3334H27.0002C26.4478 45.3334 26.0002 44.8857 26.0002 44.3334C26.0002 43.7812 26.4478 43.3334 27.0002 43.3334H33.0002C33.5524 43.3334 34.0002 43.7812 34.0002 44.3334ZM33.0002 40.0001C33.5524 40.0001 34.0002 40.4478 34.0002 41.0001C34.0002 41.5523 33.5524 42.0001 33.0002 42.0001H27.0002C26.4478 42.0001 26.0002 41.5523 26.0002 41.0001C26.0002 40.4478 26.4478 40.0001 27.0002 40.0001H33.0002Z" fill="black"/>
<path d="M30 35.333H28.6667C28.2985 35.333 28 35.6314 28 35.9996C28 36.3679 28.2985 36.6663 28.6667 36.6663H29.3334C29.3334 37.0345 29.6319 37.333 30 37.333C30.3682 37.333 30.6667 37.0345 30.6667 36.6663V36.5436C31.5844 36.2204 32.1352 35.2825 31.9703 34.3236C31.8054 33.3646 30.973 32.6645 30 32.6663C29.6319 32.6663 29.3334 32.3679 29.3334 31.9996C29.3334 31.6314 29.6319 31.333 30 31.333H31.3334C31.7016 31.333 32 31.0345 32 30.6663C32 30.2982 31.7016 29.9996 31.3334 29.9996H30.6667C30.6667 29.6314 30.3682 29.333 30 29.333C29.6319 29.333 29.3334 29.6314 29.3334 29.9996V30.1223C28.4157 30.4456 27.8649 31.3836 28.0298 32.3425C28.1946 33.3014 29.0271 34.0015 30 33.9997C30.3682 33.9997 30.6667 34.2982 30.6667 34.6663C30.6667 35.0345 30.3682 35.333 30 35.333Z" fill="black"/>
<path d="M16.6667 20C13.7497 19.9984 11.1708 21.8946 10.3025 24.6795C9.43421 27.4642 10.4784 30.4901 12.8794 32.1466C12.1223 32.4145 11.5576 33.0548 11.3865 33.8393C11.2153 34.6239 11.462 35.4412 12.0387 36C11.5879 36.4373 11.3335 37.0386 11.3335 37.6666C11.3335 38.2948 11.5879 38.896 12.0387 39.3334C11.5879 39.7706 11.3335 40.372 11.3335 41C11.3335 41.628 11.5879 42.2294 12.0387 42.6666C11.5879 43.104 11.3335 43.7052 11.3335 44.3334C11.3335 44.9614 11.5879 45.5627 12.0387 46C11.3587 46.6616 11.1478 47.6695 11.5054 48.5484C11.8631 49.4272 12.7179 50.0013 13.6667 50H19.6667C20.6155 50.0013 21.4704 49.4272 21.828 48.5484C22.1857 47.6695 21.9748 46.6616 21.2948 46C21.7455 45.5627 22 44.9614 22 44.3334C22 43.7052 21.7455 43.104 21.2948 42.6666C21.7455 42.2294 22 41.628 22 41C22 40.372 21.7455 39.7706 21.2948 39.3334C21.7455 38.896 22 38.2948 22 37.6666C22 37.0386 21.7455 36.4373 21.2948 36C21.8714 35.4412 22.1182 34.6239 21.947 33.8393C21.7759 33.0548 21.2111 32.4145 20.4541 32.1466C22.8551 30.4901 23.8992 27.4642 23.0309 24.6795C22.1627 21.8946 19.5837 19.9984 16.6667 20ZM20.6667 47.6666C20.6667 48.219 20.219 48.6666 19.6667 48.6666H13.6667C13.1144 48.6666 12.6667 48.219 12.6667 47.6666C12.6667 47.1144 13.1144 46.6666 13.6667 46.6666H19.6667C20.219 46.6666 20.6667 47.1144 20.6667 47.6666ZM20.6667 44.3334C20.6667 44.8856 20.219 45.3334 19.6667 45.3334H13.6667C13.1144 45.3334 12.6667 44.8856 12.6667 44.3334C12.6667 43.781 13.1144 43.3334 13.6667 43.3334H19.6667C20.219 43.3334 20.6667 43.781 20.6667 44.3334ZM20.6667 41C20.6667 41.5523 20.219 42 19.6667 42H13.6667C13.1144 42 12.6667 41.5523 12.6667 41C12.6667 40.4477 13.1144 40 13.6667 40H19.6667C20.219 40 20.6667 40.4477 20.6667 41ZM20.6667 37.6666C20.6667 38.219 20.219 38.6666 19.6667 38.6666H13.6667C13.1144 38.6666 12.6667 38.219 12.6667 37.6666C12.6667 37.1144 13.1144 36.6666 13.6667 36.6666H19.6667C20.219 36.6666 20.6667 37.1144 20.6667 37.6666ZM19.6667 33.3334C20.219 33.3334 20.6667 33.781 20.6667 34.3334C20.6667 34.8856 20.219 35.3334 19.6667 35.3334H13.6667C13.1144 35.3334 12.6667 34.8856 12.6667 34.3334C12.6667 33.781 13.1144 33.3334 13.6667 33.3334H19.6667ZM16.6667 32C13.7212 32 11.3334 29.6122 11.3334 26.6666C11.3334 23.7212 13.7212 21.3334 16.6667 21.3334C19.6123 21.3334 22.0001 23.7212 22.0001 26.6666C21.9968 29.6108 19.6109 31.9967 16.6667 32Z" fill="black"/>
<path d="M16.6667 24.6665H18.0001C18.3683 24.6665 18.6667 24.368 18.6667 23.9998C18.6667 23.6317 18.3683 23.3331 18.0001 23.3331H17.3334C17.3334 22.9649 17.0349 22.6665 16.6667 22.6665C16.2986 22.6665 16.0001 22.9649 16.0001 23.3331V23.4558C15.0824 23.7791 14.5316 24.7171 14.6965 25.676C14.8614 26.6349 15.6938 27.335 16.6667 27.3331C17.0349 27.3331 17.3334 27.6317 17.3334 27.9998C17.3334 28.368 17.0349 28.6665 16.6667 28.6665H15.3334C14.9652 28.6665 14.6667 28.9649 14.6667 29.3331C14.6667 29.7013 14.9652 29.9998 15.3334 29.9998H16.0001C16.0001 30.368 16.2986 30.6665 16.6667 30.6665C17.0349 30.6665 17.3334 30.368 17.3334 29.9998V29.8771C18.2511 29.5539 18.8019 28.616 18.637 27.6571C18.4721 26.6981 17.6397 25.998 16.6667 25.9998C16.2986 25.9998 16.0001 25.7013 16.0001 25.3331C16.0001 24.9649 16.2986 24.6665 16.6667 24.6665Z" fill="black"/>
<path d="M49.3334 27.9999C48.9652 27.9999 48.6666 28.2983 48.6666 28.6665V29.0572L46.2887 26.6792C46.5338 26.2728 46.6644 25.8078 46.6666 25.3332C46.6684 23.992 45.6717 22.8592 44.3413 22.6899C43.0109 22.5205 41.7623 23.3677 41.428 24.6665H35.8866C35.7078 24.6664 35.5366 24.5943 35.4113 24.4665L32.2887 21.3439C32.5334 20.9381 32.664 20.4737 32.6666 19.9999C32.6666 18.5271 31.4727 17.3332 30 17.3332C29.5255 17.3355 29.0604 17.4661 28.654 17.7112L23.5334 12.5885C23.158 12.21 22.6464 11.998 22.1134 11.9999H19.2387C18.9393 10.8237 17.8803 10.0005 16.6667 10.0005C15.453 10.0005 14.394 10.8237 14.0947 11.9999H10.6667C10.2985 11.9999 10 12.2983 10 12.6665C10 13.0347 10.2985 13.3332 10.6667 13.3332H14.0947C14.394 14.5093 15.453 15.3326 16.6667 15.3326C17.8803 15.3326 18.9393 14.5093 19.2387 13.3332H22.1134C22.2922 13.3334 22.4634 13.4055 22.5887 13.5332L27.7113 18.6559C27.4666 19.0617 27.336 19.526 27.3334 19.9999C27.3334 21.4726 28.5273 22.6665 30 22.6665C30.4745 22.6642 30.9396 22.5336 31.346 22.2885L34.4666 25.4112C34.842 25.7897 35.3536 26.0018 35.8866 25.9999H41.428C41.7311 27.1736 42.7877 27.9953 44 27.9999C44.4745 27.9975 44.9396 27.8669 45.346 27.6218L47.724 29.9999H47.3334C46.9652 29.9999 46.6666 30.2983 46.6666 30.6665C46.6666 31.0347 46.9652 31.3332 47.3334 31.3332H49.3334C49.7016 31.3332 50 31.0347 50 30.6665V28.6665C50 28.2983 49.7016 27.9999 49.3334 27.9999ZM16.6667 13.9999C15.9303 13.9999 15.3333 13.4029 15.3333 12.6665C15.3333 11.9302 15.9303 11.3332 16.6667 11.3332C17.403 11.3332 18 11.9302 18 12.6665C18 13.0202 17.8595 13.3593 17.6095 13.6093C17.3594 13.8594 17.0203 13.9999 16.6667 13.9999ZM28.6666 19.9999C28.6665 19.6468 28.8068 19.3081 29.0566 19.0585C29.5816 18.5659 30.4028 18.5789 30.9119 19.088C31.4209 19.5971 31.434 20.4182 30.9413 20.9432C30.5598 21.3236 29.9869 21.4369 29.4892 21.2305C28.9916 21.0242 28.667 20.5386 28.6666 19.9999ZM42.6666 25.3332C42.6663 24.7297 43.0713 24.2011 43.6541 24.0446C44.2369 23.888 44.8523 24.1424 45.1543 24.6649C45.4563 25.1874 45.3698 25.8475 44.9434 26.2746C44.5623 26.656 43.9888 26.7704 43.4905 26.5644C42.9922 26.3584 42.667 25.8725 42.6666 25.3332Z" fill="black"/>
</g>
</g>
<defs>
<clipPath id="clip0_167_68">
<rect width="40" height="40" fill="white" transform="translate(10 10)"/>
</clipPath>
</defs>
</svg>
