<svg width="60" height="60" viewBox="0 0 60 60" fill="none" xmlns="http://www.w3.org/2000/svg">
<circle cx="30" cy="30" r="30" fill="#E2E8EF"/>
<path d="M29.9179 19.175C31.1582 19.175 32.3468 18.5499 33.2648 17.4154C34.1031 16.3793 34.5838 15.0726 34.5838 13.829C34.5838 11.3238 32.5782 9.43457 29.9179 9.43457C27.2576 9.43457 25.252 11.3213 25.252 13.829C25.252 15.0726 25.7327 16.3793 26.571 17.4154C27.4889 18.5507 28.6776 19.175 29.9179 19.175ZM29.9179 10.7881C31.8374 10.7881 33.2303 12.067 33.2303 13.829C33.2303 16.0438 31.4182 17.8214 29.9179 17.8214C28.0829 17.8214 26.6055 15.6369 26.6055 13.829C26.6055 12.0702 27.9984 10.7881 29.9179 10.7881Z" fill="black"/>
<path d="M24.3964 25.6705L23.9214 32.4455C23.9152 32.5341 23.9265 32.6232 23.9546 32.7075C23.9828 32.7918 24.0272 32.8697 24.0855 32.9368C24.1438 33.0039 24.2147 33.0589 24.2942 33.0986C24.3737 33.1383 24.4603 33.1619 24.5489 33.1682H24.5965C24.7677 33.168 24.9325 33.103 25.0578 32.9863C25.183 32.8696 25.2594 32.7098 25.2716 32.539L25.7466 25.7698C25.7529 25.6812 25.7416 25.5921 25.7135 25.5078C25.6853 25.4235 25.6408 25.3456 25.5825 25.2785C25.5243 25.2114 25.4533 25.1564 25.3738 25.1167C25.2943 25.077 25.2077 25.0534 25.1191 25.0471C25.0305 25.0408 24.9414 25.0522 24.8571 25.0803C24.7728 25.1084 24.6949 25.1529 24.6278 25.2112C24.5607 25.2695 24.5057 25.3404 24.466 25.4199C24.4263 25.4994 24.4027 25.586 24.3964 25.6746V25.6705Z" fill="black"/>
<path d="M39.0965 33.1671C39.28 33.1509 39.4498 33.0626 39.5683 32.9214C39.6868 32.7802 39.7446 32.5978 39.7289 32.4141C39.7289 32.4141 39.0136 27.2847 38.9086 25.5637C38.7142 22.4736 36.8266 19.9946 33.8776 19.5434C32.8407 19.3843 30.9573 19.2645 29.9729 19.2637C28.6292 19.287 27.2876 19.3798 25.9534 19.5418C24.5702 19.7312 23.3035 20.4179 22.39 21.4736C21.4302 22.5818 21.0012 23.9985 20.9134 25.567C20.815 27.2896 20.1628 32.4215 20.1628 32.4215C20.1518 32.5105 20.1586 32.6007 20.1828 32.6871C20.207 32.7734 20.248 32.854 20.3037 32.9243C20.3594 32.9946 20.4284 33.0532 20.5068 33.0966C20.5852 33.14 20.6715 33.1674 20.7606 33.1772C20.8497 33.187 20.9399 33.179 21.0259 33.1536C21.1118 33.1283 21.192 33.086 21.2615 33.0295C21.331 32.9729 21.3887 32.9031 21.431 32.8241C21.4733 32.745 21.4995 32.6584 21.5081 32.5691C21.5081 32.5691 22.1701 27.3815 22.2645 25.6416C22.399 23.1757 23.8583 21.1939 26.138 20.8838C27.4103 20.7293 28.6898 20.6406 29.9713 20.618C30.8884 20.618 32.7087 20.7345 33.6717 20.8821C34.7306 21.0424 35.6986 21.5719 36.405 22.3768C37.1564 23.2397 37.4821 24.3988 37.5534 25.6457C37.6576 27.388 38.3844 32.5765 38.3844 32.5765C38.4108 32.7449 38.4976 32.8978 38.6287 33.0065C38.7598 33.1153 38.9262 33.1724 39.0965 33.1671Z" fill="black"/>
<path d="M34.6971 25.0425C34.608 25.0487 34.521 25.0724 34.4411 25.1122C34.3612 25.1522 34.29 25.2075 34.2316 25.2751C34.1732 25.3427 34.1287 25.4211 34.1007 25.5059C34.0728 25.5907 34.0619 25.6803 34.0687 25.7693L34.5445 32.5434C34.5563 32.7143 34.6325 32.8743 34.7576 32.9912C34.8828 33.1081 35.0476 33.1733 35.2188 33.1734H35.2672C35.4462 33.1606 35.6128 33.0774 35.7304 32.9419C35.8481 32.8064 35.9071 32.6297 35.8948 32.4507L35.419 25.6758C35.4132 25.5868 35.39 25.4997 35.3506 25.4198C35.3112 25.3398 35.2565 25.2683 35.1894 25.2094C35.1223 25.1506 35.0443 25.1056 34.9598 25.077C34.8754 25.0483 34.7861 25.0366 34.6971 25.0425Z" fill="black"/>
<path d="M34.236 39.2947L37.491 36.1217C37.5814 36.0335 37.6453 35.9219 37.6756 35.7993C37.7059 35.6768 37.7012 35.5481 37.6622 35.4281C37.6232 35.308 37.5514 35.2013 37.4549 35.1199C37.3585 35.0385 37.2411 34.9857 37.1161 34.9675L32.6184 34.3113L30.607 30.2384C30.5512 30.1251 30.4647 30.0297 30.3574 29.963C30.2501 29.8962 30.1263 29.8608 29.9999 29.8608C29.8736 29.8608 29.7498 29.8962 29.6425 29.963C29.5352 30.0297 29.4488 30.1251 29.3929 30.2384L27.3815 34.3137L22.8837 34.97C22.7589 34.9882 22.6415 35.0409 22.545 35.1223C22.4485 35.2038 22.3767 35.3105 22.3377 35.4306C22.2988 35.5506 22.2941 35.6792 22.3243 35.8018C22.3545 35.9243 22.4185 36.036 22.5088 36.1242L25.7638 39.2971L24.996 43.7736C24.9743 43.8984 24.9881 44.0267 25.0357 44.1441C25.0833 44.2615 25.163 44.3632 25.2656 44.4375C25.3681 44.5119 25.4895 44.556 25.6158 44.5648C25.7423 44.5736 25.8686 44.5467 25.9804 44.4873L29.9999 42.3725L34.0195 44.4873C34.1167 44.5381 34.2248 44.5649 34.3345 44.5652C34.4331 44.565 34.5303 44.5434 34.6197 44.5018C34.709 44.4601 34.7882 44.3995 34.8517 44.3242C34.9152 44.2488 34.9614 44.1604 34.9873 44.0654C35.0132 43.9703 35.018 43.8707 35.0014 43.7736L34.236 39.2947ZM29.6849 41.0091C28.8991 41.4094 26.5612 42.6498 26.5612 42.6498L27.1575 39.1708C27.1761 39.0627 27.1681 38.9517 27.1342 38.8474C27.1004 38.7431 27.0416 38.6485 26.9631 38.572L24.4357 36.111L27.9286 35.6033C28.0372 35.5874 28.1402 35.5454 28.229 35.481C28.3177 35.4166 28.3895 35.3316 28.4381 35.2333L29.9966 32.0677L31.5552 35.2333C31.6039 35.3316 31.6757 35.4166 31.7644 35.481C31.8531 35.5454 31.9562 35.5874 32.0647 35.6033L35.5575 36.111L33.0302 38.572C32.9517 38.6485 32.893 38.7431 32.8591 38.8474C32.8252 38.9517 32.8172 39.0627 32.8357 39.1708L33.4321 42.6498C33.4321 42.6498 31.0942 41.4078 30.3084 41.0091C30.2126 40.9575 30.1055 40.9304 29.9966 40.9304C29.8879 40.9304 29.7807 40.9575 29.6849 41.0091Z" fill="black"/>
<path d="M48.5907 37.0248L45.3021 36.5466L43.8313 33.5672C43.7756 33.4538 43.6892 33.3584 43.582 33.2917C43.4748 33.2249 43.351 33.1895 43.2247 33.1895C43.0983 33.1895 42.9746 33.2249 42.8673 33.2917C42.7601 33.3584 42.6737 33.4538 42.618 33.5672L41.1472 36.5466L37.8586 37.0248C37.7337 37.043 37.6164 37.0959 37.5199 37.1772C37.4233 37.2586 37.3516 37.3654 37.3126 37.4854C37.2735 37.6055 37.269 37.7342 37.2992 37.8567C37.3294 37.9793 37.3933 38.0909 37.4837 38.179L39.8626 40.4988L39.3007 43.7735C39.279 43.8984 39.2927 44.0268 39.3403 44.1442C39.388 44.2615 39.4676 44.3632 39.5702 44.4376C39.6728 44.5119 39.7941 44.556 39.9205 44.5648C40.0469 44.5736 40.1732 44.5467 40.2851 44.4872L43.2259 42.9409L46.1675 44.4872C46.2647 44.5381 46.3728 44.5649 46.4825 44.5651C46.5811 44.5651 46.6784 44.5434 46.7678 44.5017C46.8571 44.4601 46.9363 44.3995 46.9997 44.3241C47.0632 44.2488 47.1095 44.1605 47.1354 44.0654C47.1613 43.9703 47.166 43.8707 47.1495 43.7735L46.5875 40.4988L48.9664 38.179C49.0568 38.0909 49.1207 37.9793 49.151 37.8567C49.1813 37.7342 49.1766 37.6055 49.1376 37.4854C49.0986 37.3654 49.0268 37.2586 48.9304 37.1772C48.8338 37.0959 48.7165 37.043 48.5916 37.0248H48.5907ZM42.9101 41.5776C42.3941 41.8368 40.8667 42.6513 40.8667 42.6513L41.2572 40.3766C41.2757 40.2686 41.2677 40.1576 41.2339 40.0533C41.2 39.9489 41.1412 39.8544 41.0627 39.7778L39.4098 38.1667L41.6936 37.8386C41.8022 37.8229 41.9054 37.7809 41.9942 37.7163C42.083 37.6517 42.1547 37.5664 42.203 37.4678L43.2243 35.399L44.2455 37.4678C44.2942 37.5663 44.3661 37.6515 44.455 37.7161C44.5438 37.7807 44.6471 37.8227 44.7558 37.8386L47.0387 38.1667L45.3866 39.7778C45.308 39.8543 45.2492 39.9488 45.2153 40.0532C45.1814 40.1575 45.1735 40.2686 45.1922 40.3766L45.5859 42.6513C45.5859 42.6513 44.0593 41.8368 43.5434 41.5776C43.4461 41.5251 43.3373 41.4977 43.2267 41.4977C43.1162 41.4977 43.0074 41.5251 42.9101 41.5776Z" fill="black"/>
<path d="M22.1414 37.0248L18.8528 36.5466L17.3819 33.5672C17.3262 33.4538 17.2399 33.3584 17.1327 33.2917C17.0254 33.2249 16.9017 33.1895 16.7754 33.1895C16.649 33.1895 16.5253 33.2249 16.418 33.2917C16.3108 33.3584 16.2244 33.4538 16.1687 33.5672L14.6979 36.5466L11.4093 37.0248C11.2844 37.043 11.167 37.0959 11.0705 37.1772C10.974 37.2586 10.9022 37.3654 10.8632 37.4854C10.8242 37.6055 10.8196 37.7342 10.8498 37.8567C10.8801 37.9793 10.944 38.0909 11.0344 38.179L13.4133 40.4988L12.8555 43.7735C12.8338 43.8984 12.8475 44.0268 12.8951 44.1442C12.9428 44.2615 13.0224 44.3632 13.125 44.4376C13.2275 44.5119 13.3489 44.556 13.4753 44.5648C13.6017 44.5736 13.728 44.5467 13.8399 44.4872L16.7815 42.9409L19.7223 44.4872C19.8196 44.5381 19.9276 44.5649 20.0373 44.5651C20.1359 44.5651 20.2332 44.5434 20.3225 44.5017C20.4118 44.4601 20.491 44.3995 20.5545 44.3241C20.618 44.2488 20.6643 44.1605 20.6902 44.0654C20.716 43.9703 20.7208 43.8707 20.7042 43.7735L20.1423 40.4988L22.5212 38.179C22.6116 38.0909 22.6755 37.9793 22.7058 37.8567C22.736 37.7342 22.7314 37.6055 22.6924 37.4854C22.6534 37.3654 22.5816 37.2586 22.4851 37.1772C22.3886 37.0959 22.2712 37.043 22.1463 37.0248H22.1414ZM16.4649 41.5776L14.4182 42.6513L14.8078 40.3766C14.8265 40.2686 14.8186 40.1575 14.7847 40.0532C14.7508 39.9488 14.692 39.8543 14.6134 39.7778L12.9613 38.1667L15.2442 37.8386C15.353 37.8227 15.4562 37.7807 15.5451 37.7161C15.6339 37.6515 15.7058 37.5663 15.7545 37.4678L16.7758 35.399L17.797 37.4678C17.8454 37.5664 17.9171 37.6517 18.0059 37.7163C18.0946 37.7809 18.1978 37.8229 18.3064 37.8386L20.5902 38.1667L18.9372 39.7778C18.8587 39.8544 18.8001 39.9489 18.7662 40.0533C18.7323 40.1576 18.7243 40.2686 18.7428 40.3766L19.1333 42.6513L17.0899 41.5776C16.9959 41.5201 16.8877 41.4895 16.7774 41.4895C16.6671 41.4895 16.5589 41.5201 16.4649 41.5776Z" fill="black"/>
</svg>
