<svg width="43" height="43" viewBox="0 0 43 43" fill="none" xmlns="http://www.w3.org/2000/svg">
<path d="M43 0H0V43H43V0Z" fill="#2AA1DA"/>
<path fill-rule="evenodd" clip-rule="evenodd" d="M26.0043 28.1075C25.9863 28.3065 25.9082 28.4955 25.7812 28.6505C25.6552 28.8045 25.4853 28.9175 25.2933 28.9745C25.1013 29.0315 24.8973 29.0295 24.7073 28.9695C24.5163 28.9095 24.3483 28.7934 24.2243 28.6364C23.1343 27.7694 21.4343 26.5215 21.4343 26.5215C21.4343 26.5215 20.2042 28.6885 19.9842 28.9105C19.9112 28.9715 19.8273 29.0175 19.7363 29.0435C19.6443 29.0705 19.5492 29.0775 19.4552 29.0655C19.3602 29.0525 19.2703 29.0205 19.1893 28.9705C19.1083 28.9215 19.0382 28.8554 18.9842 28.7774C18.9732 28.7434 18.9593 28.7095 18.9443 28.6775L19.6342 25.2254L24.5542 20.3925L17.8443 24.2214C17.8443 24.2214 14.8142 23.3155 14.3642 23.1385C14.2482 23.0755 14.1522 22.9804 14.0882 22.8644C14.0242 22.7484 13.9932 22.6174 14.0012 22.4854C14.0082 22.3534 14.0533 22.2264 14.1293 22.1184C14.2063 22.0104 14.3123 21.9264 14.4343 21.8764C15.0743 21.5504 26.3642 17.2384 26.7442 17.1274C27.1242 17.0164 28.1242 16.7274 28.0142 17.7004C27.9042 18.6734 26.1143 27.5735 26.0043 28.1075Z" fill="white"/>
</svg>
