<svg width="40" height="40" viewBox="0 0 40 40" fill="none" xmlns="http://www.w3.org/2000/svg">
<g clip-path="url(#clip0_114_212)">
<path d="M33.5087 28.2488C34.0744 27.1263 34.375 25.8913 34.375 24.6219C34.375 22.7513 34.1575 20.8794 33.7294 19.0587L32.3119 13.035C31.9781 11.6156 30.7275 10.625 29.27 10.625H28.7337C28.1625 9.87062 27.2663 9.375 26.25 9.375H24.375V8.125H25C26.0338 8.125 26.875 7.28375 26.875 6.25V2.5C26.875 1.46625 26.0338 0.625 25 0.625H15C13.9662 0.625 13.125 1.46625 13.125 2.5V6.25C13.125 7.28375 13.9662 8.125 15 8.125H15.625V9.375H13.75C12.7331 9.375 11.8369 9.87062 11.2662 10.625H10.73C9.2725 10.625 8.02187 11.6156 7.68812 13.0338L6.27062 19.0581C5.8425 20.8788 5.625 22.7506 5.625 24.6219C5.625 25.8913 5.92562 27.1269 6.49125 28.2488C4.57125 28.7263 3.125 30.5406 3.125 32.6575V34.2738C3.125 34.8225 3.21313 35.365 3.38688 35.8869C4.0825 37.9731 6.0275 39.375 8.22625 39.375H31.7738C33.9731 39.375 35.9175 37.9731 36.6138 35.8862C36.7869 35.365 36.875 34.8225 36.875 34.2738V32.6575C36.875 30.5406 35.4287 28.7263 33.5087 28.2488ZM14.375 6.25V2.5C14.375 2.155 14.655 1.875 15 1.875H25C25.345 1.875 25.625 2.155 25.625 2.5V6.25C25.625 6.595 25.345 6.875 25 6.875H15C14.655 6.875 14.375 6.595 14.375 6.25ZM16.875 8.125H23.125V9.375H16.875V8.125ZM7.4875 19.3444L8.905 13.32C9.10188 12.4831 9.83188 11.8975 10.6875 11.8781C10.6469 12.0794 10.625 12.2875 10.625 12.5V15.625H11.875V12.5C11.875 11.4662 12.7162 10.625 13.75 10.625H26.25C27.2838 10.625 28.125 11.4662 28.125 12.5V15.625H29.375V12.5C29.375 12.2875 29.3531 12.0794 29.3119 11.8788C30.1681 11.8981 30.8975 12.4837 31.0944 13.3212L32.5119 19.3456C32.9181 21.0725 33.1244 22.8481 33.1244 24.6219C33.1244 25.8694 32.7819 27.0794 32.1394 28.1425C31.1325 28.2256 30.1894 28.6444 29.4525 29.36C28.7181 30.0725 28.2694 30.9937 28.155 31.9937C27.5181 31.6237 26.8437 31.3225 26.1425 31.1C25.805 28.8619 25.625 26.5869 25.625 24.3231V11.875H24.375V24.3231C24.375 26.4781 24.535 28.6425 24.8338 30.7781C24.2706 30.6794 23.6987 30.625 23.125 30.625H16.875C16.3013 30.625 15.7294 30.6794 15.1663 30.7781C15.465 28.6425 15.625 26.4781 15.625 24.3231V11.875H14.375V24.3231C14.375 26.5869 14.195 28.8619 13.8563 31.1C13.155 31.3225 12.4806 31.6237 11.8438 31.9937C11.7294 30.9937 11.2806 30.0719 10.5463 29.36C9.80875 28.645 8.87688 28.2313 7.86125 28.145C7.2175 27.0806 6.875 25.87 6.875 24.6219C6.875 22.8475 7.08125 21.0719 7.4875 19.3444ZM35.625 34.2738C35.625 34.6881 35.5588 35.0981 35.4281 35.4912C34.9025 37.0669 33.4338 38.125 31.7738 38.125H8.22625C6.56625 38.125 5.0975 37.0669 4.5725 35.4919C4.44125 35.0981 4.375 34.6881 4.375 34.2738V32.6575C4.375 30.8987 5.73375 29.4269 7.40375 29.3769C8.255 29.3487 9.06438 29.6637 9.67625 30.2569C10.2881 30.8506 10.625 31.6475 10.625 32.5V33.75C10.625 35.4731 12.0269 36.875 13.75 36.875H15V35.625H13.75C12.7162 35.625 11.875 34.7838 11.875 33.75V33.4525C13.335 32.4369 15.0956 31.875 16.875 31.875H23.125C24.9044 31.875 26.665 32.4369 28.125 33.4525V33.75C28.125 34.7838 27.2838 35.625 26.25 35.625H25V36.875H26.25C27.9731 36.875 29.375 35.4731 29.375 33.75V32.5C29.375 31.6475 29.7119 30.8506 30.3244 30.2569C30.9363 29.6637 31.7487 29.35 32.5969 29.3769C34.2662 29.4269 35.625 30.8987 35.625 32.6575V34.2738Z" fill="black"/>
<path d="M38.75 3.75C37.3712 3.75 36.25 2.62875 36.25 1.25C36.25 0.904375 35.9706 0.625 35.625 0.625C35.2794 0.625 35 0.904375 35 1.25C35 2.62875 33.8788 3.75 32.5 3.75C32.1544 3.75 31.875 4.02938 31.875 4.375C31.875 4.72062 32.1544 5 32.5 5C33.8788 5 35 6.12125 35 7.5C35 7.84562 35.2794 8.125 35.625 8.125C35.9706 8.125 36.25 7.84562 36.25 7.5C36.25 6.12125 37.3712 5 38.75 5C39.0956 5 39.375 4.72062 39.375 4.375C39.375 4.02938 39.0956 3.75 38.75 3.75ZM35.625 5.42938C35.3475 5.01188 34.9881 4.6525 34.5706 4.375C34.9881 4.0975 35.3475 3.73813 35.625 3.32063C35.9025 3.73813 36.2619 4.0975 36.6794 4.375C36.2619 4.6525 35.9025 5.01188 35.625 5.42938Z" fill="black"/>
<path d="M4.375 13.75C4.72062 13.75 5 13.4706 5 13.125C5 11.7462 6.12125 10.625 7.5 10.625C7.84562 10.625 8.125 10.3456 8.125 10C8.125 9.65438 7.84562 9.375 7.5 9.375C6.12125 9.375 5 8.25375 5 6.875C5 6.52938 4.72062 6.25 4.375 6.25C4.02938 6.25 3.75 6.52938 3.75 6.875C3.75 8.25375 2.62875 9.375 1.25 9.375C0.904375 9.375 0.625 9.65438 0.625 10C0.625 10.3456 0.904375 10.625 1.25 10.625C2.62875 10.625 3.75 11.7462 3.75 13.125C3.75 13.4706 4.02938 13.75 4.375 13.75ZM4.375 8.94562C4.6525 9.36312 5.01188 9.7225 5.42938 10C5.01188 10.2775 4.6525 10.6369 4.375 11.0544C4.0975 10.6369 3.73813 10.2775 3.32063 10C3.73813 9.7225 4.0975 9.36312 4.375 8.94562Z" fill="black"/>
</g>
<defs>
<clipPath id="clip0_114_212">
<rect width="40" height="40" fill="white"/>
</clipPath>
</defs>
</svg>
