<svg width="33" height="33" viewBox="0 0 33 33" fill="none" xmlns="http://www.w3.org/2000/svg">
<g clip-path="url(#clip0_971_31)">
<path d="M16.5 0C25.6127 0 33 7.3873 33 16.5C33 25.6127 25.6127 33 16.5 33C7.3873 33 0 25.6127 0 16.5C0 7.3873 7.3873 0 16.5 0ZM23.8285 9.9C23.1999 9.91115 22.2355 10.2422 17.5942 12.1481C15.9686 12.8156 12.7198 14.1972 7.84772 16.2929C7.05657 16.6035 6.64213 16.9074 6.6044 17.2045C6.53196 17.7749 7.36381 17.9525 8.41044 18.2884C9.26376 18.5622 10.4116 18.8826 11.0084 18.8953C11.5497 18.9069 12.1538 18.6866 12.8208 18.2344C17.3729 15.2007 19.7228 13.6673 19.8703 13.6343C19.9744 13.6109 20.1186 13.5816 20.2163 13.6674C20.3141 13.7531 20.3044 13.9155 20.2941 13.9591C20.2113 14.3074 15.9351 18.1475 15.689 18.3998L15.571 18.5185C14.6642 19.4141 13.7477 19.9988 15.329 21.0276C16.7568 21.9565 17.5878 22.5491 19.0588 23.5011C19.9988 24.1094 20.7358 24.8308 21.7063 24.7426C22.1529 24.7021 22.6142 24.2875 22.8485 23.051C23.4021 20.1289 24.4904 13.7975 24.7419 11.1884C24.764 10.9599 24.7362 10.6673 24.714 10.5389C24.6917 10.4105 24.6452 10.2275 24.4761 10.0921C24.2759 9.93164 23.9668 9.89782 23.8285 9.9Z" fill="#3D9CCD"/>
</g>
<defs>
<clipPath id="clip0_971_31">
<rect width="33" height="33" fill="white"/>
</clipPath>
</defs>
</svg>
