<svg width="5" height="9" viewBox="0 0 5 9" fill="none" xmlns="http://www.w3.org/2000/svg">
<path fill-rule="evenodd" clip-rule="evenodd" d="M0.289562 8.35643C0.26046 8.3274 0.237371 8.29292 0.221617 8.25495C0.205863 8.21699 0.197754 8.17629 0.197754 8.13518C0.197754 8.09408 0.205863 8.05338 0.221617 8.01541C0.237371 7.97745 0.26046 7.94296 0.289562 7.91393L3.81894 4.38518L0.289562 0.856434C0.260507 0.827379 0.23746 0.792886 0.221735 0.754923C0.206011 0.716961 0.197918 0.676274 0.197918 0.635184C0.197918 0.594094 0.206011 0.553406 0.221735 0.515444C0.23746 0.477482 0.260507 0.442989 0.289562 0.413934C0.318617 0.384879 0.35311 0.361831 0.391073 0.346107C0.429035 0.330382 0.469722 0.322289 0.510812 0.322289C0.551902 0.322289 0.59259 0.330382 0.630552 0.346107C0.668514 0.361831 0.703007 0.384879 0.732062 0.413934L4.48206 4.16393C4.51116 4.19296 4.53425 4.22745 4.55001 4.26541C4.56576 4.30338 4.57387 4.34408 4.57387 4.38518C4.57387 4.42629 4.56576 4.46699 4.55001 4.50495C4.53425 4.54292 4.51116 4.57741 4.48206 4.60643L0.732062 8.35643C0.703034 8.38554 0.668549 8.40862 0.630583 8.42438C0.592618 8.44013 0.551917 8.44824 0.510812 8.44824C0.469708 8.44824 0.429007 8.44013 0.391041 8.42438C0.353076 8.40862 0.318591 8.38554 0.289562 8.35643Z" fill="white"/>
</svg>
