<svg width="40" height="40" viewBox="0 0 40 40" fill="none" xmlns="http://www.w3.org/2000/svg">
<g clip-path="url(#clip0_114_144)">
<mask id="mask0_114_144" style="mask-type:luminance" maskUnits="userSpaceOnUse" x="0" y="0" width="40" height="40">
<path d="M40 0H0V40H40V0Z" fill="white"/>
</mask>
<g mask="url(#mask0_114_144)">
<path d="M39.4141 8.29825C39.2647 8.29825 39.1156 8.28676 38.9707 8.26395C38.684 8.21895 38.4062 8.39137 38.3201 8.66934C38.241 8.92426 38.1257 9.167 37.9772 9.39106C37.7985 9.66075 37.8722 10.0244 38.142 10.2032C38.2415 10.2692 38.3539 10.3007 38.4651 10.3007C38.655 10.3007 38.8413 10.2086 38.9541 10.0384C39.0747 9.85645 39.1799 9.66559 39.2687 9.46762C39.3171 9.46934 39.3656 9.4702 39.414 9.4702C39.7377 9.4702 39.9999 9.20793 39.9999 8.88426C39.9999 8.56059 39.7378 8.29825 39.4141 8.29825Z" fill="black"/>
<path d="M36.1195 10.6104C35.9573 10.6392 35.7911 10.6538 35.6257 10.6538C35.5688 10.6538 35.5047 10.6513 35.4241 10.6457C35.1823 10.6293 34.9576 10.7619 34.8546 10.9797C34.5352 11.6549 33.8468 12.0912 33.1007 12.0912C32.1799 12.0912 31.3802 11.4371 31.1993 10.5359C31.1529 10.3051 31.0113 10.101 30.8109 9.97589C30.6069 9.84878 30.3563 9.81089 30.123 9.87214C30.0135 9.90089 29.9005 9.9155 29.7873 9.9155C29.1332 9.9155 28.5759 9.42761 28.4909 8.78026C28.4338 8.34784 28.0625 8.02175 27.6271 8.02175H26.2411C25.7026 8.02175 25.1965 8.23151 24.8159 8.61214L24.4396 8.98846L22.308 6.85689L22.1777 6.06853C22.0945 5.56838 22.2311 5.05549 22.552 4.66182L22.9074 4.22666C23.0319 4.07439 23.0716 3.86978 23.0131 3.68197C22.9548 3.49416 22.806 3.34814 22.6171 3.2933C21.421 2.94588 20.5857 1.83268 20.5857 0.586426C20.5857 0.262754 20.3234 0.000488281 19.9998 0.000488281C19.6762 0.000488281 19.4138 0.262754 19.4138 0.586426C19.4138 2.06502 20.2446 3.41127 21.5104 4.09814C21.0731 4.72564 20.8955 5.50182 21.0217 6.26018L21.1336 6.93682L18.4124 9.65807L13.9156 5.16127C13.6859 4.93158 13.3803 4.80494 13.0552 4.80494C12.73 4.80494 12.4244 4.9315 12.1948 5.16119L11.3018 6.05416C10.8271 6.52885 10.8271 7.30111 11.3018 7.7758L11.557 8.03104L3.2258 16.3623L2.97048 16.107C2.74056 15.8771 2.43486 15.7503 2.1097 15.7503C1.78455 15.7503 1.47885 15.877 1.24892 16.107L0.355957 16.9999C-0.118652 17.4745 -0.118652 18.2468 0.355957 18.7214L4.85259 23.2182L1.38517 26.6912C0.678223 27.3982 0.288926 28.3379 0.288926 29.3376C0.288926 30.3372 0.678223 31.2771 1.38517 31.9841L2.94814 33.547L0.449473 36.0449C-0.146855 36.6427 -0.146855 37.615 0.45002 38.2131L1.78979 39.5521C2.0883 39.8506 2.48064 39.9999 2.87314 39.9999C3.26564 39.9999 3.65822 39.8507 3.95744 39.5521L4.89103 38.6185C5.11986 38.3896 5.11986 38.0187 4.89103 37.7898C4.6622 37.561 4.29119 37.561 4.06236 37.7898L3.12916 38.723C2.98798 38.8638 2.75884 38.8639 2.61814 38.7233L1.27877 37.3847C1.13791 37.2435 1.13791 37.0139 1.2783 36.8732L4.19087 33.9614C4.3008 33.8515 4.36252 33.7024 4.36252 33.547C4.36252 33.3916 4.3008 33.2425 4.19087 33.1326L2.21354 31.1553C1.72798 30.6697 1.46049 30.0241 1.46049 29.3375C1.46049 28.651 1.72791 28.0054 2.21384 27.5195L5.68104 24.0467L7.53135 25.897L4.50963 28.9235C4.28111 29.1524 4.28127 29.5232 4.51002 29.752L6.48729 31.7285C7.48979 32.731 7.48979 34.3621 6.48729 35.3647L5.99588 35.8561C5.76705 36.085 5.76705 36.456 5.99588 36.6849C6.11026 36.7992 6.26026 36.8564 6.41018 36.8564C6.5601 36.8564 6.71009 36.7992 6.82447 36.6849L7.31588 36.1935C8.77523 34.734 8.77523 32.3592 7.3158 30.8997L5.7526 29.3372L8.35992 26.7257L12.856 31.2217C13.0933 31.459 13.405 31.5776 13.7167 31.5776C14.0284 31.5776 14.3402 31.459 14.5775 31.2217L15.4704 30.3288C15.7002 30.0989 15.8269 29.7932 15.8269 29.468C15.8269 29.1428 15.7002 28.8371 15.4703 28.6072L15.215 28.3519L23.5462 20.0207L23.8015 20.276C24.0316 20.506 24.3373 20.6327 24.6623 20.6327C24.9874 20.6327 25.2931 20.506 25.5233 20.276L26.4162 19.383C26.6459 19.1533 26.7725 18.8477 26.7725 18.5225C26.7725 18.1973 26.6459 17.8917 26.4162 17.6621L21.9194 13.1653L25.6444 9.44057C25.8037 9.2812 26.0155 9.19346 26.2409 9.19346H27.3773C27.6431 10.2897 28.6362 11.0873 29.7871 11.0873C29.9003 11.0873 30.0134 11.0796 30.1254 11.0642C30.521 12.355 31.7267 13.2631 33.1005 13.2631C34.1654 13.2631 35.1571 12.7092 35.7235 11.8244C35.9248 11.8195 36.1263 11.7993 36.3238 11.7642C36.6425 11.7078 36.855 11.4037 36.7985 11.0851C36.7422 10.7664 36.438 10.5541 36.1195 10.6104ZM14.642 29.5002L13.7492 30.3931C13.7314 30.4108 13.7026 30.4108 13.6848 30.3931L1.18463 17.8927C1.16689 17.8749 1.16689 17.8462 1.18463 17.8285L2.07744 16.9357C2.08072 16.9323 2.09073 16.9223 2.10955 16.9223C2.12838 16.9223 2.13838 16.9323 2.14166 16.9357L14.642 29.436C14.6453 29.4392 14.6552 29.4492 14.6552 29.468C14.6553 29.4869 14.6453 29.497 14.642 29.5002ZM25.6009 18.5226C25.6009 18.5414 25.591 18.5511 25.5878 18.5543L24.6948 19.4473C24.6768 19.4656 24.6484 19.4654 24.6305 19.4473L15.6975 10.5144C15.4687 10.2857 15.0977 10.2857 14.8688 10.5144C14.64 10.7433 14.64 11.1142 14.8688 11.3432L22.7178 19.1921L14.3867 27.5233L4.05439 17.191L12.3856 8.85971L12.9353 9.4094C13.1641 9.63815 13.5352 9.63815 13.764 9.4094C13.9928 9.1805 13.9928 8.80956 13.764 8.58065L12.1304 6.94705C12.1124 6.92908 12.1124 6.9008 12.1304 6.88283L13.0234 5.98978C13.0266 5.98658 13.0363 5.97682 13.0551 5.97682C13.0739 5.97682 13.0836 5.98658 13.0869 5.98986L25.5879 18.4908C25.5911 18.4941 25.6009 18.5039 25.6009 18.5226ZM21.091 12.3366L19.241 10.4867L21.7606 7.96698L23.6106 9.81698L21.091 12.3366Z" fill="black"/>
<path d="M10.8473 20.7303C10.9617 20.8446 11.1117 20.9018 11.2616 20.9018C11.4115 20.9018 11.5615 20.8446 11.6759 20.7303L15.9249 16.4813C16.1537 16.2524 16.1537 15.8814 15.9249 15.6525C15.696 15.4238 15.325 15.4238 15.0962 15.6525L10.8472 19.9015C10.6185 20.1304 10.6185 20.5014 10.8473 20.7303Z" fill="black"/>
<path d="M13.0793 22.9626C13.1937 23.077 13.3437 23.1342 13.4936 23.1342C13.6436 23.1342 13.7936 23.077 13.9079 22.9626L18.1569 18.7137C18.3858 18.4848 18.3858 18.1138 18.1569 17.8849C17.9282 17.6563 17.5572 17.6561 17.3283 17.8849L13.0793 22.1338C12.8505 22.3628 12.8505 22.7337 13.0793 22.9626Z" fill="black"/>
<path d="M13.6928 13.4206C13.4641 13.1918 13.093 13.1918 12.8641 13.4206L8.61522 17.6695C8.3864 17.8984 8.3864 18.2693 8.61522 18.4982C8.7296 18.6126 8.8796 18.6698 9.02952 18.6698C9.17944 18.6698 9.32944 18.6126 9.44382 18.4982L13.6927 14.2493C13.9216 14.0204 13.9216 13.6495 13.6928 13.4206Z" fill="black"/>
<path d="M37.3632 5.66162C37.0395 5.66162 36.7773 5.92389 36.7773 6.24756C36.7773 6.62068 36.4736 6.92436 36.1005 6.92436C35.7768 6.92436 35.5145 7.18662 35.5145 7.51029C35.5145 7.83398 35.7768 8.09625 36.1005 8.09625C37.1198 8.09625 37.9491 7.26693 37.9491 6.24756C37.9491 5.92396 37.6868 5.66162 37.3632 5.66162Z" fill="black"/>
<path d="M24.9619 2.4351C25.9812 2.4351 26.8105 1.6058 26.8105 0.586426C26.8105 0.262754 26.5482 0.000488281 26.2246 0.000488281C25.9009 0.000488281 25.6386 0.262754 25.6386 0.586426C25.6386 0.95955 25.335 1.26322 24.9619 1.26322C24.6382 1.26322 24.376 1.52549 24.376 1.84916C24.376 2.17283 24.6382 2.4351 24.9619 2.4351Z" fill="black"/>
<path d="M32.6521 5.57283C33.4935 5.57283 34.2053 5.00799 34.4283 4.2376C35.1987 4.01455 35.7635 3.30275 35.7635 2.46143C35.7635 2.13775 35.5013 1.87549 35.1776 1.87549C34.8539 1.87549 34.5917 2.13775 34.5917 2.46143C34.5917 2.83455 34.2881 3.13822 33.915 3.13822C33.5913 3.13822 33.329 3.40049 33.329 3.72416C33.329 4.09729 33.0253 4.40088 32.6522 4.40088C32.3285 4.40088 32.0663 4.66314 32.0663 4.98682C32.0663 5.31049 32.3285 5.57283 32.6521 5.57283Z" fill="black"/>
<path d="M25.9982 5.98445C25.9982 6.30813 26.2604 6.57039 26.5841 6.57039C27.4254 6.57039 28.1372 6.00555 28.3603 5.23516C29.1307 5.01211 29.6955 4.30031 29.6955 3.45898C29.6955 3.13531 29.4332 2.87305 29.1096 2.87305C28.7859 2.87305 28.5236 3.13531 28.5236 3.45898C28.5236 3.83211 28.22 4.13578 27.8469 4.13578C27.5232 4.13578 27.261 4.39805 27.261 4.72172C27.261 5.09484 26.9573 5.39844 26.5842 5.39844C26.2604 5.39852 25.9982 5.66086 25.9982 5.98445Z" fill="black"/>
</g>
</g>
<defs>
<clipPath id="clip0_114_144">
<rect width="40" height="40" fill="white"/>
</clipPath>
</defs>
</svg>
