<svg width="40" height="40" viewBox="0 0 40 40" fill="none" xmlns="http://www.w3.org/2000/svg">
<g clip-path="url(#clip0_114_46)">
<mask id="mask0_114_46" style="mask-type:luminance" maskUnits="userSpaceOnUse" x="0" y="0" width="40" height="40">
<path d="M40 0H0V40H40V0Z" fill="white"/>
</mask>
<g mask="url(#mask0_114_46)">
<path d="M39.1477 10.7394L32.1441 3.73577C31.1249 2.71647 29.543 2.59756 28.3827 3.45304L24.5994 6.24259C24.462 6.34384 24.3757 6.50001 24.3629 6.67017C24.3501 6.84032 24.4122 7.00759 24.5328 7.1283L25.4445 8.04L21.4391 12.0455H18.5608L14.5551 8.03977L15.467 7.12783C15.5877 7.00712 15.6496 6.83986 15.6369 6.6697C15.6241 6.49954 15.5377 6.34337 15.4003 6.24212L11.6172 3.45319C10.4574 2.59748 8.87555 2.71639 7.85594 3.73608L6.74691 4.84515C6.51816 5.07391 6.51816 5.44485 6.74691 5.6736C6.97566 5.90235 7.3466 5.90235 7.57535 5.6736L8.68445 4.56453C9.29109 3.95788 10.2319 3.88702 10.9219 4.39609L12.1806 5.32407L2.44039 15.0642L1.51241 13.8059C1.00374 13.115 1.07452 12.1736 1.68069 11.5674L5.9187 7.32947C6.14745 7.10072 6.14745 6.72986 5.9187 6.50103C5.69003 6.27228 5.31909 6.27228 5.09026 6.50103L0.852257 10.739C-0.166582 11.7578 -0.285723 13.3398 0.569283 14.5008L3.35923 18.2841C3.46048 18.4215 3.61665 18.5078 3.78681 18.5206C3.8015 18.5217 3.81611 18.5223 3.83072 18.5223C3.98541 18.5223 4.13462 18.4609 4.24494 18.3507L5.15674 17.4388L5.83698 18.1191C4.39978 19.3563 3.55891 21.1624 3.55891 23.0752C3.55891 26.216 5.80058 28.8981 8.8418 29.4922C9.1725 31.2448 10.4207 32.6766 12.0672 33.2673V35.3714C12.0672 36.3337 12.8497 37.1165 13.8116 37.1165C14.5684 37.1165 15.214 36.6321 15.4552 35.9572H16.2939C16.5351 36.6321 17.1804 37.1165 17.9369 37.1165C18.6937 37.1165 19.3393 36.6321 19.5805 35.9572H20.4195C20.6606 36.632 21.3061 37.1163 22.0627 37.1163C22.8194 37.1163 23.4648 36.632 23.7059 35.9572H24.5449C24.7861 36.632 25.4316 37.1163 26.1881 37.1163C27.1502 37.1163 27.9329 36.3336 27.9329 35.3716V30.7663C28.8516 30.6394 29.6774 30.2188 30.3127 29.6023C31.4837 29.5289 32.609 29.143 33.5807 28.4794C33.8479 28.2969 33.9166 27.9324 33.7341 27.6652C33.5517 27.3981 33.1871 27.3294 32.92 27.5119C32.4053 27.8634 31.838 28.1191 31.2421 28.2731C31.4302 27.8509 31.5514 27.3931 31.5927 26.9123C33.1053 26.2475 34.0959 24.754 34.0959 23.0752C34.0959 21.7748 33.4987 20.571 32.4988 19.7833L33.3319 18.9502C34.553 19.9667 35.2694 21.4756 35.2694 23.0751C35.2694 24.1221 34.9663 25.1372 34.393 26.0106C34.2155 26.2811 34.2909 26.6442 34.5613 26.8218C34.6605 26.8869 34.772 26.9179 34.8823 26.9179C35.073 26.9179 35.26 26.8248 35.3725 26.6535C36.0715 25.5886 36.4409 24.3512 36.4409 23.0752C36.4409 21.162 35.6 19.3561 34.1627 18.1195L34.8434 17.4388L35.7552 18.3506C35.8654 18.4609 36.0146 18.5222 36.1693 18.5222C36.1839 18.5222 36.1985 18.5216 36.2132 18.5206C36.3834 18.5077 36.5395 18.4214 36.6408 18.2841L39.4304 14.5009C40.2859 13.3405 40.167 11.7586 39.1477 10.7394ZM29.703 16.1498C29.703 16.0028 29.7603 15.8645 29.8643 15.7606L31.5148 14.1101L32.2933 14.8886L30.6428 16.5391C30.5388 16.6431 30.4006 16.7003 30.2536 16.7003C30.1066 16.7003 29.9683 16.6431 29.8643 16.5391C29.7603 16.4352 29.703 16.2969 29.703 16.1498ZM28.2529 10.8483L28.7734 11.3688L27.1229 13.0192C27.0188 13.1232 26.8806 13.1805 26.7335 13.1805C26.5865 13.1805 26.4483 13.1232 26.3442 13.0192C26.1296 12.8046 26.1296 12.4553 26.3442 12.2407L27.9948 10.5902L28.2529 10.8483ZM26.273 8.86844L27.1664 9.76172L25.5159 11.4123C24.8445 12.0837 24.8445 13.1762 25.5159 13.8476C25.8411 14.1728 26.2736 14.352 26.7335 14.352C27.1936 14.352 27.626 14.1728 27.9513 13.8476L29.6017 12.1971L30.6863 13.2817L29.0359 14.9322C28.7106 15.2574 28.5315 15.6899 28.5315 16.1498C28.5315 16.6098 28.7106 17.0423 29.0359 17.3675C29.3611 17.6927 29.7935 17.8719 30.2535 17.8719C30.7135 17.8719 31.1459 17.6927 31.4712 17.3675L33.1216 15.717L34.0149 16.6103L30.2522 20.3731L22.5102 12.6313L26.273 8.86844ZM23.8073 30.8078H24.4434V34.7856H23.8073V30.8078ZM19.7863 29.6362L23.0884 26.3945C23.0866 26.4445 23.0845 26.4945 23.0845 26.5449C23.0845 27.761 23.5973 28.8589 24.4169 29.6362H19.7863ZM15.5566 33.2195C15.7766 33.1338 15.9889 33.0332 16.1925 32.9184V34.7856H15.5566V33.2195ZM19.682 30.8078H20.318V34.7856H19.682V30.8078ZM18.7209 29.0404C18.7358 28.8836 18.7441 28.7249 18.7441 28.5643C18.7441 25.8101 16.5033 23.5693 13.7491 23.5693C13.6412 23.5693 13.5344 23.5739 13.4281 23.5807L16.694 20.3871C16.8162 22.1048 18.2518 23.4653 20 23.4653C21.8281 23.4653 23.3154 21.9781 23.3154 20.1498C23.3154 20.0716 23.3117 19.9942 23.3063 19.9173L26.6662 22.3375C25.764 22.483 24.9555 22.912 24.3361 23.5307L24.3368 23.5271L18.7209 29.0404ZM8.33742 20.6196L9.23406 21.5163L10.3323 24.9256C9.98883 25.2484 9.69078 25.6188 9.44914 26.0266C8.09164 25.7252 7.07512 24.4953 7.07512 23.0752C7.07519 22.0915 7.54988 21.184 8.33742 20.6196ZM20 18.006C21.1821 18.006 22.1438 18.9677 22.1438 20.1498C22.1438 21.332 21.1821 22.2938 20 22.2938C18.8179 22.2938 17.8562 21.332 17.8562 20.1498C17.8562 18.9677 18.8179 18.006 20 18.006ZM29.1541 22.6856C29.1541 22.6856 22.0723 17.5616 21.9898 17.4995C21.4352 17.0821 20.7459 16.8345 20 16.8345C19.1373 16.8345 18.3508 17.1659 17.7604 17.7078L11.2791 24.0435L10.4154 21.3625L18.5609 13.217H21.4392L29.5846 21.3624L29.158 22.6873C29.1567 22.6868 29.1554 22.6863 29.1541 22.6856ZM8.48531 14.1102L10.1358 15.7606C10.2398 15.8646 10.297 16.0028 10.297 16.1498C10.297 16.2969 10.2398 16.4352 10.1358 16.5391C10.0318 16.6431 9.89359 16.7003 9.74648 16.7003C9.59945 16.7003 9.46125 16.6431 9.35727 16.5391L7.70676 14.8886L8.48531 14.1102ZM3.89798 17.0408L3.1436 16.0178L13.1343 6.02712L14.157 6.78103L3.89798 17.0408ZM6.8784 15.7171L8.52883 17.3675C8.85406 17.6927 9.28648 17.8719 9.74648 17.8719C10.2065 17.8719 10.6389 17.6927 10.9641 17.3675C11.2894 17.0423 11.4685 16.6098 11.4685 16.1498C11.4685 15.6899 11.2894 15.2574 10.9641 14.9322L9.31367 13.2817L9.32727 13.2681L10.3983 12.1971L12.0487 13.8476C12.374 14.1728 12.8064 14.352 13.2664 14.352C13.7264 14.352 14.1588 14.1728 14.4841 13.8476C15.1555 13.1762 15.1555 12.0837 14.4841 11.4123L12.8336 9.76172L13.7269 8.86844L17.4898 12.6313L9.74781 20.3731L5.98511 16.6105L6.8784 15.7171ZM12.0052 10.5902L13.6557 12.2407C13.8703 12.4553 13.8703 12.8046 13.6557 13.0192C13.5517 13.1232 13.4134 13.1805 13.2664 13.1805C13.1194 13.1805 12.9811 13.1232 12.8771 13.0192L11.2267 11.3688L12.0052 10.5902ZM4.73049 23.0752C4.73049 21.4761 5.44674 19.967 6.66777 18.9498L7.50105 19.7831C6.50097 20.5709 5.90355 21.7747 5.90355 23.0752C5.90355 24.1266 6.29597 25.1331 7.00855 25.9092C7.54324 26.4916 8.22227 26.9058 8.96914 27.1147C8.85656 27.4851 8.78602 27.8734 8.76297 28.2745C6.42269 27.6743 4.73049 25.5479 4.73049 23.0752ZM9.92562 28.5643C9.92562 26.4561 11.6409 24.7409 13.7491 24.7409C15.8573 24.7409 17.5726 26.456 17.5726 28.5643C17.5726 30.6727 15.8573 32.3878 13.7491 32.3878C11.6409 32.3878 9.92562 30.6727 9.92562 28.5643ZM13.8116 35.9449C13.4958 35.9449 13.2387 35.6877 13.2387 35.3714V33.5335C13.4066 33.5506 13.5767 33.5594 13.749 33.5594C13.9646 33.5594 14.1766 33.5441 14.3851 33.5175V35.3714C14.3851 35.6877 14.1278 35.9449 13.8116 35.9449ZM17.9369 35.9449C17.6211 35.9449 17.3641 35.6877 17.3641 35.3714V32.0141L18.5105 30.8888V35.3713C18.5105 35.6877 18.2532 35.9449 17.9369 35.9449ZM22.0627 35.9447C21.7467 35.9447 21.4896 35.6876 21.4896 35.3716V30.8078H22.6358V35.3716C22.6358 35.6876 22.3788 35.9447 22.0627 35.9447ZM26.1881 35.9447C25.8721 35.9447 25.6151 35.6876 25.6151 35.3716V30.8078H26.7613V35.3716C26.7613 35.6876 26.5041 35.9447 26.1881 35.9447ZM27.3471 29.6359C25.6427 29.6359 24.2561 28.2493 24.2561 26.5449C24.2561 24.8406 25.6427 23.454 27.3471 23.454C29.0514 23.454 30.438 24.8406 30.438 26.5449C30.438 28.2493 29.0514 29.6359 27.3471 29.6359ZM32.9244 23.0752C32.9244 24.1338 32.3777 25.0905 31.5105 25.6341C31.3146 24.7378 30.8361 23.9463 30.173 23.3577L30.7658 21.5164L31.6624 20.6198C32.4498 21.1839 32.9244 22.0914 32.9244 23.0752ZM36.102 17.0406L25.8428 6.78142L26.8657 6.0272L36.8562 16.0177L36.102 17.0406ZM38.4874 13.8054L37.5594 15.064L27.8194 5.32399L29.078 4.39593C29.7683 3.88694 30.7093 3.95772 31.3156 4.56414L38.3192 11.5677C38.9256 12.1741 38.9963 13.1152 38.4874 13.8054Z" fill="black"/>
<path d="M15.5169 28.5644C15.5169 27.5895 14.7238 26.7964 13.7489 26.7964C12.774 26.7964 11.9808 27.5895 11.9808 28.5644C11.9808 29.5394 12.774 30.3325 13.7489 30.3325C14.7238 30.3325 15.5169 29.5394 15.5169 28.5644ZM13.1524 28.5644C13.1524 28.2355 13.42 27.9679 13.7489 27.9679C14.0778 27.9679 14.3454 28.2355 14.3454 28.5644C14.3454 28.8933 14.0778 29.1609 13.7489 29.1609C13.42 29.1609 13.1524 28.8933 13.1524 28.5644Z" fill="black"/>
<path d="M27.3469 24.7769C26.372 24.7769 25.5789 25.5699 25.5789 26.5448C25.5789 27.5197 26.372 28.3129 27.3469 28.3129C28.3218 28.3129 29.115 27.5197 29.115 26.5448C29.115 25.5699 28.3218 24.7769 27.3469 24.7769ZM27.3469 27.1413C27.018 27.1413 26.7504 26.8737 26.7504 26.5448C26.7504 26.2159 27.018 25.9484 27.3469 25.9484C27.6758 25.9484 27.9434 26.2159 27.9434 26.5448C27.9434 26.8737 27.6758 27.1413 27.3469 27.1413Z" fill="black"/>
</g>
</g>
<defs>
<clipPath id="clip0_114_46">
<rect width="40" height="40" fill="white"/>
</clipPath>
</defs>
</svg>
