<svg width="42" height="42" viewBox="0 0 42 42" fill="none" xmlns="http://www.w3.org/2000/svg">
<g clip-path="url(#clip0_115_431)">
<mask id="mask0_115_431" style="mask-type:luminance" maskUnits="userSpaceOnUse" x="0" y="9" width="43" height="29">
<path d="M0.25 9.25H42.527V37.1H0.25V9.25Z" fill="white" stroke="white" stroke-width="0.5"/>
</mask>
<g mask="url(#mask0_115_431)">
<path d="M0.860146 27.6035V27.8535H1.11015H6.81758H13.8988V28.2394H6.81758H6.56758V28.4894V31.3976C6.56758 32.3558 5.87044 33.0904 5.06704 33.0904H2.04535C1.24195 33.0904 0.544798 32.3558 0.544798 31.3976V28.4894V27.6035V21.6651C0.544798 19.8353 1.35608 18.1922 2.63573 17.1415L3.17555 16.6983H2.47709H0.37439V16.1404C0.37439 15.0075 1.21803 14.1219 2.21209 14.1219H3.71345V15.7776V16.5917L4.17037 15.9179L7.13008 11.5533L7.13011 11.5533C7.94488 10.3513 9.13915 9.7002 10.4977 9.7002H13.8984V10.0861H10.4977C9.21114 10.0861 8.12702 10.686 7.37267 11.7975L7.37261 11.7976L4.76514 15.643L4.42975 16.1376L5.01743 16.0292C7.95555 15.4869 10.94 15.1569 13.8937 15.0483L13.9046 15.4344C10.9546 15.5425 7.9746 15.8721 5.04151 16.415L5.04138 16.415C4.71593 16.4755 4.40453 16.5694 4.10771 16.6884L4.03654 16.7169L4.02807 16.7294L4.02104 16.7238L3.88055 16.7887C3.44831 16.9886 3.04828 17.2474 2.69179 17.5587L2.43946 17.779L2.72249 17.9582L6.61976 20.4259L6.62144 20.5401L6.62144 20.5401C6.63117 21.1844 6.62792 21.5427 6.62426 21.9088L6.62426 21.9094L6.62142 22.2762L6.62141 22.2777C6.62097 22.537 6.61529 22.7796 6.46182 23.0036C6.2955 23.246 6.06691 23.3662 5.81564 23.3663C5.81546 23.3663 5.81528 23.3663 5.8151 23.3663L1.11076 23.3548L0.860146 23.3542V23.6048V24.9457V25.1957H1.11015H6.52242L7.75589 26.5359L7.51918 26.7931L6.47849 25.6623L6.40422 25.5816H6.29454H1.11015H0.860146V25.8316V27.6035ZM1.1678 22.9689L5.56493 22.9802L6.05054 22.4814C6.05522 22.4276 6.05586 22.3602 6.05606 22.2764L6.30606 22.2782L6.30606 22.2776C6.30606 22.2774 6.30606 22.2772 6.30606 22.277L6.30889 21.9043L6.30889 21.9039L6.30924 21.8664C6.31201 21.5678 6.31481 21.265 6.30929 20.7974L6.30769 20.6618L6.19311 20.5892L5.98968 20.4603L5.64457 20.2416L5.60694 20.6484C5.52806 21.501 4.87887 22.1362 4.12123 22.1362C3.31269 22.1362 2.61945 21.4141 2.61945 20.4823C2.61945 19.9197 2.87785 19.4286 3.26332 19.1312L3.54599 18.9131L3.24437 18.7221L2.51912 18.2627L2.334 18.1455L2.1935 18.3136C1.36715 19.3027 0.918444 20.574 0.918444 21.9277V22.7189V22.9682L1.1678 22.9689ZM4.11105 19.2709L4.02879 19.2188L3.93298 19.2361C3.34993 19.3412 2.9348 19.8685 2.9348 20.4823C2.9348 21.1616 3.44736 21.7503 4.12123 21.7503C4.79497 21.7503 5.30807 21.1617 5.30807 20.4823C5.30807 20.3208 5.27151 20.1711 5.22484 20.0392L5.19598 19.9577L5.12289 19.9114L4.11105 19.2709ZM3.39891 14.7574V14.5074H3.14891H2.21209C1.383 14.5074 0.735077 15.2094 0.691702 16.0491L0.678121 16.3119H0.941369H3.14891H3.39891V16.0619V14.7574ZM6.00223 29.1824H6.25223V28.9324V28.4894V28.2394H6.00223H1.11015H0.860146V28.4894V28.9324V29.1824H1.11015H1.67549V29.5683H1.11015H0.860146V29.8183V30.2613V30.5113H1.11015H1.67549V30.8971H1.11015H0.860146V31.1471V31.3976C0.860146 32.089 1.36372 32.7045 2.04535 32.7045H2.33276H2.58276V32.4545V30.5113H2.8981V32.4545V32.7045H3.1481H3.96345H4.21345V32.4545V30.5113H4.5288V32.4545V32.7045H4.7788H5.06704C5.74874 32.7045 6.25223 32.0883 6.25223 31.3976V31.1471V30.8971H6.00223H5.43688V30.5113H6.00223H6.25223V30.2613V29.8183V29.5683H6.00223H5.43688V29.1824H6.00223Z" fill="#333333" stroke="black" stroke-width="0.5"/>
<path d="M9.25796 20.7097H8.97858L9.00949 20.9873C9.2274 22.9446 10.7773 23.9527 12.1867 24.2536L12.1867 24.2536C12.8264 24.3901 13.3934 24.4949 13.9106 24.5721L13.8667 24.9539C13.348 24.8763 12.7786 24.7712 12.1341 24.6337L12.134 24.6337C10.4379 24.2722 8.66858 23.0018 8.66858 20.5167V20.3237H13.9062V20.7097H9.25796Z" fill="#333333" stroke="black" stroke-width="0.5"/>
<path d="M24.1895 30.7055V30.4555H23.9395H16.3132C15.7305 30.4555 15.2207 29.9326 15.2207 29.2468V10.4583C15.2207 9.77249 15.7304 9.25 16.3132 9.25H39.3116C39.8948 9.25 40.4043 9.77248 40.4043 10.4583V29.2468C40.4043 29.9326 39.8947 30.4555 39.3116 30.4555H31.6854H31.4354V30.7055V33.8062V34.0562H31.6854H32.7046C33.5417 34.0562 34.2892 34.8375 34.2892 35.7996V37.1H30.8701H21.3358V35.7996C21.3358 34.8375 22.0833 34.0562 22.9204 34.0562H23.9395H24.1895V33.8062V30.7055ZM39.8389 26.5258H40.0889V26.2758V10.4583C40.0889 10.0245 39.7594 9.63594 39.3116 9.63594H16.3132C15.8659 9.63594 15.5361 10.0245 15.5361 10.4583V26.2758V26.5258H15.7861H39.8389ZM33.7238 36.7141H33.9738V36.4641V35.7996C33.9738 35.4406 33.8243 35.1047 33.5982 34.8591C33.3727 34.6141 33.0546 34.4422 32.7046 34.4422H31.6854H31.4354V34.6922V35.3281H24.1895V34.6922V34.4422H23.9395H22.9204C22.5703 34.4422 22.2522 34.614 22.0267 34.8591C21.8006 35.1047 21.6512 35.4406 21.6512 35.7996V36.4641V36.7141H21.9012H30.8701H33.7238ZM30.8701 34.9422H31.1201V34.6922V30.7055V30.4555H30.8701H24.7549H24.5049V30.7055V34.6922V34.9422H24.7549H30.8701ZM15.7861 26.9117H15.5361V27.1617V29.2468C15.5361 29.6807 15.8653 30.0695 16.3132 30.0695H23.9395H31.6854H39.3116C39.7596 30.0695 40.0889 29.6808 40.0889 29.2468V27.1617V26.9117H39.8389H15.7861Z" fill="#333333" stroke="black" stroke-width="0.5"/>
<path d="M21.1588 23.3669L21.0868 23.3456L21.015 23.3675L17.8055 24.3457L17.7102 23.9775L21.0857 22.9485L24.6812 24.0121L24.7591 24.0351L24.8357 24.0079L30.8676 21.867L35.2708 23.1935L35.3508 23.2177L35.4293 23.1888L38.7331 21.9724L38.8456 22.3335L35.3587 23.6174L30.9519 22.2896L30.8734 22.2659L30.7962 22.2933L24.7666 24.434L21.1588 23.3669Z" fill="#333333" stroke="black" stroke-width="0.5"/>
<path d="M20.1136 19.3811V12.3506H20.429V19.3811H20.1136Z" fill="#333333" stroke="black" stroke-width="0.5"/>
<path d="M18.8904 19.3811V14.5654H19.2057V19.3811H18.8904Z" fill="#333333" stroke="black" stroke-width="0.5"/>
<path d="M17.6671 19.3812V15.8945H17.9825V19.3812H17.6671Z" fill="#333333" stroke="black" stroke-width="0.5"/>
<path d="M21.337 19.3811V12.3506H21.6524V19.3811H21.337Z" fill="#333333" stroke="black" stroke-width="0.5"/>
<path d="M22.5599 19.3819V17.2241H22.8753V19.3819H22.5599Z" fill="#333333" stroke="black" stroke-width="0.5"/>
<path d="M37.2357 19.3811V12.3506H37.5511V19.3811H37.2357Z" fill="#333333" stroke="black" stroke-width="0.5"/>
<path d="M23.7822 19.3811V12.3506H24.0976V19.3811H23.7822Z" fill="#333333" stroke="black" stroke-width="0.5"/>
<path d="M25.0052 19.3813V13.2368H25.3206V19.3813H25.0052Z" fill="#333333" stroke="black" stroke-width="0.5"/>
<path d="M26.2283 19.3816V14.6001H26.5436V19.3816H26.2283Z" fill="#333333" stroke="black" stroke-width="0.5"/>
<path d="M27.4523 19.3811V12.3506H27.7676V19.3811H27.4523Z" fill="#333333" stroke="black" stroke-width="0.5"/>
<path d="M28.6741 19.3821V18.4761H28.9894V19.3821H28.6741Z" fill="#333333" stroke="black" stroke-width="0.5"/>
<path d="M29.8976 19.3811V14.5654H30.2129V19.3811H29.8976Z" fill="#333333" stroke="black" stroke-width="0.5"/>
<path d="M31.1204 19.3813V15.4517H31.4357V19.3813H31.1204Z" fill="#333333" stroke="black" stroke-width="0.5"/>
<path d="M32.3438 19.3813V13.2368H32.6591V19.3813H32.3438Z" fill="#333333" stroke="black" stroke-width="0.5"/>
<path d="M33.5664 19.3811V12.3506H33.8818V19.3811H33.5664Z" fill="#333333" stroke="black" stroke-width="0.5"/>
<path d="M34.7639 19.3813V15.4517H35.0793V19.3813H34.7639Z" fill="#333333" stroke="black" stroke-width="0.5"/>
<path d="M36.0127 19.3813V13.2368H36.328V19.3813H36.0127Z" fill="#333333" stroke="black" stroke-width="0.5"/>
</g>
</g>
<defs>
<clipPath id="clip0_115_431">
<rect width="42" height="42" fill="white"/>
</clipPath>
</defs>
</svg>
