<svg width="39" height="39" viewBox="0 0 39 39" fill="none" xmlns="http://www.w3.org/2000/svg">
<path d="M19.2859 1C16.8845 1 14.5067 1.47298 12.2882 2.39193C10.0696 3.31088 8.05381 4.65781 6.35581 6.35581C4.65781 8.05381 3.31088 10.0696 2.39193 12.2882C1.47298 14.5067 1 16.8845 1 19.2859C1 21.6872 1.47298 24.065 2.39193 26.2836C3.31088 28.5021 4.65781 30.5179 6.35581 32.216C8.05381 33.914 10.0696 35.2609 12.2882 36.1798C14.5067 37.0988 16.8845 37.5718 19.2859 37.5718C24.1356 37.5718 28.7867 35.6452 32.216 32.216C35.6452 28.7867 37.5718 24.1356 37.5718 19.2859C37.5718 14.4362 35.6452 9.78508 32.216 6.35581C28.7867 2.92654 24.1356 1 19.2859 1ZM19.2859 32.2741C15.8412 32.2741 12.5376 30.9057 10.1018 28.4699C7.66605 26.0342 6.29765 22.7306 6.29765 19.2859C6.29765 15.8412 7.66605 12.5376 10.1018 10.1018C12.5376 7.66605 15.8412 6.29765 19.2859 6.29765C22.7306 6.29765 26.0342 7.66605 28.47 10.1018C30.9057 12.5376 32.2741 15.8412 32.2741 19.2859C32.2741 22.7306 30.9057 26.0342 28.47 28.4699C26.0342 30.9057 22.7306 32.2741 19.2859 32.2741Z" stroke="black" stroke-linecap="round" stroke-linejoin="round"/>
<path d="M29.1659 18.8382H29.4347L29.4152 18.5701C29.257 16.3893 28.3951 14.3189 26.9591 12.6699L26.7831 12.4678L26.5937 12.6575L22.7266 16.5316L22.5763 16.6822L22.7009 16.8546C23.0804 17.3801 23.3313 17.9874 23.4331 18.6275L23.4666 18.8382H23.68H29.1659ZM20.0402 9.19652L19.7724 9.17733V9.44588V14.92V15.1334L19.9831 15.1669C20.6232 15.2688 21.2305 15.5196 21.756 15.8991L21.9284 16.0237L22.079 15.8734L25.9531 12.0051L26.1434 11.8152L25.9401 11.6392C24.2887 10.2095 22.219 9.35258 20.0402 9.19652ZM18.8559 9.44588V8.84225L18.4887 9.20949C16.3466 9.38198 14.3141 10.2326 12.6871 11.6391L12.4835 11.8151L12.674 12.0052L16.5493 15.8734L16.6998 16.0237L16.8723 15.8991C17.3977 15.5196 18.005 15.2688 18.6452 15.1669L18.8559 15.1334V14.92V9.44588ZM12.0228 12.6575L11.8334 12.4678L11.6574 12.6699C10.2214 14.3187 9.35825 16.3892 9.20007 18.5702L9.18063 18.8382H9.44942H14.9377H15.151L15.1845 18.6275C15.2864 17.9874 15.5372 17.3801 15.9168 16.8546L16.0414 16.6822L15.891 16.5316L12.0228 12.6575ZM9.44942 19.7559H9.18166L9.2 20.023C9.34998 22.207 10.2081 24.2824 11.6443 25.9346L11.8203 26.1371L12.0099 25.9472L15.8887 22.0625L16.039 21.912L15.9144 21.7395C15.5349 21.214 15.2841 20.6068 15.1822 19.9666L15.1487 19.7559H14.9353H9.44942ZM18.5754 29.3976L18.8429 29.4164V29.1482V23.6506V23.4372L18.6322 23.4037C17.9921 23.3018 17.3848 23.051 16.8593 22.6715L16.6869 22.5469L16.5363 22.6972L12.6504 26.5772L12.4608 26.7665L12.6628 26.9426C14.3143 28.3821 16.39 29.244 18.5754 29.3976ZM18.5328 22.4368L18.5333 22.4369C19.0377 22.5607 19.5646 22.5607 20.069 22.4369L20.0697 22.4367C20.9068 22.2288 21.6287 21.7004 22.0799 20.9653C22.3956 20.4556 22.5629 19.8679 22.5629 19.2682C22.5629 18.6688 22.3957 18.0812 22.0801 17.5715C21.8113 17.1298 21.4396 16.7581 20.9979 16.4893C20.4882 16.1737 19.9006 16.0065 19.3012 16.0065C18.7017 16.0065 18.1141 16.1737 17.6045 16.4893C17.1624 16.7584 16.7914 17.1295 16.5223 17.5715C16.2966 17.9357 16.1458 18.3414 16.0788 18.7646C16.0118 19.1882 16.0301 19.6209 16.1325 20.0374L16.1327 20.0379C16.2768 20.6182 16.5764 21.1482 16.9993 21.5709C17.4222 21.9936 17.9524 22.293 18.5328 22.4368ZM19.7594 29.1482V29.1888L19.7722 29.2273L19.7781 29.2449L19.8395 29.429L20.033 29.4153C22.2165 29.26 24.2899 28.3977 25.9396 26.959L26.1415 26.7829L25.9519 26.5937L22.066 22.7148L21.9155 22.5645L21.743 22.6891C21.2176 23.0687 20.6103 23.3195 19.9701 23.4213L19.7594 23.4549V23.6682V29.1482ZM22.7184 22.0449L26.5644 25.8968L26.7098 26.236L26.9713 25.9343C28.4084 24.2764 29.2642 22.1941 29.4083 20.0047L29.4258 19.7382H29.1588H23.6718H23.4584L23.4249 19.9489C23.323 20.5891 23.0722 21.1964 22.6926 21.7218L22.5681 21.8943L22.7184 22.0449ZM13.1646 10.1136C14.9831 8.89859 17.121 8.25004 19.308 8.25C22.2395 8.25461 25.0496 9.42118 27.1224 11.494C29.1953 13.5669 30.3619 16.3771 30.3665 19.3086C30.3664 21.4956 29.7179 23.6335 28.5028 25.4519C27.2877 27.2704 25.5607 28.6877 23.54 29.5247C21.5194 30.3617 19.296 30.5807 17.1509 30.154C15.0058 29.7273 13.0354 28.6741 11.4889 27.1276C9.94237 25.5811 8.88917 23.6107 8.46249 21.4656C8.0358 19.3205 8.25479 17.0971 9.09176 15.0764C9.92873 13.0558 11.3461 11.3287 13.1646 10.1136Z" fill="black" stroke="black" stroke-width="0.5"/>
</svg>
