<svg width="40" height="40" viewBox="0 0 40 40" fill="none" xmlns="http://www.w3.org/2000/svg">
<g clip-path="url(#clip0_114_293)">
<mask id="mask0_114_293" style="mask-type:luminance" maskUnits="userSpaceOnUse" x="0" y="0" width="40" height="40">
<path d="M40 0H0V40H40V0Z" fill="white"/>
</mask>
<g mask="url(#mask0_114_293)">
<path d="M28.6692 6.00683C28.6692 6.37492 28.9672 6.67336 29.3357 6.67336C29.7037 6.67336 30.0022 6.37492 30.0022 6.00683C30.0361 5.11314 29.6956 4.24547 29.0632 3.61311C28.4306 2.98076 27.5632 2.64034 26.6696 2.67418C26.3012 2.6732 26.002 2.97067 26.0007 3.33876C25.9997 3.70684 26.2972 4.00626 26.6653 4.00724C27.2046 3.97763 27.7308 4.17875 28.1132 4.56019C28.4953 4.94162 28.6974 5.46755 28.6692 6.00683Z" fill="black"/>
<path d="M5.34062 16.0049H3.34102C2.97261 16.0049 2.6745 16.3033 2.6745 16.6714V18.671C2.6745 19.039 2.97261 19.3375 3.34102 19.3375C3.70912 19.3375 4.00756 19.039 4.00756 18.671V17.3379H5.34062C5.70871 17.3379 6.00715 17.0395 6.00715 16.6714C6.00715 16.3033 5.70871 16.0049 5.34062 16.0049Z" fill="black"/>
<path d="M5.34062 36.001H4.00756V34.668C4.00756 34.2999 3.70912 34.0015 3.34102 34.0015C2.97261 34.0015 2.6745 34.2999 2.6745 34.668V36.6675C2.6745 37.0356 2.97261 37.334 3.34102 37.334H5.34062C5.70871 37.334 6.00715 37.0356 6.00715 36.6675C6.00715 36.2995 5.70871 36.001 5.34062 36.001Z" fill="black"/>
<path d="M36.6674 34.0015C36.299 34.0015 36.0009 34.2999 36.0009 34.668V36.001H34.6678C34.2994 36.001 34.0013 36.2995 34.0013 36.6675C34.0013 37.0356 34.2994 37.334 34.6678 37.334H36.6674C37.0355 37.334 37.3339 37.0356 37.3339 36.6675V34.668C37.3339 34.2999 37.0355 34.0015 36.6674 34.0015Z" fill="black"/>
<path d="M36.6674 16.0049H34.6678C34.2994 16.0049 34.0013 16.3033 34.0013 16.6714C34.0013 17.0395 34.2994 17.3379 34.6678 17.3379H36.0009V18.671C36.0009 19.039 36.299 19.3375 36.6674 19.3375C37.0355 19.3375 37.3339 19.039 37.3339 18.671V16.6714C37.3339 16.3033 37.0355 16.0049 36.6674 16.0049Z" fill="black"/>
<path d="M10.0063 8.0064H18.6713C19.0393 8.0064 19.3378 7.70796 19.3378 7.33986C19.3378 6.97178 19.0393 6.67334 18.6713 6.67334H10.0063C9.63801 6.67334 9.33984 6.97178 9.33984 7.33986C9.33984 7.70796 9.63801 8.0064 10.0063 8.0064Z" fill="black"/>
<path d="M18.6712 4.00732H16.0051C15.6367 4.00732 15.3385 4.30577 15.3385 4.67386C15.3385 5.04194 15.6367 5.34038 16.0051 5.34038H18.6712C19.0393 5.34038 19.3378 5.04194 19.3378 4.67386C19.3378 4.30577 19.0393 4.00732 18.6712 4.00732Z" fill="black"/>
<path d="M14.0054 4.67386C14.0054 4.30577 13.7069 4.00732 13.3389 4.00732H7.34006C6.97164 4.00732 6.67352 4.30577 6.67352 4.67386C6.67352 5.04194 6.97164 5.34038 7.34006 5.34038H13.3389C13.7069 5.34038 14.0054 5.04194 14.0054 4.67386Z" fill="black"/>
<path d="M36.6677 13.3388H29.3359V11.3727C31.8311 10.1347 33.1459 7.3416 32.51 4.62959C31.874 1.91757 29.4553 0 26.6697 0C23.8841 0 21.465 1.91757 20.8291 4.62959C20.1935 7.3416 21.508 10.1347 24.0036 11.3727V13.3388H3.34114C1.50135 13.341 0.0104366 14.8319 0.00848389 16.6714V36.6673C0.0104366 38.5071 1.50135 39.9977 3.34114 40H36.6677C38.5071 39.9977 39.998 38.5071 40.0004 36.6673V16.6714C39.998 14.8319 38.5071 13.341 36.6677 13.3388ZM29.3359 20.0041C29.3359 19.2678 29.9324 18.671 30.6689 18.671C31.4051 18.671 32.0019 19.2678 32.0019 20.0041V34.0012C32.0019 34.7373 31.4051 35.3342 30.6689 35.3342C29.9324 35.3342 29.3359 34.7373 29.3359 34.0012V20.0041ZM22.004 6.00691C22.004 3.43029 24.0928 1.3412 26.6697 1.3412C29.2464 1.3412 31.3354 3.43029 31.3354 6.00691C31.3354 8.58383 29.2464 10.6726 26.6697 10.6726C24.094 10.6697 22.0069 8.58258 22.004 6.00691ZM26.6697 12.0057C27.1182 12.0044 27.5654 11.9527 28.0028 11.8511V28.0024H25.3366V11.8511C25.7737 11.9527 26.2209 12.0044 26.6697 12.0057ZM22.004 28.0024C21.6356 28.0024 21.3374 28.3008 21.3374 28.6689V34.0012C21.3374 34.7373 20.7406 35.3342 20.0044 35.3342C19.2679 35.3342 18.6714 34.7373 18.6714 34.0012V28.6689C18.6714 28.3008 18.3729 28.0024 18.0048 28.0024H11.3395C10.9711 28.0024 10.6729 28.3008 10.6729 28.6689V34.0012C10.6729 34.7373 10.0761 35.3342 9.33994 35.3342C8.60344 35.3342 8.00685 34.7373 8.00685 34.0012V20.0041C8.00685 19.2678 8.60344 18.671 9.33994 18.671C10.0761 18.671 10.6729 19.2678 10.6729 20.0041V24.6697C10.6729 25.0378 10.9711 25.3363 11.3395 25.3363H18.0048C18.3729 25.3363 18.6714 25.0378 18.6714 24.6697V20.0041C18.6714 19.2678 19.2679 18.671 20.0044 18.671C20.7406 18.671 21.3374 19.2678 21.3374 20.0041V24.6697C21.3374 25.0378 21.6356 25.3363 22.004 25.3363H24.0036V28.0024H22.004ZM38.6673 36.6673C38.6673 37.7716 37.7719 38.6669 36.6677 38.6669H3.34114C2.23655 38.6669 1.34155 37.7716 1.34155 36.6673V16.6714C1.34155 15.5672 2.23655 14.6718 3.34114 14.6718H24.0036V24.0033H22.6705V20.0041C22.6705 18.5317 21.4768 17.3379 20.0044 17.3379C18.5317 17.3379 17.3383 18.5317 17.3383 20.0041V24.0033H12.006V20.0041C12.006 18.5317 10.8123 17.3379 9.33994 17.3379C7.86723 17.3379 6.67379 18.5317 6.67379 20.0041V34.0012C6.67379 35.4736 7.86723 36.6673 9.33994 36.6673C10.8123 36.6673 12.006 35.4736 12.006 34.0012V29.3355H17.3383V34.0012C17.3383 35.4736 18.5317 36.6673 20.0044 36.6673C21.4768 36.6673 22.6705 35.4736 22.6705 34.0012V29.3355H28.0028V34.0012C28.0028 35.4736 29.1962 36.6673 30.6689 36.6673C32.1413 36.6673 33.335 35.4736 33.335 34.0012V20.0041C33.335 18.5317 32.1413 17.3379 30.6689 17.3379C30.1993 17.3408 29.7391 17.4688 29.3359 17.7086V14.6718H36.6677C37.7719 14.6718 38.6673 15.5672 38.6673 16.6714V36.6673Z" fill="black"/>
</g>
</g>
<defs>
<clipPath id="clip0_114_293">
<rect width="40" height="40" fill="white"/>
</clipPath>
</defs>
</svg>
