<svg width="40" height="40" viewBox="0 0 40 40" fill="none" xmlns="http://www.w3.org/2000/svg">
<g clip-path="url(#clip0_114_92)">
<mask id="mask0_114_92" style="mask-type:luminance" maskUnits="userSpaceOnUse" x="0" y="0" width="40" height="40">
<path d="M40 0H0V40H40V0Z" fill="white"/>
</mask>
<g mask="url(#mask0_114_92)">
<path d="M27.892 29.1406C26.5245 29.1406 25.412 30.2531 25.412 31.6206C25.412 32.9881 26.5245 34.1006 27.892 34.1006C29.2594 34.1006 30.3719 32.9881 30.3719 31.6206C30.3719 30.2531 29.2594 29.1406 27.892 29.1406ZM27.892 32.9288C27.1707 32.9288 26.5839 32.3419 26.5839 31.6206C26.5839 30.8994 27.1707 30.3125 27.892 30.3125C28.6133 30.3125 29.2 30.8994 29.2 31.6206C29.2 32.3419 28.6132 32.9288 27.892 32.9288Z" fill="black"/>
<path d="M39.4142 31.9029H34.7852C34.789 31.8092 34.7915 31.7152 34.7915 31.6207C34.7915 27.8164 31.6964 24.7213 27.8921 24.7213C24.0877 24.7213 20.9926 27.8164 20.9926 31.6207C20.9926 31.7152 20.995 31.8093 20.9989 31.9029H19.6392V30.5946C19.6392 29.9234 19.0932 29.3774 18.422 29.3774H11.2736V24.5008C11.2736 24.381 11.3166 24.2651 11.3954 24.1742L11.9836 23.4923C12.4725 22.928 12.5256 22.099 12.1126 21.4761L11.4907 20.5386C11.4 20.4017 11.3819 20.2294 11.4428 20.0773L11.8925 18.9508C11.9314 18.8537 11.9979 18.7726 12.0853 18.7163L12.6901 18.3256C12.9243 18.1742 13.1183 17.9648 13.2504 17.7212C13.3836 17.4769 13.454 17.2005 13.454 16.9219C13.454 16.6466 13.6779 16.4226 13.9532 16.4226H21.5782C21.7773 16.4226 21.9627 16.3216 22.0706 16.1544L27.4518 7.81373C27.9274 7.07664 28.7349 6.63672 29.6118 6.63672H32.3572C32.6808 6.63672 32.9431 6.37445 32.9431 6.05078C32.9431 5.72711 32.6808 5.46484 32.3572 5.46484H29.6118C28.335 5.46484 27.1594 6.10539 26.4672 7.17844L21.259 15.2508H13.9532C13.0318 15.2508 12.2822 16.0005 12.2822 16.9219C12.2822 17.0051 12.2612 17.0876 12.221 17.1614C12.1815 17.2341 12.1238 17.2965 12.0541 17.3415L11.4498 17.7319C11.1576 17.9202 10.9345 18.1911 10.8043 18.5157L10.3544 19.6428C10.151 20.1519 10.2107 20.729 10.5142 21.1865L11.136 22.1238C11.2591 22.3097 11.2435 22.5569 11.0971 22.7259L10.5086 23.4081C10.2462 23.7114 10.1017 24.0995 10.1017 24.5008V29.3774H9.74075C9.06958 29.3774 8.52356 29.9234 8.52356 30.5946V32.6469C8.52356 33.3181 9.06958 33.8641 9.74075 33.8641H11.3471C11.6707 33.8641 11.933 33.6019 11.933 33.2782C11.933 32.9545 11.6707 32.6923 11.3471 32.6923H9.74075C9.71575 32.6923 9.69543 32.6719 9.69543 32.6469V30.5946C9.69543 30.5696 9.71575 30.5493 9.74075 30.5493H18.422C18.447 30.5493 18.4673 30.5696 18.4673 30.5946V32.6469C18.4673 32.6719 18.447 32.6923 18.422 32.6923H14.0814C13.7577 32.6923 13.4954 32.9545 13.4954 33.2782C13.4954 33.6019 13.7577 33.8641 14.0814 33.8641H18.422C18.9425 33.8641 19.3864 33.5352 19.56 33.0748H21.1472C21.8168 36.1832 24.5864 38.5201 27.892 38.5201C31.1976 38.5201 33.9672 36.1832 34.6368 33.0748H39.4142C39.7379 33.0748 40.0001 32.8125 40.0001 32.4888C40.0001 32.1651 39.7379 31.9029 39.4142 31.9029ZM27.8921 37.3483C24.7339 37.3483 22.1645 34.7789 22.1645 31.6208C22.1645 28.4626 24.734 25.8933 27.8921 25.8933C31.0502 25.8933 33.6196 28.4626 33.6196 31.6208C33.6196 34.7789 31.0502 37.3483 27.8921 37.3483Z" fill="black"/>
<path d="M39.414 17.0229H30.2484C29.9247 17.0229 29.6625 17.2852 29.6625 17.6089C29.6625 17.9326 29.9247 18.1948 30.2484 18.1948H39.414C39.7377 18.1948 40 17.9326 40 17.6089C40 17.2852 39.7377 17.0229 39.414 17.0229Z" fill="black"/>
<path d="M39.4142 7.99072H29.6119C29.1969 7.99072 28.8148 8.19893 28.5891 8.54807L24.2926 15.2072C24.0997 15.5069 23.9978 15.8532 23.9978 16.2086V16.9774C23.9978 17.6485 24.5438 18.1946 25.215 18.1946H27.5142C27.8379 18.1946 28.1001 17.9323 28.1001 17.6086C28.1001 17.2849 27.8379 17.0227 27.5142 17.0227H25.215C25.1896 17.0227 25.1697 17.0028 25.1697 16.9774V16.2086C25.1697 16.0785 25.2071 15.9515 25.2776 15.842L29.5735 9.18377C29.5826 9.16971 29.5955 9.1626 29.6119 9.1626H39.4142C39.7379 9.1626 40.0001 8.90033 40.0001 8.57666C40.0001 8.25299 39.7379 7.99072 39.4142 7.99072Z" fill="black"/>
<path d="M35.3104 20.7276H37.8358C38.1595 20.7276 38.4218 20.4654 38.4218 20.1417C38.4218 19.818 38.1595 19.5557 37.8358 19.5557H35.3104C34.9868 19.5557 34.7245 19.818 34.7245 20.1417C34.7245 20.4654 34.9868 20.7276 35.3104 20.7276Z" fill="black"/>
<path d="M35.0916 6.63672H39.4142C39.7379 6.63672 40.0001 6.37445 40.0001 6.05078C40.0001 5.72711 39.7379 5.46484 39.4142 5.46484H35.0916C34.7679 5.46484 34.5056 5.72711 34.5056 6.05078C34.5056 6.37445 34.7679 6.63672 35.0916 6.63672Z" fill="black"/>
<path d="M9.41258 9.47323C9.64992 9.7105 9.96164 9.82917 10.2734 9.82917C10.5851 9.82917 10.8968 9.7105 11.1342 9.47323L12.9198 7.68756C13.1498 7.45771 13.2764 7.15201 13.2764 6.82678C13.2764 6.50154 13.1498 6.19592 12.9199 5.96592L8.79047 1.83646C8.56055 1.60662 8.25484 1.47998 7.92961 1.47998C7.60438 1.47998 7.29875 1.60662 7.06883 1.83646L5.28313 3.62217C4.80852 4.09678 4.80852 4.86912 5.28313 5.34373L6.04062 6.10123L0.541406 11.6004C0.192344 11.9496 0 12.4139 0 12.9077C0 13.4015 0.192344 13.8658 0.541484 14.2148C0.890625 14.564 1.35484 14.7564 1.84867 14.7564C2.34242 14.7564 2.80672 14.564 3.15578 14.2149L8.65508 8.71565L9.41258 9.47323ZM6.1118 4.45092L7.8975 2.66514C7.90078 2.66186 7.91078 2.65186 7.92953 2.65186C7.94836 2.65186 7.95836 2.66186 7.96164 2.66521L12.0911 6.79467C12.0945 6.79795 12.1045 6.80795 12.1045 6.82678C12.1045 6.84553 12.0945 6.85553 12.0911 6.85881L10.3054 8.64448C10.2877 8.66229 10.2589 8.66214 10.2412 8.64448L6.1118 4.51506C6.09406 4.49732 6.09406 4.46857 6.1118 4.45092ZM2.32711 13.3863C2.1993 13.5141 2.02938 13.5845 1.84867 13.5845C1.66789 13.5845 1.49797 13.5141 1.37008 13.3862C1.24227 13.2584 1.17188 13.0885 1.17188 12.9077C1.17188 12.727 1.24227 12.557 1.37016 12.4292L6.86938 6.92998L7.82641 7.88698L2.32711 13.3863Z" fill="black"/>
<path d="M7.45128 13.883C7.22246 14.1119 7.22246 14.4828 7.45128 14.7117L8.34414 15.6046C8.4586 15.7189 8.6086 15.7761 8.75852 15.7761C8.90844 15.7761 9.05844 15.7189 9.17289 15.6046C9.40172 15.3756 9.40172 15.0047 9.17289 14.7759L8.28 13.883C8.0511 13.6542 7.68019 13.6542 7.45128 13.883Z" fill="black"/>
<path d="M10.3625 13.2998V14.5625C10.3625 14.8861 10.6248 15.1484 10.9485 15.1484C11.2722 15.1484 11.5344 14.8861 11.5344 14.5625V13.2998C11.5344 12.9761 11.2722 12.7139 10.9485 12.7139C10.6248 12.7139 10.3625 12.9762 10.3625 13.2998Z" fill="black"/>
<path d="M8.71687 17.3799C8.71687 17.0562 8.45461 16.7939 8.13093 16.7939H6.86829C6.54461 16.7939 6.28235 17.0562 6.28235 17.3799C6.28235 17.7036 6.54461 17.9658 6.86829 17.9658H8.13093C8.45461 17.9658 8.71687 17.7035 8.71687 17.3799Z" fill="black"/>
<path d="M13.4799 26.262C13.5919 26.3625 13.7318 26.4121 13.8713 26.4121C14.0318 26.4121 14.1917 26.3465 14.3074 26.2177L15.4913 24.8997C15.6259 24.75 15.8184 24.664 16.0199 24.664H17.0166C17.5195 24.664 17.9921 24.4682 18.3476 24.1127L19.1192 23.3411C19.3481 23.1121 19.3481 22.7412 19.1192 22.5124C18.8903 22.2836 18.5194 22.2836 18.2906 22.5124L17.5189 23.2841C17.3848 23.4183 17.2064 23.4921 17.0166 23.4921H16.0199C15.4864 23.4921 14.976 23.7197 14.6195 24.1166L13.4356 25.4346C13.2193 25.6754 13.2391 26.0458 13.4799 26.262Z" fill="black"/>
<path d="M16.2275 22.1732C16.7302 22.1732 17.2028 21.9774 17.5585 21.622L18.3301 20.8503C18.559 20.6214 18.559 20.2505 18.3301 20.0217C18.1012 19.7929 17.7303 19.7929 17.5015 20.0217L16.7299 20.7933C16.5957 20.9274 16.4172 21.0013 16.2275 21.0013H14.6527C14.329 21.0013 14.0668 21.2636 14.0668 21.5873C14.0668 21.911 14.329 22.1732 14.6527 22.1732H16.2275Z" fill="black"/>
</g>
</g>
<defs>
<clipPath id="clip0_114_92">
<rect width="40" height="40" fill="white"/>
</clipPath>
</defs>
</svg>
