<svg width="40" height="40" viewBox="0 0 40 40" fill="none" xmlns="http://www.w3.org/2000/svg">
<g clip-path="url(#clip0_114_2)">
<mask id="mask0_114_2" style="mask-type:luminance" maskUnits="userSpaceOnUse" x="0" y="0" width="40" height="40">
<path d="M40 0H0V40H40V0Z" fill="white"/>
</mask>
<g mask="url(#mask0_114_2)">
<path d="M20.4757 9.95801C15.1581 9.95801 10.8319 14.2843 10.8319 19.6018C10.8319 21.9243 11.6693 24.1682 13.1899 25.9202C13.402 26.1646 13.772 26.1907 14.0166 25.9786C14.261 25.7664 14.2871 25.3963 14.075 25.1519C12.7395 23.6132 12.004 21.6421 12.004 19.6018C12.004 14.9304 15.8043 11.13 20.4757 11.13C25.1471 11.13 28.9475 14.9305 28.9475 19.6018C28.9475 24.273 25.1471 28.0735 20.4757 28.0735C18.9189 28.0735 17.3971 27.6478 16.0751 26.8423C15.7987 26.674 15.4382 26.7615 15.2697 27.0379C15.1014 27.3143 15.1889 27.6749 15.4653 27.8432C16.9712 28.7606 18.7037 29.2454 20.4757 29.2454C25.7933 29.2454 30.1196 24.9193 30.1196 19.6017C30.1196 14.2842 25.7933 9.95801 20.4757 9.95801Z" fill="black"/>
<path d="M17.6599 19.6017C17.6599 21.1544 18.9231 22.4177 20.4758 22.4177C22.0286 22.4177 23.2918 21.1544 23.2918 19.6017C23.2918 18.0489 22.0286 16.7856 20.4758 16.7856C18.923 16.7856 17.6599 18.0489 17.6599 19.6017ZM20.4758 17.9578C21.3823 17.9578 22.1198 18.6952 22.1198 19.6017C22.1198 20.5081 21.3823 21.2456 20.4758 21.2456C19.5694 21.2456 18.8319 20.5081 18.8319 19.6017C18.8319 18.6952 19.5694 17.9578 20.4758 17.9578Z" fill="black"/>
<path d="M13.8245 11.13C14.1482 11.13 14.4106 10.8677 14.4106 10.544C14.4106 10.2204 14.1482 9.95801 13.8245 9.95801C13.5009 9.95801 13.2385 10.2204 13.2385 10.544C13.2385 10.8677 13.5009 11.13 13.8245 11.13Z" fill="black"/>
<path d="M15.9571 35.0452C16.2808 35.0452 16.5431 34.7827 16.5431 34.4591C16.5431 34.1355 16.2808 33.873 15.9571 33.873C15.6334 33.873 15.3711 34.1355 15.3711 34.4591C15.3711 34.7827 15.6334 35.0452 15.9571 35.0452Z" fill="black"/>
<path d="M15.9571 32.7609C16.2808 32.7609 16.5431 32.4986 16.5431 32.1749C16.5431 31.8512 16.2808 31.5889 15.9571 31.5889C15.6334 31.5889 15.3711 31.8512 15.3711 32.1749C15.3711 32.4986 15.6334 32.7609 15.9571 32.7609Z" fill="black"/>
<path d="M15.9571 30.4767C16.2808 30.4767 16.5431 30.2144 16.5431 29.8907C16.5431 29.567 16.2808 29.3047 15.9571 29.3047C15.6334 29.3047 15.3711 29.567 15.3711 29.8907C15.3711 30.2144 15.6334 30.4767 15.9571 30.4767Z" fill="black"/>
<path d="M31.0831 31.5295C31.4068 31.5295 31.6692 31.2671 31.6692 30.9434C31.6692 30.6198 31.4068 30.3574 31.0831 30.3574C30.7595 30.3574 30.4971 30.6198 30.4971 30.9434C30.4971 31.2671 30.7595 31.5295 31.0831 31.5295Z" fill="black"/>
<path d="M29.1051 30.3874C29.4287 30.3874 29.6911 30.125 29.6911 29.8013C29.6911 29.4777 29.4287 29.2153 29.1051 29.2153C28.7814 29.2153 28.519 29.4777 28.519 29.8013C28.519 30.125 28.7814 30.3874 29.1051 30.3874Z" fill="black"/>
<path d="M27.1272 29.2453C27.4507 29.2453 27.7132 28.9829 27.7132 28.6593C27.7132 28.3356 27.4507 28.0732 27.1272 28.0732C26.8035 28.0732 26.5411 28.3356 26.5411 28.6593C26.5411 28.9829 26.8035 29.2453 27.1272 29.2453Z" fill="black"/>
<path d="M35.3331 24.7063C35.6568 24.7063 35.9191 24.4439 35.9191 24.1202C35.9191 23.7966 35.6568 23.5342 35.3331 23.5342C35.0094 23.5342 34.7471 23.7966 34.7471 24.1202C34.7471 24.4439 35.0094 24.7063 35.3331 24.7063Z" fill="black"/>
<path d="M33.0489 24.7063C33.3725 24.7063 33.6349 24.4439 33.6349 24.1202C33.6349 23.7966 33.3725 23.5342 33.0489 23.5342C32.7252 23.5342 32.4628 23.7966 32.4628 24.1202C32.4628 24.4439 32.7252 24.7063 33.0489 24.7063Z" fill="black"/>
<path d="M30.7648 24.7063C31.0885 24.7063 31.3509 24.4439 31.3509 24.1203C31.3509 23.7966 31.0885 23.5342 30.7648 23.5342C30.4412 23.5342 30.1788 23.7966 30.1788 24.1203C30.1788 24.4439 30.4412 24.7063 30.7648 24.7063Z" fill="black"/>
<path d="M31.8177 9.58023C32.1414 9.58023 32.4037 9.31789 32.4037 8.99422C32.4037 8.67055 32.1414 8.4082 31.8177 8.4082C31.494 8.4082 31.2317 8.67055 31.2317 8.99422C31.2317 9.31789 31.494 9.58023 31.8177 9.58023Z" fill="black"/>
<path d="M30.6755 11.5583C30.9991 11.5583 31.2615 11.2959 31.2615 10.9723C31.2615 10.6487 30.9991 10.3862 30.6755 10.3862C30.3518 10.3862 30.0895 10.6487 30.0895 10.9723C30.0895 11.2959 30.3518 11.5583 30.6755 11.5583Z" fill="black"/>
<path d="M29.5335 13.5363C29.8571 13.5363 30.1195 13.2739 30.1195 12.9503C30.1195 12.6266 29.8571 12.3643 29.5335 12.3643C29.2098 12.3643 28.9474 12.6266 28.9474 12.9503C28.9474 13.2739 29.2098 13.5363 29.5335 13.5363Z" fill="black"/>
<path d="M25.0851 5.32706C25.4046 5.27527 25.6215 4.97433 25.5698 4.65488C25.518 4.33543 25.2171 4.11845 24.8976 4.17024C24.5781 4.22202 24.3611 4.52296 24.4129 4.84241C24.4647 5.16186 24.7656 5.37884 25.0851 5.32706Z" fill="black"/>
<path d="M24.9943 7.61445C25.318 7.61445 25.5804 7.35207 25.5804 7.02841C25.5804 6.70476 25.318 6.44238 24.9943 6.44238C24.6707 6.44238 24.4083 6.70476 24.4083 7.02841C24.4083 7.35207 24.6707 7.61445 24.9943 7.61445Z" fill="black"/>
<path d="M24.9943 9.89867C25.318 9.89867 25.5804 9.63625 25.5804 9.31258C25.5804 8.98898 25.318 8.72656 24.9943 8.72656C24.6707 8.72656 24.4083 8.98898 24.4083 9.31258C24.4083 9.63625 24.6707 9.89867 24.9943 9.89867Z" fill="black"/>
<path d="M19.5376 8.93906C19.8179 8.77719 19.9139 8.41883 19.752 8.13851L17.4681 4.18229C17.3063 3.90201 16.9478 3.8059 16.6676 3.9678C16.3873 4.12962 16.2913 4.48804 16.4531 4.76832L18.737 8.72453C18.8994 9.00578 19.258 9.10047 19.5376 8.93906Z" fill="black"/>
<path d="M36.1095 15.7931C35.9477 15.5128 35.5893 15.4168 35.3089 15.5786L31.3527 17.8626C31.0724 18.0244 30.9763 18.3828 31.1382 18.6631C31.3001 18.9436 31.6585 19.0393 31.9387 18.8776L35.8949 16.5936C36.1752 16.4319 36.2712 16.0735 36.1095 15.7931Z" fill="black"/>
<path d="M21.414 30.2641C21.1338 30.426 21.0378 30.7844 21.1996 31.0647L23.4835 35.0209C23.6454 35.3014 24.0038 35.3971 24.284 35.2354C24.5643 35.0736 24.6603 34.7152 24.4985 34.4349L22.2146 30.4787C22.0528 30.1984 21.6944 30.1023 21.414 30.2641Z" fill="black"/>
<path d="M22.1692 13.9576C22.1692 13.0238 21.4095 12.2642 20.4757 12.2642C19.542 12.2642 18.7823 13.0238 18.7823 13.9576C18.7823 14.8913 19.542 15.651 20.4757 15.651C21.4095 15.651 22.1692 14.8913 22.1692 13.9576ZM19.9543 13.9576C19.9543 13.6701 20.1883 13.4363 20.4756 13.4363C20.7632 13.4363 20.997 13.6701 20.997 13.9576C20.997 14.245 20.7632 14.4789 20.4756 14.4789C20.1883 14.4789 19.9543 14.245 19.9543 13.9576Z" fill="black"/>
<path d="M17.2814 16.7799C17.2814 15.846 16.5218 15.0864 15.588 15.0864C14.6543 15.0864 13.8947 15.846 13.8947 16.7799C13.8947 17.7136 14.6543 18.4732 15.588 18.4732C16.5218 18.4732 17.2814 17.7136 17.2814 16.7799ZM15.0667 16.7799C15.0667 16.4924 15.3005 16.2585 15.588 16.2585C15.8754 16.2585 16.1093 16.4924 16.1093 16.7799C16.1093 17.0673 15.8754 17.3012 15.588 17.3012C15.3005 17.3012 15.0667 17.0673 15.0667 16.7799Z" fill="black"/>
<path d="M15.6113 24.1309C16.5451 24.1309 17.3047 23.3713 17.3047 22.4375C17.3047 21.5038 16.5451 20.7441 15.6113 20.7441C14.6775 20.7441 13.9178 21.5038 13.9178 22.4375C13.9178 23.3713 14.6775 24.1309 15.6113 24.1309ZM15.6113 21.9162C15.8987 21.9162 16.1327 22.15 16.1327 22.4375C16.1327 22.7249 15.8987 22.9588 15.6113 22.9588C15.3238 22.9588 15.09 22.7249 15.09 22.4375C15.09 22.15 15.3238 21.9162 15.6113 21.9162Z" fill="black"/>
<path d="M25.3635 18.4732C26.2972 18.4732 27.0568 17.7136 27.0568 16.7799C27.0568 15.846 26.2972 15.0864 25.3635 15.0864C24.4297 15.0864 23.67 15.846 23.67 16.7799C23.67 17.7135 24.4297 18.4732 25.3635 18.4732ZM25.3635 16.2584C25.6509 16.2584 25.8848 16.4923 25.8848 16.7798C25.8848 17.0672 25.6509 17.3011 25.3635 17.3011C25.0759 17.3011 24.8421 17.0672 24.8421 16.7798C24.8421 16.4923 25.0759 16.2584 25.3635 16.2584Z" fill="black"/>
<path d="M25.34 24.1309C26.2738 24.1309 27.0335 23.3713 27.0335 22.4375C27.0335 21.5038 26.2738 20.7441 25.34 20.7441C24.4063 20.7441 23.6466 21.5038 23.6466 22.4375C23.6466 23.3713 24.4063 24.1309 25.34 24.1309ZM25.34 21.9162C25.6276 21.9162 25.8615 22.15 25.8615 22.4375C25.8615 22.7249 25.6276 22.9588 25.34 22.9588C25.0525 22.9588 24.8186 22.7249 24.8186 22.4375C24.8186 22.15 25.0525 21.9162 25.34 21.9162Z" fill="black"/>
<path d="M18.7823 25.2456C18.7823 26.1794 19.542 26.939 20.4757 26.939C21.4095 26.939 22.1692 26.1794 22.1692 25.2456C22.1692 24.3119 21.4095 23.5522 20.4757 23.5522C19.542 23.5522 18.7823 24.3119 18.7823 25.2456ZM20.9972 25.2456C20.9972 25.5331 20.7634 25.7669 20.4758 25.7669C20.1884 25.7669 19.9545 25.5331 19.9545 25.2456C19.9545 24.9582 20.1884 24.7243 20.4758 24.7243C20.7634 24.7243 20.9972 24.9582 20.9972 25.2456Z" fill="black"/>
<path d="M39.7615 28.9177L37.8391 26.9953C37.7027 26.8589 37.5264 26.7767 37.3366 26.7597C38.2921 24.5091 38.7892 22.0782 38.7892 19.6017C38.7892 17.1296 38.3049 14.7312 37.3498 12.4731C37.2237 12.1749 36.8799 12.0356 36.5817 12.1616C36.2838 12.2877 36.1441 12.6315 36.2704 12.9296C37.1641 15.0426 37.6171 17.2874 37.6171 19.6017C37.6171 22.8046 36.7291 25.9256 35.0484 28.6321L30.7826 32.8978L28.6053 30.7205C28.4511 30.5663 28.2462 30.4813 28.0282 30.4813C27.8104 30.4813 27.6055 30.5662 27.4513 30.7204L25.5288 32.6428C25.2109 32.9609 25.2109 33.4785 25.5288 33.7966L27.1346 35.4022C25.0295 36.2924 22.7934 36.7431 20.4756 36.7431C17.2525 36.7431 14.1242 35.8478 11.4076 34.1509V25.2383C11.4076 24.9272 11.3324 24.6161 11.1902 24.3385C10.4341 22.8624 10.0505 21.2688 10.0505 19.6017C10.0505 17.9345 10.4341 16.3408 11.1902 14.8646C11.3323 14.5871 11.4076 14.276 11.4076 13.965V9.79017C11.5149 9.91142 11.6716 9.98782 11.8463 9.98782C12.1699 9.98782 12.4323 9.7254 12.4323 9.40181C12.4323 9.07814 12.1699 8.81571 11.8463 8.81571C11.6716 8.81571 11.5149 8.89212 11.4076 9.01337V8.98189C11.4076 8.65821 11.1452 8.39587 10.8215 8.39587C10.4979 8.39587 10.2355 8.65821 10.2355 8.98189V13.965C10.2355 14.0911 10.2049 14.2174 10.1471 14.3302C9.30523 15.9733 8.87852 17.7469 8.87852 19.6016C8.87852 21.4563 9.30523 23.2299 10.1471 24.8728C10.2049 24.9857 10.2355 25.1121 10.2355 25.2381C10.2355 25.0186 10.2355 28.327 10.2355 35.2671C10.2355 35.4752 10.093 35.5731 10.0317 35.6055C9.97023 35.638 9.80844 35.701 9.63586 35.5836C7.52132 34.1465 5.73682 32.3351 4.332 30.1997C3.67924 29.2075 3.33427 28.05 3.33427 26.8526V23.3119C3.33427 22.1617 2.7741 21.0763 1.83575 20.4085C1.42014 20.1129 1.17205 19.6324 1.17205 19.1231C1.17205 18.6139 1.42014 18.1334 1.83583 17.8377C2.7741 17.1699 3.33434 16.0845 3.33434 14.9343V12.3505C3.33434 11.153 3.6794 9.99564 4.33208 9.00345C5.7369 6.86794 7.5214 5.05657 9.63594 3.61947C9.80859 3.50203 9.97039 3.56509 10.0318 3.59759C10.093 3.6301 10.2355 3.72793 10.2355 3.936C10.235 6.22339 10.2355 4.37646 10.2355 6.24707C10.2355 6.57071 10.498 6.83309 10.8216 6.83309C11.1452 6.83309 11.4077 6.57071 11.4077 6.24707V5.05235C14.1243 3.35545 17.2526 2.46007 20.4757 2.46007C26.4327 2.46007 31.8739 5.48156 35.0307 10.5426C35.2013 10.8159 35.5621 10.9017 35.8381 10.7297C36.1127 10.5584 36.1965 10.197 36.0252 9.92236C34.4093 7.33176 32.1526 5.16682 29.4986 3.66151C23.9863 0.534776 17.0677 0.447106 11.3894 3.69784C11.3153 3.2166 11.0194 2.79434 10.5802 2.56181C10.0693 2.29138 9.45516 2.32521 8.97711 2.65011C6.73479 4.17401 4.84255 6.09486 3.35286 8.35923C2.57391 9.54329 2.16221 10.9234 2.16221 12.3506V14.9344C2.16221 15.7062 1.78613 16.4345 1.1562 16.8828C0.432254 17.398 0 18.2355 0 19.1231C0 20.0107 0.432254 20.8483 1.1562 21.3635C1.78613 21.8118 2.16221 22.5402 2.16221 23.312V26.8527C2.16221 28.2798 2.57391 29.6599 3.35286 30.844C4.84255 33.1084 6.73479 35.0292 8.97711 36.5531C9.24062 36.7322 9.54547 36.8229 9.85164 36.8229C10.6075 36.8229 11.2712 36.2734 11.3894 35.5054C14.1483 37.0849 17.2682 37.9151 20.4757 37.9151C23.1115 37.9151 25.6489 37.3692 28.0244 36.2919L30.2057 38.4731C30.3598 38.6273 30.5647 38.7122 30.7827 38.7122C31.0006 38.7122 31.2055 38.6273 31.3596 38.4732L39.7615 30.0713C40.0795 29.7534 40.0795 29.2357 39.7615 28.9177ZM30.7827 37.3926L28.5708 35.1807C28.5654 35.1752 28.56 35.1697 28.5545 35.1644L26.6097 33.2196L28.0283 31.8009L30.2057 33.9783C30.3598 34.1324 30.5647 34.2174 30.7827 34.2174C31.0006 34.2174 31.2055 34.1324 31.3596 33.9784C36.0376 29.3004 35.9247 29.4136 35.9325 29.4055L37.2622 28.0758L38.6808 29.4945L30.7827 37.3926Z" fill="black"/>
<path d="M9.19735 26.018C9.48547 25.8703 9.5993 25.5173 9.45172 25.2292C8.56547 23.4995 8.09711 21.5535 8.09711 19.6016C8.09711 17.6497 8.56555 15.7037 9.45172 13.974C9.5993 13.6859 9.48547 13.3328 9.19735 13.1852C8.90938 13.0376 8.55617 13.1515 8.4086 13.4396C7.43802 15.3339 6.92505 17.4648 6.92505 19.6016C6.92505 21.7385 7.43802 23.8693 8.40867 25.7636C8.55547 26.0503 8.90805 26.1663 9.19735 26.018Z" fill="black"/>
<path d="M2.521 19.1229C2.521 20.1217 3.33362 20.9343 4.33245 20.9343C5.33128 20.9343 6.14382 20.1217 6.14382 19.1229C6.14382 18.124 5.33128 17.3115 4.33245 17.3115C3.33362 17.3115 2.521 18.1241 2.521 19.1229ZM4.97177 19.1229C4.97177 19.4754 4.685 19.7623 4.33245 19.7623C3.97989 19.7623 3.69305 19.4754 3.69305 19.1229C3.69305 18.7704 3.97989 18.4836 4.33245 18.4836C4.685 18.4836 4.97177 18.7704 4.97177 19.1229Z" fill="black"/>
<path d="M8.09705 10.2195C8.09705 9.35775 7.396 8.65674 6.5343 8.65674C5.6726 8.65674 4.97156 9.35775 4.97156 10.2195C4.97156 11.0811 5.6726 11.7822 6.5343 11.7822C7.396 11.7822 8.09705 11.081 8.09705 10.2195ZM6.14361 10.2195C6.14361 10.004 6.31888 9.82877 6.5343 9.82877C6.74972 9.82877 6.92499 10.004 6.92499 10.2195C6.92499 10.4349 6.74972 10.6102 6.5343 10.6102C6.31888 10.6102 6.14361 10.4349 6.14361 10.2195Z" fill="black"/>
<path d="M6.5343 29.5893C7.396 29.5893 8.09705 28.8883 8.09705 28.0266C8.09705 27.165 7.396 26.4639 6.5343 26.4639C5.6726 26.4639 4.97156 27.165 4.97156 28.0266C4.97156 28.8883 5.6726 29.5893 6.5343 29.5893ZM6.5343 27.636C6.74972 27.636 6.92499 27.8112 6.92499 28.0266C6.92499 28.2421 6.74972 28.4173 6.5343 28.4173C6.31888 28.4173 6.14361 28.2421 6.14361 28.0266C6.14361 27.8112 6.31888 27.636 6.5343 27.636Z" fill="black"/>
</g>
</g>
<defs>
<clipPath id="clip0_114_2">
<rect width="40" height="40" fill="white"/>
</clipPath>
</defs>
</svg>
