<svg width="40" height="40" viewBox="0 0 40 40" fill="none" xmlns="http://www.w3.org/2000/svg">
<g clip-path="url(#clip0_114_216)">
<path d="M34.1422 5.85781C30.3646 2.08031 25.3422 0 20 0C15.9352 0 12.0215 1.21367 8.68219 3.50969C8.32664 3.75414 8.23664 4.24055 8.48109 4.59609C8.72562 4.95156 9.21187 5.04156 9.5675 4.79719C12.6452 2.68102 16.2527 1.5625 20 1.5625C30.1665 1.5625 38.4375 9.83352 38.4375 20C38.4375 30.1665 30.1665 38.4375 20 38.4375C9.83352 38.4375 1.5625 30.1665 1.5625 20C1.5625 16.2522 2.68094 12.6448 4.7968 9.56805C5.04125 9.2125 4.95125 8.72609 4.59578 8.48164C4.24023 8.23727 3.75391 8.32711 3.50937 8.68266C1.21352 12.0212 0 15.9347 0 20C0 25.3422 2.08031 30.3646 5.85781 34.1422C9.63539 37.9197 14.6578 40 20 40C25.3422 40 30.3646 37.9197 34.1422 34.1422C37.9197 30.3646 40 25.3422 40 20C40 14.6578 37.9197 9.63539 34.1422 5.85781Z" fill="black"/>
<path d="M20 36.0938C28.8741 36.0938 36.0938 28.8741 36.0938 20C36.0938 18.156 35.7811 16.3839 35.2076 14.7327C35.2059 14.7284 35.2047 14.724 35.203 14.7198C33.0127 8.43141 27.0253 3.90625 20 3.90625C11.1259 3.90625 3.90625 11.1259 3.90625 20C3.90625 28.8741 11.1259 36.0938 20 36.0938ZM34.5312 20C34.5312 20.3738 34.517 20.7445 34.4891 21.1112C33.6691 21.1541 32.8696 21.2759 32.0977 21.4682C32.3513 19.3289 32.0323 17.1341 31.184 15.1609C32.0848 15.3148 32.9821 15.4873 33.8751 15.6782C34.3014 17.044 34.5312 18.4956 34.5312 20ZM29.3034 14.867C30.491 17.0208 30.8966 19.583 30.4347 22.008C26.8686 23.4471 24.1034 26.4653 23.0099 30.1918C21.0547 30.7673 18.9452 30.7673 16.99 30.1918C15.8966 26.4654 13.1314 23.4471 9.56531 22.008C9.10344 19.5833 9.50922 17.0205 10.6965 14.8671C13.7773 14.4312 16.8905 14.2098 20 14.2098C23.1095 14.2098 26.2225 14.4311 29.3034 14.867ZM7.90219 21.4682C7.13031 21.2759 6.33094 21.1541 5.51086 21.1112C5.48297 20.7445 5.46875 20.3738 5.46875 20C5.46875 18.4956 5.69859 17.044 6.12492 15.6782C7.01789 15.4873 7.91516 15.3148 8.81602 15.1609C7.96789 17.1341 7.64867 19.3291 7.90219 21.4682ZM5.71953 22.6907C11.4288 23.1387 15.9375 27.9276 15.9375 33.75C15.9375 33.8171 15.9363 33.8845 15.935 33.9518C10.7357 32.4345 6.73336 28.0835 5.71953 22.6907ZM17.4869 34.3131C17.4952 34.1251 17.5 33.937 17.5 33.7499C17.5 33.1217 17.4533 32.5043 17.3645 31.9004C18.23 32.0906 19.1148 32.1862 20 32.1862C20.8849 32.1862 21.7699 32.0906 22.6355 31.9004C22.5467 32.5043 22.5 33.1217 22.5 33.75C22.5 33.937 22.5048 34.1252 22.5131 34.3132C21.6966 34.4561 20.857 34.5312 20 34.5312C19.1431 34.5312 18.3035 34.4561 17.4869 34.3131ZM24.065 33.9518C24.0638 33.8845 24.0625 33.817 24.0625 33.75C24.0625 27.9277 28.5712 23.1387 34.2805 22.6908C33.2666 28.0835 29.2643 32.4345 24.065 33.9518ZM20 5.46875C25.853 5.46875 30.9081 8.9475 33.2083 13.9456C28.8644 13.0847 24.4285 12.6473 19.9999 12.6473C15.5713 12.6473 11.1354 13.0848 6.79164 13.9457C9.09187 8.94742 14.147 5.46875 20 5.46875Z" fill="black"/>
<path d="M16.0938 20C16.0938 22.1539 17.8461 23.9062 20 23.9062C22.1539 23.9062 23.9062 22.1539 23.9062 20C23.9062 17.8461 22.1539 16.0938 20 16.0938C17.8461 16.0938 16.0938 17.8461 16.0938 20ZM20 17.6562C21.2923 17.6562 22.3438 18.7077 22.3438 20C22.3438 21.2923 21.2923 22.3438 20 22.3438C18.7077 22.3438 17.6562 21.2923 17.6562 20C17.6562 18.7077 18.7077 17.6562 20 17.6562Z" fill="black"/>
<path d="M6.40989 7.19154C6.60997 7.19154 6.81005 7.11514 6.96263 6.96256C7.2677 6.65748 7.2677 6.16279 6.96263 5.85771C6.65755 5.55264 6.16294 5.55264 5.85778 5.85771L5.85739 5.85811C5.55231 6.16318 5.55247 6.65764 5.85755 6.96271C6.01005 7.11537 6.20997 7.19154 6.40989 7.19154Z" fill="black"/>
</g>
<defs>
<clipPath id="clip0_114_216">
<rect width="40" height="40" fill="white"/>
</clipPath>
</defs>
</svg>
