<svg width="11" height="11" viewBox="0 0 11 11" fill="none" xmlns="http://www.w3.org/2000/svg">
<path fill-rule="evenodd" clip-rule="evenodd" d="M3.28956 9.35643C3.26046 9.3274 3.23737 9.29292 3.22162 9.25495C3.20586 9.21699 3.19775 9.17629 3.19775 9.13518C3.19775 9.09408 3.20586 9.05338 3.22162 9.01541C3.23737 8.97745 3.26046 8.94296 3.28956 8.91393L6.81894 5.38518L3.28956 1.85643C3.26051 1.82738 3.23746 1.79289 3.22174 1.75492C3.20601 1.71696 3.19792 1.67627 3.19792 1.63518C3.19792 1.59409 3.20601 1.55341 3.22174 1.51544C3.23746 1.47748 3.26051 1.44299 3.28956 1.41393C3.31862 1.38488 3.35311 1.36183 3.39107 1.34611C3.42903 1.33038 3.46972 1.32229 3.51081 1.32229C3.5519 1.32229 3.59259 1.33038 3.63055 1.34611C3.66851 1.36183 3.70301 1.38488 3.73206 1.41393L7.48206 5.16393C7.51116 5.19296 7.53425 5.22745 7.55001 5.26541C7.56576 5.30338 7.57387 5.34408 7.57387 5.38518C7.57387 5.42629 7.56576 5.46699 7.55001 5.50495C7.53425 5.54292 7.51116 5.57741 7.48206 5.60643L3.73206 9.35643C3.70303 9.38554 3.66855 9.40862 3.63058 9.42438C3.59262 9.44013 3.55192 9.44824 3.51081 9.44824C3.46971 9.44824 3.42901 9.44013 3.39104 9.42438C3.35308 9.40862 3.31859 9.38554 3.28956 9.35643Z" fill="black"/>
</svg>
