<svg width="40" height="40" viewBox="0 0 40 40" fill="none" xmlns="http://www.w3.org/2000/svg">
<path d="M17.4998 28.75C18.879 28.7507 20.2388 28.4253 21.4682 27.8001C22.6976 27.175 23.7617 26.268 24.5736 25.1532C25.3856 24.0383 25.9224 22.7472 26.1402 21.3853C26.3579 20.0235 26.2505 18.6293 25.8267 17.3169C25.7689 17.1685 25.6564 17.0478 25.5126 16.9794C25.3687 16.911 25.2041 16.9002 25.0525 16.9492C24.9009 16.9981 24.7737 17.103 24.6968 17.2426C24.62 17.3821 24.5994 17.5457 24.6392 17.7C25.2263 19.504 25.1109 21.4632 24.316 23.1857C23.521 24.9083 22.1053 26.2674 20.3517 26.9913C18.5981 27.7152 16.636 27.7506 14.8574 27.0903C13.0789 26.4301 11.615 25.1228 10.7586 23.43C9.90221 21.7372 9.71628 19.7835 10.2379 17.9596C10.7596 16.1356 11.9506 14.5757 13.5726 13.5917C15.1946 12.6078 17.1283 12.2724 18.987 12.6525C20.8456 13.0326 22.4924 14.1002 23.5979 15.6419C23.6946 15.7766 23.8408 15.8674 24.0043 15.8942C24.1679 15.9211 24.3355 15.882 24.4701 15.7853C24.6048 15.6887 24.6956 15.5425 24.7225 15.3789C24.7494 15.2154 24.7102 15.0478 24.6135 14.9132C23.7414 13.6924 22.5699 12.7165 21.2117 12.0791C19.8536 11.4416 18.3544 11.1641 16.8581 11.2732C15.3617 11.3822 13.9186 11.8742 12.6672 12.7018C11.4159 13.5295 10.3983 14.665 9.71237 15.9992C9.02635 17.3335 8.69502 18.8218 8.75002 20.3211C8.8051 21.8204 9.24471 23.2803 10.0267 24.5607C10.8087 25.8411 11.9068 26.8989 13.2155 27.6325C14.5242 28.3662 15.9996 28.751 17.4998 28.75Z" fill="black"/>
<path d="M23.1249 22.5002C23.2907 22.5002 23.4497 22.4343 23.5669 22.3171C23.684 22.1999 23.7499 22.0409 23.7499 21.8752V18.1252C23.7499 18.0316 23.729 17.9392 23.6885 17.8548C23.648 17.7704 23.5891 17.6962 23.5161 17.6377C23.4431 17.5791 23.3579 17.5375 23.2668 17.5159C23.1757 17.4943 23.0809 17.4932 22.9893 17.5127L21.063 17.9408L22.3968 16.4871C22.4597 16.4182 22.5065 16.3361 22.5336 16.2468C22.5607 16.1575 22.5674 16.0632 22.5533 15.971C22.5393 15.8787 22.5047 15.7908 22.4522 15.7136C22.3997 15.6365 22.3305 15.5721 22.2499 15.5252L18.9999 13.6502C18.9188 13.6033 18.8283 13.5754 18.735 13.5682C18.6416 13.5611 18.5479 13.575 18.4607 13.6089C18.3734 13.6429 18.2949 13.6961 18.231 13.7644C18.167 13.8328 18.1193 13.9146 18.0911 14.0039L17.4999 15.8864L16.9074 14.0039C16.8793 13.9148 16.8315 13.8331 16.7676 13.7649C16.7038 13.6967 16.6254 13.6436 16.5384 13.6097C16.4513 13.5757 16.3577 13.5618 16.2646 13.5688C16.1714 13.5757 16.0809 13.6036 15.9999 13.6502L12.7499 15.5252C12.6689 15.5719 12.5994 15.6364 12.5465 15.7136C12.4936 15.7908 12.4589 15.879 12.4447 15.9715C12.4304 16.064 12.4372 16.1586 12.4644 16.2481C12.4915 16.3376 12.5385 16.42 12.6018 16.4889L13.9374 17.9427L12.0111 17.5146C11.9197 17.4941 11.8248 17.4945 11.7336 17.5157C11.6422 17.5369 11.5569 17.5783 11.4838 17.637C11.4108 17.6956 11.3518 17.7699 11.3113 17.8544C11.2708 17.9389 11.2498 18.0314 11.2499 18.1252V19.2958C11.2499 19.4615 11.3158 19.6205 11.4329 19.7377C11.5502 19.855 11.7091 19.9208 11.8749 19.9208C12.0407 19.9208 12.1997 19.855 12.3169 19.7377C12.434 19.6205 12.4999 19.4615 12.4999 19.2958V18.9039L14.4493 19.3377C14.3501 19.7738 14.3501 20.2265 14.4493 20.6627L11.7393 21.2646C11.5885 21.2975 11.4551 21.385 11.3651 21.5104C11.275 21.6357 11.2344 21.7899 11.2513 21.9433C11.2681 22.0968 11.3411 22.2386 11.4563 22.3414C11.5715 22.4442 11.7205 22.5007 11.8749 22.5002C11.9207 22.5 11.9663 22.4952 12.0111 22.4858L13.9374 22.0577L12.6036 23.5114C12.5403 23.5803 12.4933 23.6625 12.4659 23.7519C12.4386 23.8414 12.4316 23.9358 12.4457 24.0283C12.4597 24.1208 12.4944 24.209 12.547 24.2864C12.5997 24.3637 12.669 24.4282 12.7499 24.4752L15.9999 26.3502C16.0949 26.405 16.2027 26.4339 16.3124 26.4339C16.39 26.4338 16.4669 26.4194 16.5393 26.3914C16.6265 26.3575 16.705 26.3043 16.7689 26.2359C16.8329 26.1675 16.8806 26.0857 16.9086 25.9964L17.4999 24.1139L18.0924 25.9964C18.1204 26.0857 18.1683 26.1675 18.2322 26.2359C18.2961 26.3043 18.3746 26.3575 18.4618 26.3914C18.5342 26.4194 18.6111 26.4338 18.6886 26.4339C18.7983 26.4339 18.9061 26.405 19.0011 26.3502L22.2511 24.4752C22.3322 24.4284 22.4017 24.3639 22.4546 24.2867C22.5074 24.2095 22.5422 24.1213 22.5565 24.0288C22.5707 23.9363 22.5639 23.8418 22.5367 23.7522C22.5095 23.6627 22.4626 23.5804 22.3993 23.5114L21.0624 22.0577L22.9886 22.4858C23.0335 22.4953 23.0791 22.5 23.1249 22.5002ZM17.4999 21.8752C17.129 21.8752 16.7665 21.7652 16.4582 21.5592C16.1499 21.3532 15.9096 21.0603 15.7676 20.7177C15.6258 20.375 15.5886 19.9981 15.6609 19.6343C15.7333 19.2707 15.9119 18.9365 16.1741 18.6743C16.4363 18.4121 16.7704 18.2336 17.1341 18.1612C17.4978 18.0889 17.8748 18.126 18.2175 18.2679C18.5601 18.4098 18.8529 18.6501 19.0589 18.9585C19.265 19.2668 19.3749 19.6293 19.3749 20.0002C19.3749 20.4975 19.1774 20.9743 18.8258 21.326C18.4741 21.6776 17.9972 21.8752 17.4999 21.8752ZM19.0505 15.1252L20.9486 16.2208L19.593 17.6989C19.2629 17.4003 18.8724 17.1761 18.448 17.0414L19.0505 15.1252ZM15.9493 15.1252L16.5518 17.0414C16.1274 17.1763 15.7369 17.4007 15.4068 17.6996L14.0505 16.2208L15.9493 15.1252ZM15.9493 24.8814L14.0505 23.7858L15.4068 22.3071C15.7369 22.6058 16.1274 22.8303 16.5518 22.9652L15.9493 24.8814ZM19.0505 24.8814L18.448 22.9652C18.8724 22.8305 19.2629 22.6063 19.593 22.3077L20.9486 23.7858L19.0505 24.8814ZM22.4999 21.0964L20.5505 20.6627C20.6497 20.2265 20.6497 19.7738 20.5505 19.3377L22.4999 18.9039V21.0964Z" fill="black"/>
<path d="M17.5 20.625C17.8452 20.625 18.125 20.3452 18.125 20C18.125 19.6548 17.8452 19.375 17.5 19.375C17.1548 19.375 16.875 19.6548 16.875 20C16.875 20.3452 17.1548 20.625 17.5 20.625Z" fill="black"/>
<path d="M38.125 6.875C38.2908 6.875 38.4498 6.80915 38.567 6.69195C38.6841 6.57473 38.75 6.41576 38.75 6.25V4.375C38.75 4.20924 38.6841 4.05027 38.567 3.93305C38.4498 3.81585 38.2908 3.75 38.125 3.75H33.125C32.9592 3.75 32.8002 3.81585 32.683 3.93305C32.5659 4.05027 32.5 4.20924 32.5 4.375V5H17.5C13.5232 5.00463 9.71055 6.58647 6.89852 9.39852C4.08647 12.2105 2.50463 16.0232 2.5 20V35H1.875C1.70924 35 1.55027 35.0659 1.43305 35.183C1.31585 35.3002 1.25 35.4592 1.25 35.625V38.125C1.25 38.2908 1.31585 38.4498 1.43305 38.567C1.55027 38.6841 1.70924 38.75 1.875 38.75H10.625C10.7908 38.75 10.9498 38.6841 11.067 38.567C11.1841 38.4498 11.25 38.2908 11.25 38.125C11.25 37.9592 11.1841 37.8002 11.067 37.683C10.9498 37.5659 10.7908 37.5 10.625 37.5H2.5V36.25H10.625C10.7908 36.25 10.9498 36.1841 11.067 36.067C11.1841 35.9498 11.25 35.7908 11.25 35.625C11.25 35.4592 11.1841 35.3002 11.067 35.183C10.9498 35.0659 10.7908 35 10.625 35H10V32.9881C12.7239 34.5648 15.875 35.2441 19.0066 34.9298C22.1382 34.6155 25.0914 33.3236 27.4477 31.237C29.804 29.1505 31.4437 26.3753 32.1346 23.3047C32.8255 20.2341 32.5324 17.0241 31.2969 14.1294C31.2317 13.9769 31.1087 13.8565 30.9548 13.7948C30.8009 13.733 30.6288 13.7348 30.4763 13.8C30.3238 13.8652 30.2034 13.9882 30.1416 14.1421C30.0798 14.296 30.0817 14.4681 30.1469 14.6206C31.3573 17.4629 31.5748 20.63 30.7645 23.611C29.9541 26.5921 28.1631 29.2133 25.6805 31.0516C23.1977 32.8899 20.1681 33.8383 17.0804 33.7437C13.9926 33.6491 11.0267 32.517 8.66125 30.53C8.59844 30.4772 8.52578 30.4373 8.44758 30.4125C8.3693 30.3877 8.28695 30.3787 8.20516 30.3858C8.12336 30.3928 8.04383 30.4159 7.97094 30.4538C7.89812 30.4916 7.83344 30.5434 7.78063 30.6063C7.72781 30.6691 7.68788 30.7417 7.66313 30.8199C7.63838 30.8982 7.62929 30.9805 7.63637 31.0623C7.64345 31.1441 7.66656 31.2237 7.7044 31.2966C7.74223 31.3694 7.79405 31.4341 7.85688 31.4869C8.14563 31.7294 8.44563 31.9538 8.75 32.1744V35H3.75V25.9594C4.32195 27.2905 5.0843 28.5313 6.01313 29.6431C6.11979 29.77 6.2725 29.8493 6.43765 29.8637C6.6028 29.878 6.76686 29.826 6.89375 29.7194C7.02064 29.6127 7.09996 29.46 7.11426 29.2948C7.12855 29.1297 7.07666 28.9656 6.97 28.8387C5.28762 26.8339 4.21235 24.3906 3.87054 21.7959C3.52872 19.201 3.93454 16.5626 5.04033 14.1905C6.14612 11.8184 7.90594 9.81109 10.113 8.40453C12.3202 6.99798 14.8828 6.25052 17.5 6.25H32.5V11.25H23.75C23.5842 11.25 23.4252 11.3159 23.308 11.433C23.1909 11.5502 23.125 11.7092 23.125 11.875C23.125 12.0408 23.1909 12.1998 23.308 12.317C23.4252 12.4341 23.5842 12.5 23.75 12.5H32.5V13.125C32.5 13.2908 32.5659 13.4498 32.683 13.567C32.8002 13.6841 32.9592 13.75 33.125 13.75H38.125C38.2908 13.75 38.4498 13.6841 38.567 13.567C38.6841 13.4498 38.75 13.2908 38.75 13.125V8.75C38.75 8.58422 38.6841 8.42523 38.567 8.30805C38.4498 8.19086 38.2908 8.125 38.125 8.125C37.9592 8.125 37.8002 8.19086 37.683 8.30805C37.5659 8.42523 37.5 8.58422 37.5 8.75V12.5H33.75V5H37.5V6.25C37.5 6.41576 37.5659 6.57473 37.683 6.69195C37.8002 6.80915 37.9592 6.875 38.125 6.875Z" fill="black"/>
<path d="M18.125 8.75C18.125 8.58422 18.0591 8.42523 17.942 8.30805C17.8248 8.19086 17.6658 8.125 17.5 8.125C14.3516 8.12844 11.3332 9.3807 9.10695 11.607C6.8807 13.8332 5.62848 16.8516 5.625 20C5.625 20.1658 5.69085 20.3248 5.80805 20.442C5.92527 20.5591 6.08424 20.625 6.25 20.625C6.41576 20.625 6.57473 20.5591 6.69195 20.442C6.80915 20.3248 6.875 20.1658 6.875 20C6.87814 17.183 7.99859 14.4823 9.99047 12.4905C11.9823 10.4986 14.683 9.37812 17.5 9.375C17.6658 9.375 17.8248 9.30914 17.942 9.19195C18.0591 9.07477 18.125 8.91578 18.125 8.75Z" fill="black"/>
<path d="M17.5 31.875C20.6484 31.8716 23.6668 30.6193 25.893 28.393C28.1193 26.1668 29.3716 23.1484 29.375 20C29.375 19.8342 29.3091 19.6752 29.192 19.558C29.0748 19.4409 28.9158 19.375 28.75 19.375C28.5842 19.375 28.4252 19.4409 28.308 19.558C28.1909 19.6752 28.125 19.8342 28.125 20C28.1219 22.817 27.0014 25.5177 25.0095 27.5095C23.0177 29.5014 20.317 30.6219 17.5 30.625C17.3342 30.625 17.1752 30.6909 17.058 30.808C16.9409 30.9252 16.875 31.0842 16.875 31.25C16.875 31.4158 16.9409 31.5748 17.058 31.692C17.1752 31.8091 17.3342 31.875 17.5 31.875Z" fill="black"/>
</svg>
