<svg width="40" height="40" viewBox="0 0 40 40" fill="none" xmlns="http://www.w3.org/2000/svg">
<g clip-path="url(#clip0_114_125)">
<mask id="mask0_114_125" style="mask-type:luminance" maskUnits="userSpaceOnUse" x="0" y="0" width="40" height="40">
<path d="M40 0H0V40H40V0Z" fill="white"/>
</mask>
<g mask="url(#mask0_114_125)">
<path d="M38.6095 2.27233C36.907 0.595769 34.1502 0.497801 32.3336 2.04905C30.9824 3.20288 30.405 5.04249 30.8488 6.75733L29.422 8.09602L29.0009 7.64726C28.5484 7.16499 27.788 7.14077 27.3058 7.59327L26.6505 8.20805C26.5732 8.28055 26.508 8.36219 26.4534 8.44977C26.3153 8.41337 26.1722 8.3918 26.0259 8.38712C25.518 8.3704 25.0362 8.55321 24.6665 8.90016L23.7495 9.76055C23.3238 10.1602 23.2809 10.8165 23.6346 11.2674L18.9203 15.6908C18.7104 15.8877 18.5897 16.1546 18.5805 16.4423C18.5714 16.73 18.6748 17.004 18.8717 17.2139L19.4659 17.8473L18.6465 18.6162L17.5528 17.8399C17.2109 17.5973 16.7948 17.5023 16.3816 17.5724C15.9682 17.6427 15.6068 17.8696 15.3642 18.2116C14.9338 18.8182 14.9903 19.6517 15.4988 20.1936C15.5704 20.2699 15.6502 20.3395 15.7358 20.4002L16.3105 20.8081L15.765 21.3198L14.6713 20.5436C13.9655 20.0426 12.9837 20.2092 12.4827 20.9152C12.0522 21.5217 12.1088 22.3552 12.6172 22.8971C12.6887 22.9734 12.7684 23.0429 12.8542 23.1038L13.4289 23.5116L12.9406 23.9698L11.847 23.1935C11.505 22.9509 11.0888 22.8556 10.6757 22.926C10.2623 22.9962 9.90094 23.2232 9.65828 23.5652C9.22781 24.1718 9.28437 25.0053 9.79281 25.5472C9.86445 25.6235 9.94422 25.6931 10.0298 25.7538L10.6045 26.1617L10.1298 26.6072L9.60773 26.0508C9.01094 25.4147 8.00766 25.3827 7.37173 25.9795L7.27454 26.0706C6.63845 26.6674 6.60641 27.6706 7.20337 28.3067L7.52079 28.6451L6.09407 29.9838C4.41071 29.4317 2.53829 29.891 1.30087 31.1661C-0.362961 32.8804 -0.440462 35.6377 1.12438 37.4434C1.96251 38.4106 3.12618 38.9795 4.40126 39.0453C4.48399 39.0495 4.56641 39.0517 4.64852 39.0517C5.83329 39.0517 6.95266 38.6096 7.82359 37.7924C9.0693 36.6236 9.57039 34.8834 9.1425 33.2327L10.5692 31.8941L10.8866 32.2323C11.1758 32.5405 11.5676 32.7177 11.99 32.731C12.0073 32.7316 12.0244 32.7318 12.0416 32.7318C12.445 32.7318 12.8272 32.5808 13.1228 32.3034L13.2198 32.2124C13.528 31.9233 13.7052 31.5315 13.7186 31.1091C13.7321 30.6868 13.5802 30.2845 13.2911 29.9763L12.8837 29.5421L13.9534 28.5384L15.1864 29.4136C15.4548 29.6041 15.7689 29.7036 16.0916 29.7036C16.1799 29.7036 16.269 29.6962 16.3577 29.6811C16.7711 29.6109 17.1325 29.3839 17.3751 29.042C17.876 28.3363 17.7095 27.3545 17.0036 26.8534L16.2895 26.3466L16.7778 25.8884L18.0109 26.7636C18.286 26.9589 18.603 27.0527 18.9173 27.0527C19.4091 27.0527 19.8939 26.8227 20.1996 26.392C20.7005 25.6864 20.5338 24.7046 19.828 24.2033L19.1141 23.6965L19.6595 23.1847L20.8926 24.0598C21.161 24.2504 21.475 24.3498 21.7978 24.3498C21.8861 24.3498 21.9752 24.3424 22.0639 24.3273C22.4773 24.2571 22.8387 24.0302 23.0813 23.6883C23.3239 23.3464 23.419 22.9304 23.3488 22.517C23.2787 22.1036 23.0516 21.7422 22.7097 21.4997L21.9957 20.9929L22.2202 20.7822L22.8145 21.4156C23.0115 21.6254 23.2783 21.7461 23.5659 21.7552C23.5777 21.7556 23.5894 21.7558 23.6011 21.7558C23.8759 21.7558 24.1362 21.6529 24.3376 21.4641L29.0518 17.0409C29.2475 17.2159 29.4956 17.3162 29.7612 17.3246C29.7734 17.325 29.7856 17.3252 29.7977 17.3252C30.0833 17.3252 30.3538 17.2183 30.563 17.022L31.48 16.1616C32.0187 15.6562 32.1945 14.9085 32.0009 14.2436C32.0646 14.2034 32.1255 14.1568 32.1824 14.1034L32.8377 13.4886C33.0713 13.2695 33.2055 12.9723 33.2157 12.6522C33.2259 12.332 33.1109 12.027 32.8916 11.7934L32.4706 11.3447L33.8974 10.006C35.5174 10.538 37.2859 10.1487 38.5318 8.97985C39.463 8.10602 39.9845 6.9214 39.9998 5.64421C40.015 4.36788 39.5213 3.1703 38.6095 2.27233ZM8.27125 32.436C7.99141 32.6984 7.88219 33.0934 7.98609 33.4665C8.33477 34.718 7.96383 36.0468 7.01798 36.9341C6.32243 37.5867 5.41477 37.9188 4.46196 37.8698C3.50985 37.8206 2.64048 37.3955 2.01407 36.6727C0.845789 35.3245 0.903523 33.266 2.14563 31.9863C2.81095 31.3007 3.7218 30.9309 4.64899 30.9309C5.03141 30.9309 5.41657 30.9938 5.78837 31.1234C6.15337 31.2509 6.55391 31.1669 6.83376 30.9043L8.32625 29.5038L9.76352 31.0357L8.27125 32.436ZM12.4141 31.3542L12.3171 31.4452C12.2383 31.5191 12.1357 31.5577 12.0273 31.5546C11.9194 31.5512 11.8191 31.5059 11.7452 31.427L8.06188 27.5015C7.90922 27.3388 7.91734 27.0822 8.08 26.9295L8.17719 26.8384C8.25273 26.7675 8.35055 26.7289 8.45375 26.7289C8.45813 26.7289 8.46258 26.729 8.46695 26.7291C8.57492 26.7325 8.67516 26.7778 8.74922 26.8566L12.4325 30.7822C12.5064 30.861 12.5453 30.9639 12.5418 31.072C12.5383 31.18 12.493 31.2803 12.4141 31.3542ZM12.078 28.6839L10.9353 27.466L11.5841 26.8573L12.9736 27.8435L12.078 28.6839ZM16.322 27.8137C16.3227 27.8142 16.3318 27.8213 16.3371 27.8256L16.322 27.8137C16.4984 27.939 16.5402 28.1845 16.4148 28.3609C16.3541 28.4464 16.2638 28.5031 16.1605 28.5207C16.0573 28.5381 15.9531 28.5145 15.8677 28.4538L10.7112 24.794C10.6895 24.7786 10.6694 24.7611 10.6514 24.742V24.7419C10.5245 24.6068 10.5108 24.3986 10.6184 24.2469C10.6791 24.1614 10.7695 24.1047 10.8727 24.0872C10.8949 24.0834 10.9172 24.0816 10.9393 24.0816C11.02 24.0816 11.0985 24.1064 11.1656 24.1541L16.322 27.8137ZM13.9202 24.6655L14.4085 24.2073L15.798 25.1936L15.3098 25.6516L13.9202 24.6655ZM19.1452 25.1628C19.1462 25.1636 19.1452 25.1628 19.1463 25.1635C19.3227 25.289 19.3645 25.5345 19.2392 25.7109C19.114 25.8873 18.8685 25.9291 18.692 25.8038L13.5357 22.1441C13.5139 22.1287 13.4937 22.1111 13.4757 22.0919C13.349 21.9567 13.3351 21.7485 13.4427 21.5969C13.5191 21.4891 13.6404 21.4316 13.7633 21.4316C13.8418 21.4316 13.921 21.4551 13.9898 21.5039L19.1452 25.1628ZM16.7445 22.0154L17.29 21.5036L18.6796 22.4898L18.1341 23.0016L16.7445 22.0154ZM22.028 22.4602C22.1134 22.5207 22.1702 22.611 22.1877 22.7144C22.2052 22.8177 22.1815 22.9217 22.1208 23.0072C22.0601 23.0927 21.9698 23.1494 21.8664 23.167C21.7633 23.1844 21.6591 23.1608 21.5737 23.1001C21.5727 23.0994 21.5758 23.1016 21.5747 23.1009L16.417 19.4404C16.3953 19.425 16.3752 19.4075 16.3573 19.3884C16.2304 19.2532 16.2166 19.0451 16.3243 18.8934C16.385 18.8079 16.4753 18.7512 16.5787 18.7336C16.6009 18.7298 16.6231 18.728 16.6452 18.728C16.7259 18.728 16.8044 18.7528 16.8715 18.8005L22.028 22.4602ZM19.6262 19.3116L20.2716 18.706L21.4144 19.9239L21.0157 20.2979L19.6262 19.3116ZM30.6742 15.3033L29.7991 16.1244L28.8669 15.1309C28.6445 14.8938 28.2719 14.882 28.0348 15.1044C27.7978 15.3268 27.7859 15.6994 28.0084 15.9364L28.2424 16.1859L23.6045 20.5374L19.7987 16.4813L24.4366 12.1296L26.397 14.2191C26.6195 14.4562 26.992 14.468 27.2291 14.2456C27.4661 14.0231 27.478 13.6506 27.2555 13.4135L24.597 10.58L25.4721 9.75891C25.6127 9.62704 25.7971 9.55805 25.9886 9.56399C26.1812 9.57008 26.3598 9.65086 26.4916 9.79133L30.7067 14.2838C30.9787 14.5738 30.9642 15.0312 30.6742 15.3033ZM32.0318 12.6303L31.3766 13.2451C31.3677 13.2534 31.3537 13.2528 31.3455 13.2441L27.4552 9.09782C27.4532 9.09571 27.449 9.09126 27.4492 9.08204C27.4495 9.0729 27.454 9.06876 27.4561 9.06672L28.1113 8.45196C28.1134 8.45001 28.1177 8.44602 28.1262 8.44602C28.1265 8.44602 28.1267 8.44602 28.127 8.44602C28.1362 8.44633 28.1403 8.45079 28.1423 8.4529L32.0327 12.5992C32.0347 12.6013 32.0389 12.6058 32.0387 12.6149C32.0384 12.6241 32.034 12.6283 32.0318 12.6303ZM37.726 8.12165C36.7802 9.00915 35.4305 9.29469 34.2038 8.86719C33.8381 8.73977 33.437 8.8236 33.1573 9.08618L31.6649 10.4865L30.2277 8.95461L31.7203 7.55405C32.0001 7.29147 32.1093 6.8971 32.0054 6.52468C31.6433 5.22593 32.0722 3.82054 33.0983 2.94429C34.4543 1.78624 36.5125 1.85944 37.7836 3.11108C38.465 3.78218 38.834 4.67686 38.8224 5.63015C38.8109 6.58421 38.4215 7.46905 37.726 8.12165Z" fill="black"/>
<path d="M37.0491 4.10222C36.205 3.20276 34.7867 3.15761 33.8873 4.00159C33.4515 4.41042 33.2011 4.96448 33.1821 5.56159C33.1631 6.15878 33.3778 6.72761 33.7866 7.16339C34.1954 7.59917 34.7495 7.84968 35.3466 7.86866C35.3711 7.86944 35.3953 7.86983 35.4196 7.86983C35.99 7.86983 36.5304 7.6562 36.9483 7.26409C37.8478 6.42019 37.8931 5.00183 37.0491 4.10222ZM36.1428 6.40565C35.7168 6.8055 35.0449 6.78394 34.645 6.35792C34.4514 6.15151 34.3497 5.88206 34.3587 5.59917C34.3677 5.31628 34.4864 5.05394 34.6928 4.86019C34.8969 4.6687 35.1575 4.57378 35.4175 4.57378C35.7002 4.57378 35.9822 4.68597 36.1905 4.90784C36.5903 5.33394 36.5689 6.00581 36.1428 6.40565Z" fill="black"/>
<path d="M6.31227 32.9417C5.90345 32.5059 5.34938 32.2555 4.75227 32.2365C4.15571 32.2177 3.58626 32.4323 3.15048 32.841C2.71477 33.2498 2.46431 33.8039 2.44532 34.4011C2.42626 34.9983 2.64102 35.5671 3.04985 36.0029C3.45868 36.4387 4.01274 36.6891 4.60985 36.7081C4.63423 36.7089 4.6586 36.7093 4.68282 36.7093C5.25321 36.7093 5.79368 36.4957 6.21157 36.1036C6.64727 35.6948 6.89774 35.1407 6.91673 34.5435C6.93587 33.9463 6.7211 33.3775 6.31227 32.9417ZM5.40602 35.2449C4.97993 35.6448 4.30806 35.6233 3.90821 35.1973C3.71462 34.9909 3.6129 34.7214 3.62188 34.4385C3.63095 34.1556 3.74954 33.8932 3.95595 33.6995C4.16009 33.508 4.42056 33.4132 4.68063 33.4132C4.96337 33.4132 5.2454 33.5254 5.45376 33.7473C5.64735 33.9536 5.74907 34.2231 5.74009 34.506C5.73102 34.7888 5.61243 35.0513 5.40602 35.2449Z" fill="black"/>
<path d="M25.3145 13.3904C25.0921 13.1534 24.7195 13.1415 24.4825 13.3639L21.1627 16.4788C20.9256 16.7012 20.9137 17.0738 21.1362 17.3108C21.2521 17.4343 21.4086 17.4967 21.5656 17.4967C21.71 17.4967 21.8547 17.4439 21.9682 17.3373L25.288 14.2225C25.5251 14 25.537 13.6275 25.3145 13.3904Z" fill="black"/>
</g>
</g>
<defs>
<clipPath id="clip0_114_125">
<rect width="40" height="40" fill="white"/>
</clipPath>
</defs>
</svg>
