<svg width="40" height="40" viewBox="0 0 40 40" fill="none" xmlns="http://www.w3.org/2000/svg">
<path d="M36.25 22.5C36.4158 22.5 36.5748 22.4341 36.692 22.317C36.8091 22.1998 36.875 22.0408 36.875 21.875V18.75H38.125C38.2908 18.75 38.4498 18.6841 38.567 18.567C38.6841 18.4498 38.75 18.2908 38.75 18.125V15.625C38.75 15.4592 38.6841 15.3002 38.567 15.183C38.4498 15.0659 38.2908 15 38.125 15H35.625V13.125C35.625 12.9592 35.5591 12.8002 35.442 12.683C35.3248 12.5659 35.1658 12.5 35 12.5V10.625C35 10.4592 34.9341 10.3002 34.817 10.183C34.6998 10.0659 34.5408 10 34.375 10H30.625C30.4592 10 30.3002 10.0659 30.183 10.183C30.0659 10.3002 30 10.4592 30 10.625V12.5C29.8342 12.5 29.6752 12.5659 29.558 12.683C29.4409 12.8002 29.375 12.9592 29.375 13.125V15H28.125V13.125C28.125 12.9592 28.0591 12.8002 27.942 12.683C27.8248 12.5659 27.6658 12.5 27.5 12.5H26.25V10.625C26.25 10.1277 26.0524 9.65078 25.7009 9.29914C25.3492 8.94758 24.8723 8.75 24.375 8.75H15.625C15.1277 8.75 14.6508 8.94758 14.2991 9.29914C13.9476 9.65078 13.75 10.1277 13.75 10.625V12.5H12.5C12.3342 12.5 12.1752 12.5659 12.058 12.683C11.9409 12.8002 11.875 12.9592 11.875 13.125V15H10.625V13.125C10.625 12.9592 10.5591 12.8002 10.442 12.683C10.3248 12.5659 10.1658 12.5 10 12.5V10.625C10 10.4592 9.93414 10.3002 9.81695 10.183C9.69977 10.0659 9.54078 10 9.375 10H5.625C5.45924 10 5.30027 10.0659 5.18305 10.183C5.06585 10.3002 5 10.4592 5 10.625V12.5C4.83424 12.5 4.67527 12.5659 4.55805 12.683C4.44085 12.8002 4.375 12.9592 4.375 13.125V15H1.875C1.70924 15 1.55027 15.0659 1.43305 15.183C1.31585 15.3002 1.25 15.4592 1.25 15.625V18.125C1.25 18.2908 1.31585 18.4498 1.43305 18.567C1.55027 18.6841 1.70924 18.75 1.875 18.75H3.125V35H1.875C1.70924 35 1.55027 35.0659 1.43305 35.183C1.31585 35.3002 1.25 35.4592 1.25 35.625V38.125C1.25 38.2908 1.31585 38.4498 1.43305 38.567C1.55027 38.6841 1.70924 38.75 1.875 38.75H26.875C27.0408 38.75 27.1998 38.6841 27.317 38.567C27.4341 38.4498 27.5 38.2908 27.5 38.125C27.5 37.9592 27.4341 37.8002 27.317 37.683C27.1998 37.5659 27.0408 37.5 26.875 37.5H2.5V36.25H37.5V37.5H29.375C29.2092 37.5 29.0502 37.5659 28.933 37.683C28.8159 37.8002 28.75 37.9592 28.75 38.125C28.75 38.2908 28.8159 38.4498 28.933 38.567C29.0502 38.6841 29.2092 38.75 29.375 38.75H38.125C38.2908 38.75 38.4498 38.6841 38.567 38.567C38.6841 38.4498 38.75 38.2908 38.75 38.125V35.625C38.75 35.4592 38.6841 35.3002 38.567 35.183C38.4498 35.0659 38.2908 35 38.125 35H36.875V24.375C36.875 24.2092 36.8091 24.0502 36.692 23.933C36.5748 23.8159 36.4158 23.75 36.25 23.75C36.0842 23.75 35.9252 23.8159 35.808 23.933C35.6909 24.0502 35.625 24.2092 35.625 24.375V35H4.375V18.75H8.75C8.91578 18.75 9.07477 18.6841 9.19195 18.567C9.30914 18.4498 9.375 18.2908 9.375 18.125C9.375 17.9592 9.30914 17.8002 9.19195 17.683C9.07477 17.5659 8.91578 17.5 8.75 17.5H2.5V16.25H37.5V17.5H11.25C11.0842 17.5 10.9252 17.5659 10.808 17.683C10.6909 17.8002 10.625 17.9592 10.625 18.125C10.625 18.2908 10.6909 18.4498 10.808 18.567C10.9252 18.6841 11.0842 18.75 11.25 18.75H35.625V21.875C35.625 22.0408 35.6909 22.1998 35.808 22.317C35.9252 22.4341 36.0842 22.5 36.25 22.5ZM31.25 11.25H33.75V12.5H31.25V11.25ZM15 10.625C15 10.4592 15.0659 10.3002 15.183 10.183C15.3002 10.0659 15.4592 10 15.625 10H24.375C24.5408 10 24.6998 10.0659 24.817 10.183C24.9341 10.3002 25 10.4592 25 10.625V12.5H15V10.625ZM6.25 11.25H8.75V12.5H6.25V11.25ZM5.625 15V13.75H9.375V15H5.625ZM13.125 15V13.75H26.875V15H13.125ZM30.625 15V13.75H34.375V15H30.625Z" fill="black"/>
<path d="M18.5625 33.7219C18.6233 33.7405 18.6865 33.75 18.75 33.75C18.8629 33.7501 18.9737 33.7195 19.0707 33.6616C19.1677 33.6037 19.2471 33.5207 19.3006 33.4212L23.6756 25.2962C23.7269 25.201 23.7526 25.0941 23.7502 24.9859C23.7477 24.8778 23.7173 24.7722 23.6618 24.6794C23.6063 24.5865 23.5277 24.5097 23.4336 24.4563C23.3395 24.403 23.2331 24.3749 23.125 24.375H21.3631L21.8631 21.3531C21.878 21.2638 21.8734 21.1723 21.8495 21.0851C21.8256 20.9977 21.783 20.9166 21.7248 20.8474C21.6665 20.7782 21.5938 20.7224 21.5119 20.684C21.4298 20.6456 21.3405 20.6255 21.25 20.625H17.5C17.3342 20.625 17.1752 20.6909 17.058 20.808C16.9409 20.9252 16.875 21.0842 16.875 21.25V23.125C16.875 23.2908 16.9409 23.4498 17.058 23.567C17.1752 23.6841 17.3342 23.75 17.5 23.75C17.6658 23.75 17.8248 23.6841 17.942 23.567C18.0591 23.4498 18.125 23.2908 18.125 23.125V21.875H20.5119L20.0119 24.8969C19.997 24.9862 20.0016 25.0777 20.0255 25.1649C20.0494 25.2523 20.092 25.3334 20.1502 25.4026C20.2085 25.4718 20.2812 25.5276 20.3631 25.566C20.4452 25.6044 20.5345 25.6245 20.625 25.625H22.0788L19.7269 29.9925L19.9962 27.5688C20.0059 27.4814 19.997 27.393 19.9702 27.3093C19.9434 27.2256 19.8993 27.1485 19.8406 27.083C19.782 27.0176 19.7102 26.9652 19.63 26.9294C19.5498 26.8935 19.4629 26.875 19.375 26.875H18.125V25.625C18.125 25.4592 18.0591 25.3002 17.942 25.183C17.8248 25.0659 17.6658 25 17.5 25C17.3342 25 17.1752 25.0659 17.058 25.183C16.9409 25.3002 16.875 25.4592 16.875 25.625V27.5C16.875 27.6658 16.9409 27.8248 17.058 27.942C17.1752 28.0591 17.3342 28.125 17.5 28.125H18.6769L18.1288 33.0562C18.1127 33.2003 18.1471 33.3454 18.2263 33.4669C18.3054 33.5883 18.4242 33.6784 18.5625 33.7219Z" fill="black"/>
<path d="M28.75 26.25C28.5842 26.25 28.4252 26.3159 28.308 26.433C28.1909 26.5502 28.125 26.7092 28.125 26.875C28.125 27.0408 28.1909 27.1998 28.308 27.317C28.4252 27.4341 28.5842 27.5 28.75 27.5H31.25C31.4158 27.5 31.5748 27.4341 31.692 27.317C31.8091 27.1998 31.875 27.0408 31.875 26.875C31.875 26.7092 31.8091 26.5502 31.692 26.433C31.5748 26.3159 31.4158 26.25 31.25 26.25H28.75Z" fill="black"/>
<path d="M33.112 29.0526C33.2615 29.124 33.4332 29.1331 33.5895 29.0779C33.7457 29.0226 33.8736 28.9077 33.9451 28.7582C34.2284 28.1709 34.3753 27.5272 34.3751 26.8751C34.3771 25.924 34.0698 24.9981 33.4996 24.237C32.9293 23.4758 32.1271 22.9208 31.2138 22.6554C30.3005 22.3902 29.3257 22.429 28.4364 22.7662C27.5471 23.1033 26.7916 23.7205 26.2837 24.5247C25.7759 25.3288 25.5433 26.2762 25.621 27.224C25.6987 28.1719 26.0825 29.0688 26.7146 29.7795C27.3466 30.4901 28.1925 30.9761 29.1249 31.1639C30.0572 31.3517 31.0253 31.2312 31.8832 30.8207C32.0216 30.743 32.1252 30.6155 32.1731 30.4642C32.2209 30.3129 32.2094 30.149 32.1408 30.0058C32.0723 29.8627 31.9518 29.751 31.8039 29.6934C31.656 29.6358 31.4918 29.6366 31.3445 29.6957C30.677 30.0156 29.9179 30.0892 29.2015 29.9033C28.485 29.7176 27.8574 29.2844 27.4296 28.6804C27.0018 28.0764 26.8014 27.3405 26.8638 26.603C26.9262 25.8655 27.2475 25.1739 27.7707 24.6504C28.294 24.1269 28.9855 23.8054 29.723 23.7426C30.4605 23.6799 31.1964 23.88 31.8006 24.3076C32.4047 24.7351 32.8382 25.3626 33.0243 26.0789C33.2104 26.7953 33.1372 27.5543 32.8176 28.2219C32.747 28.3712 32.7383 28.5423 32.7935 28.698C32.8486 28.8536 32.9632 28.9811 33.112 29.0526Z" fill="black"/>
<path d="M6.88801 24.6974C6.81394 24.662 6.73361 24.6414 6.65161 24.6371C6.56962 24.6327 6.48756 24.6445 6.41013 24.6718C6.33271 24.6992 6.26142 24.7415 6.20036 24.7964C6.1393 24.8513 6.08965 24.9177 6.05426 24.9917C5.60713 25.9256 5.50465 26.9875 5.76495 27.9896C6.02525 28.9917 6.63156 29.8695 7.47663 30.4677C8.32174 31.0659 9.35111 31.3459 10.3828 31.2583C11.4144 31.1707 12.3818 30.721 13.1139 29.9889C13.8461 29.2568 14.2957 28.2894 14.3833 27.2578C14.4709 26.2261 14.1909 25.1968 13.5927 24.3517C12.9945 23.5066 12.1167 22.9003 11.1145 22.64C10.1124 22.3796 9.05056 22.4821 8.11674 22.9293C7.97838 23.007 7.87478 23.1345 7.82689 23.2858C7.77906 23.4371 7.79059 23.601 7.85916 23.7442C7.92767 23.8873 8.04814 23.999 8.19603 24.0566C8.34392 24.1142 8.50822 24.1134 8.65549 24.0542C9.32291 23.7343 10.082 23.6608 10.7985 23.8466C11.5149 24.0325 12.1426 24.4657 12.5704 25.0696C12.9982 25.6736 13.1986 26.4094 13.1362 27.147C13.0738 27.8845 12.7525 28.5761 12.2292 29.0996C11.706 29.6231 11.0145 29.9446 10.277 30.0074C9.53947 30.0701 8.80353 29.87 8.19939 29.4425C7.59524 29.0149 7.16175 28.3875 6.97564 27.671C6.78951 26.9547 6.86274 26.1956 7.18239 25.528C7.25299 25.3788 7.26165 25.2076 7.20649 25.052C7.15135 24.8964 7.03685 24.7689 6.88801 24.6974Z" fill="black"/>
<path d="M10 25C9.83422 25 9.67523 25.0659 9.55805 25.183C9.44086 25.3002 9.375 25.4592 9.375 25.625V26.25H8.75C8.58422 26.25 8.42523 26.3159 8.30805 26.433C8.19086 26.5502 8.125 26.7092 8.125 26.875C8.125 27.0408 8.19086 27.1998 8.30805 27.317C8.42523 27.4341 8.58422 27.5 8.75 27.5H9.375V28.125C9.375 28.2908 9.44086 28.4498 9.55805 28.567C9.67523 28.6841 9.83422 28.75 10 28.75C10.1658 28.75 10.3248 28.6841 10.442 28.567C10.5591 28.4498 10.625 28.2908 10.625 28.125V27.5H11.25C11.4158 27.5 11.5748 27.4341 11.692 27.317C11.8091 27.1998 11.875 27.0408 11.875 26.875C11.875 26.7092 11.8091 26.5502 11.692 26.433C11.5748 26.3159 11.4158 26.25 11.25 26.25H10.625V25.625C10.625 25.4592 10.5591 25.3002 10.442 25.183C10.3248 25.0659 10.1658 25 10 25Z" fill="black"/>
</svg>
